<svg width="247" height="133" viewBox="0 0 247 133" fill="none" xmlns="http://www.w3.org/2000/svg">
<g clip-path="url(#clip0_416_1726)">
<path d="M68.9075 34.266C66.8267 30.4638 64.9052 26.944 63.672 23.5641C63.2632 22.1934 62.942 20.8436 62.7434 19.5501C62.0442 15.8478 62.3363 13.6732 63.6353 10.6766C63.6629 10.614 63.6921 10.5495 63.7221 10.485C64.3403 10.1008 65.1922 9.74288 66.1684 9.63842C68.3435 9.40498 72.0371 10.0054 73.4497 14.3309C74.9398 18.9007 71.7585 27.8105 68.9075 34.266ZM82.3412 8.49574C82.1994 8.19871 81.6729 7.12416 81.4919 6.75629C81.4577 6.68816 81.4351 6.64365 81.4301 6.63366C79.1324 2.04022 79.0548 2.9104 77.6205 2.63427C77.5671 2.62428 77.5121 2.60884 77.4587 2.5943C75.825 2.18465 73.0175 1.02652 71.6458 0.477887C70.2283 -0.087096 66.4979 1.12825 64.09 1.38622C63.4776 1.45071 63.0029 1.57334 62.6241 1.73411C61.5169 2.20191 61.2416 2.99669 60.7844 3.64797C60.5174 4.02947 60.3305 4.14483 60.0827 4.20841C60.0777 4.20932 60.071 4.20932 60.0677 4.21114C58.1946 4.94234 53.7692 10.8856 54.7254 19.0869C54.7938 19.8917 54.949 20.6756 55.1484 21.4431C56.9781 29.3138 63.1013 39.8696 64.6048 42.8652C63.4968 45.6411 61.1323 51.3409 60.3781 56.7091C60.3472 56.8908 60.1645 58.1243 60.1528 59.1598C60.0527 61.8884 60.5224 64.3855 61.9758 66.1785C61.985 66.1894 62.2612 66.5119 62.2737 66.5264C63.0171 67.3239 63.8931 67.8308 64.775 68.1351C66.0232 68.72 66.9727 68.393 67.8913 68.2232C68.301 68.4938 68.7298 68.7028 69.1662 68.8654C71.7927 69.8536 74.7312 69.0606 76.1079 68.2232C77.9543 67.5701 78.7961 66.3901 79.3234 64.5608C79.8549 62.8377 80.6684 59.3215 78.827 54.1177C78.0002 51.8704 76.3365 48.3534 73.7734 43.2413L73.7567 43.2113C75.8117 38.9776 81.3142 28.5018 82.2937 25.4407C82.3471 25.279 82.393 25.1228 82.4389 24.9665C84.1025 20.3322 85.1888 14.2019 82.3412 8.49574" fill="white"/>
<path d="M67.3464 48.4619C66.7531 47.2166 65.4549 44.5034 65.1779 43.8585C62.1609 50.2586 61.4167 57.3663 61.3691 59.4319C61.4008 61.0196 61.3691 63.4276 63.4316 64.4531C66.1683 60.3956 61.3691 54.3334 67.3464 48.4619Z" fill="#ACA9A6"/>
<path d="M74.2728 27.1184C74.9786 23.3025 76.7382 20.0489 74.5039 14.7451C72.6633 10.3788 69.4953 8.81642 66.168 9.63937H66.1688C68.3456 9.40593 72.0401 10.0045 73.4509 14.3318C74.9411 18.9016 71.7597 27.8115 68.9088 34.267C68.8437 34.4187 68.7728 34.5704 68.706 34.7212C70.0919 37.3399 71.2257 39.5935 72.579 42.2549C72.579 42.2549 74.4029 39.0503 75.1605 37.5988C73.6069 33.6802 73.8322 29.4955 74.2728 27.1184Z" fill="#ACA9A6"/>
<path d="M82.9165 14.6729C82.9149 14.5411 82.9149 14.4067 82.9124 14.2805V14.2587C82.9115 14.2014 82.909 14.1506 82.909 14.0942C82.8898 13.5229 82.8531 13.0288 82.8031 12.62C82.7497 12.2176 82.6854 11.9179 82.6262 11.7035C82.3625 10.8433 81.7301 9.81509 81.0059 8.82591C79.5892 6.89026 77.8204 5.11174 77.7653 5.05542C77.6535 5.10901 77.5392 5.17351 77.4207 5.24799C75.9097 6.23262 75.9448 7.56969 70.6976 4.83379C69.905 4.4205 68.666 4.6821 67.9727 4.73206C73.2782 9.02211 79.1011 8.83863 82.9165 14.6729Z" fill="#BCBAB7"/>
<path d="M78.8468 30.8194C79.0495 30.486 79.2331 30.1763 79.3975 29.8947C79.5935 29.545 79.7796 29.1871 79.9556 28.8247C80.0357 28.6603 80.1133 28.4941 80.1892 28.3269C82.3435 23.6063 82.9476 18.0982 82.9167 14.672C80.2168 6.13182 72.3448 9.94046 69.8234 4.61582C69.7817 4.61854 67.8936 4.73844 67.8535 4.74298C67.977 4.91466 68.1047 5.08361 68.239 5.25256C69.2385 6.49516 71.5797 9.01669 74.0977 9.65979C76.6174 10.3038 78.73 10.7035 80.8559 14.1506C82.9818 17.6004 80.7207 22.4609 78.73 27.2342C77.9357 29.1381 77.8564 31.051 77.7405 32.9395C78.0642 32.4526 78.1343 31.8858 78.5181 31.3244C78.6299 31.1591 78.7392 30.9902 78.8468 30.8194Z" fill="#CCC9C6"/>
<path d="M80.8556 14.1518C78.7289 10.7028 76.6172 10.3032 74.0975 9.66006C71.5786 9.01787 69.2383 6.49452 68.2387 5.25192C68.1044 5.08479 67.9768 4.91403 67.8533 4.74417C66.1162 4.92856 64.7228 6.44366 63.7825 8.61276C63.4596 9.3585 63.1893 10.1805 62.9766 11.0507C63.6724 10.3949 64.8497 9.77905 66.1687 9.63917C69.4944 8.81531 72.6641 10.3776 74.5038 14.7458C76.739 20.0478 74.9786 23.3032 74.2719 27.1173C73.8313 29.4944 73.6069 33.6791 75.1596 37.5977C75.6994 36.5631 76.2826 35.1324 77.7402 32.9406C77.8562 31.0504 77.9346 29.1374 78.7289 27.2354C80.7205 22.4612 82.9807 17.5998 80.8556 14.1518Z" fill="#BBB8B5"/>
<path d="M67.9743 4.73081C67.9325 4.73353 67.8925 4.73991 67.8516 4.74173C66.1145 4.92885 64.7228 6.44121 63.7809 8.61212C63.4588 9.35877 63.1877 10.1799 62.9766 11.0519C63.186 10.8548 63.4355 10.6622 63.7208 10.4851C64.3407 10.1018 65.1926 9.743 66.1688 9.63854C68.3439 9.40601 72.0392 10.0055 73.4492 14.3301C74.9402 18.9008 71.7588 27.8106 68.9079 34.2662C70.2921 36.8849 71.1406 38.5453 72.7091 41.333C72.7091 41.333 79.4915 30.0751 79.5683 29.908C81.7217 25.1874 82.9215 19.3977 82.6003 14.7588C82.088 7.31959 77.8203 5.11143 77.7652 5.05602C77.6534 5.1087 77.5383 5.1741 77.4207 5.24768C75.9105 6.23322 75.8713 7.80554 70.6241 5.07055C70.0626 4.77625 69.3142 4.70536 68.6801 4.70536C68.419 4.70536 68.1762 4.71627 67.9743 4.73081" fill="url(#paint0_linear_416_1726)"/>
<path d="M65.7809 43.1898C63.4322 46.7559 59.827 65.8146 65.0684 65.1469C73.2966 63.8925 66.8714 45.6205 65.7809 43.1898Z" fill="#9A9794"/>
<path d="M67.9743 4.73098C67.9325 4.73371 67.8925 4.74009 67.8516 4.74191C66.1145 4.92902 64.7228 6.44138 63.7809 8.6123C63.4588 9.35895 63.1877 10.1801 62.9766 11.0521C63.186 10.8549 63.4355 10.6624 63.7208 10.4853C64.3407 10.102 65.1926 9.74318 66.1688 9.63872C68.3439 9.40619 72.0392 10.0057 73.4492 14.3302C74.9402 18.901 71.7588 27.8108 68.9079 34.2663C70.2921 36.885 71.4843 39.5592 72.8401 42.2197C72.8401 42.2197 80.1131 28.4957 80.1882 28.3277C82.3433 23.6062 83.2686 18.0789 82.9173 14.6727C82.5585 11.211 81.937 9.97206 81.156 8.69585C80.8832 8.24895 77.8203 5.1116 77.7652 5.0562C77.6534 5.10888 77.5383 5.17428 77.4207 5.24785C75.9105 6.23339 75.8713 7.80571 70.6241 5.07072C70.0626 4.77642 69.3142 4.70554 68.6801 4.70554C68.419 4.70554 68.1762 4.71645 67.9743 4.73098" fill="url(#paint1_linear_416_1726)"/>
<g opacity="0.279999">
<path d="M71.2734 7.05076C69.0366 7.07619 67.4004 7.86915 67.347 8.43504C77.7963 8.80746 78.6348 16.7663 68.42 36.8777C64.547 44.5031 63.0084 51.5137 62.9893 56.2234V56.4005C63.0009 59.3698 63.6292 61.3927 64.6588 62.0294C65.0117 62.2474 65.3897 62.3501 65.7634 62.3564H65.8277C67.4438 62.3319 68.9398 60.4843 67.891 58.1236C66.5861 55.1879 67.6883 49.132 71.0265 42.5166C74.3638 35.8985 86.0304 17.7064 78.8467 10.3153C76.458 7.85735 73.7047 7.07528 71.4912 7.05076H71.2734Z" fill="url(#paint2_linear_416_1726)"/>
</g>
<g opacity="0.330002">
<path d="M66.4189 8.19173C67.0071 7.98372 67.6212 7.86836 68.2353 7.79842C68.8518 7.72666 69.4743 7.71485 70.0933 7.75936C71.3323 7.84928 72.5747 8.17901 73.6852 8.83483C74.7973 9.48338 75.7402 10.4707 76.4201 11.6379C76.7555 12.2247 77.0309 12.8497 77.2595 13.4937C77.4697 14.1422 77.65 14.8017 77.7751 15.4775C78.2849 18.1879 78.0513 20.9947 77.534 23.6661C77.0083 26.3475 76.1982 28.9453 75.2529 31.4559C74.3151 33.9729 73.2221 36.4027 72.1116 38.8053L70.4221 42.385L68.7651 45.9602C67.6988 48.3509 66.6684 50.758 65.9558 53.2632C65.7756 53.889 65.6271 54.5212 65.5103 55.1616C65.3851 55.7975 65.2959 56.4433 65.2642 57.09C65.1916 58.3844 65.3234 59.7042 65.8007 60.9359L65.6571 61.0186C64.963 59.875 64.6209 58.4789 64.5425 57.0927C64.4565 55.703 64.6109 54.3114 64.867 52.9626C65.1132 51.6082 65.4928 50.2966 65.9024 49.0068C66.3121 47.7151 66.7927 46.458 67.2883 45.2136C69.2907 40.2486 71.6477 35.5335 73.7377 30.7302C74.2534 29.5257 74.7656 28.3222 75.2187 27.095C75.6801 25.8706 76.1031 24.6307 76.4443 23.3672C77.1318 20.8493 77.5215 18.1952 77.1685 15.5955C77.0909 14.947 76.9291 14.3112 76.7555 13.6853C76.562 13.0667 76.3234 12.4654 76.0288 11.8968C75.4273 10.7687 74.5737 9.79857 73.5308 9.12913C72.4921 8.45514 71.2956 8.07728 70.08 7.93649C69.4709 7.86654 68.856 7.8511 68.2428 7.89379C67.6304 7.9383 67.0171 8.0255 66.4231 8.20717L66.4189 8.19173Z" fill="#797775"/>
</g>
<g opacity="0.550003">
<path d="M60.248 57.9095C60.248 61.8208 61.9142 64.108 63.2425 65.0363C63.6672 65.3333 64.3839 65.5413 65.144 65.5586H65.345C65.6554 65.5513 65.9691 65.5123 66.2703 65.4324C68.3178 64.8892 69.868 62.6529 69.9039 58.4918V58.192C69.8897 56.5298 69.6402 54.5714 69.0954 52.3051C68.9135 51.5466 67.4601 48.115 67.1714 47.5073C66.5782 46.2629 65.2132 43.3344 64.9354 42.6895C62.5617 48.531 60.2956 55.8403 60.248 57.9095" fill="url(#paint3_linear_416_1726)"/>
</g>
<g opacity="0.440002">
<path d="M63.7818 8.61236C63.4598 9.35901 63.1903 10.1801 62.9775 11.0521C63.1853 10.855 63.4373 10.6625 63.7226 10.4854C64.3417 10.102 65.1936 9.74324 66.1681 9.63878C68.3449 9.40625 72.0385 10.0057 73.451 14.3303C74.9411 18.901 71.7598 27.8109 68.9089 34.2664C70.293 36.8851 71.5746 39.3131 72.9271 41.9736C72.9271 41.9736 80.1141 28.4958 80.1892 28.3277C82.3443 23.6071 84.36 14.759 81.0076 8.8258C79.8162 6.71756 78.1066 5.13617 78.0499 5.08076C77.8263 5.11709 77.5393 5.17434 77.4216 5.24791C75.9115 6.23345 76.4363 7.03367 71.089 4.53939C70.6518 4.33501 70.1912 4.24417 69.724 4.24417C67.2544 4.24417 64.5736 6.78843 63.7818 8.61236" fill="url(#paint4_linear_416_1726)"/>
</g>
<g opacity="0.440002">
<path d="M69.7335 4.6587C67.9939 4.67233 66.0457 6.21927 65.3207 7.10489C64.478 8.13585 63.1898 10.1805 62.977 11.0525C63.6728 10.3976 64.8493 9.77991 66.1675 9.63912C68.3443 9.40659 72.0379 10.0061 73.4505 14.3306C74.9406 18.9014 71.7593 27.8112 68.9083 34.2667C68.8416 34.4184 68.7732 34.571 68.7056 34.7209C68.4194 35.2741 65.0537 42.3209 64.9352 42.6897C62.856 49.2188 60.8444 55.9087 60.7969 57.977C60.7969 61.5186 61.9499 65.4934 65.1838 65.5488H65.3207C65.6202 65.5443 65.9356 65.5061 66.2701 65.4326C69.3472 64.7486 70.1123 59.2759 69.6501 56.4564C69.6501 56.4564 68.6572 51.8748 68.6105 51.7794C68.6105 51.7794 74.7195 38.4433 75.16 37.5985C75.6974 36.5639 80.1135 28.4961 80.1886 28.3281C82.3437 23.6075 83.1238 18.0921 82.9169 14.6731C82.8443 13.4696 81.7305 9.81623 81.0071 8.82614C79.5896 6.89049 77.5388 5.17468 77.4211 5.24825C75.911 6.23379 76.1487 7.04676 70.6997 4.83406C70.4085 4.71598 70.1023 4.66143 69.7886 4.6587H69.7335Z" fill="url(#paint5_linear_416_1726)"/>
</g>
<path d="M66.1103 8.99863C65.8274 9.03042 64.8396 9.24025 64.2388 9.45734L63.9143 9.99866L63.7207 10.4846C64.3406 10.1013 65.1925 9.74253 66.1687 9.63808C68.3438 9.40554 72.0391 10.005 73.4491 14.3296C74.9401 18.9003 71.7587 27.8102 68.9078 34.2657C68.8461 34.4065 68.7826 34.5455 68.7209 34.6854C69.1798 35.105 69.5411 35.4238 69.5411 35.4238C69.627 35.2694 69.6796 35.1423 69.7563 34.9833C72.6915 28.3234 75.565 18.8913 74.0065 14.1161C73.3999 12.2604 72.352 10.8707 70.891 9.98779C70.7992 9.93329 70.2444 9.64172 70.0517 9.56179C69.9582 9.52001 69.8648 9.48186 69.7705 9.44553C69.5878 9.3765 69.0196 9.2075 68.9262 9.1848C68.5707 9.09578 68.2019 9.03219 67.8282 8.99586C67.5495 8.96679 67.265 8.95411 66.9838 8.95411C66.6893 8.95411 66.3939 8.96774 66.1103 8.99863" fill="url(#paint6_linear_416_1726)"/>
<path d="M72.7096 41.3327C72.481 40.9158 72.345 40.6869 72.3442 40.686C72.2582 40.5279 72.1773 40.378 72.0939 40.2264C68.9301 34.0333 65.5234 28.6406 63.6712 23.5648C63.2632 22.1941 62.942 20.8434 62.7426 19.5518C62.0442 15.8476 62.3363 13.673 63.6353 10.6774C64.8843 7.79432 68.6614 4.19641 70.7748 5.29822C75.3319 7.67351 75.9385 6.5272 77.0373 5.55165C77.0715 5.52349 77.1575 5.45446 77.1925 5.41903C77.2167 5.39905 77.3561 5.30095 77.3794 5.28278C89.3272 15.2808 76.5192 34.6047 72.7096 41.3327ZM65.42 64.7622C65.1054 64.8158 64.8042 64.8249 64.5164 64.7922C64.04 64.7232 63.5627 64.5197 63.1064 64.1773C62.4672 63.6977 61.9925 62.9892 61.748 62.1871C61.0063 59.7682 61.1615 54.9559 65.1296 44.0586C65.5426 45.0378 65.9314 45.9588 66.1025 46.3367C68.3986 51.3952 68.9501 56.035 68.9526 58.8054C68.7048 62.2925 67.1612 64.4071 65.42 64.7622M82.3412 8.49555C82.1994 8.19943 81.6738 7.12578 81.4919 6.75609C81.4577 6.68706 81.4351 6.64256 81.4301 6.63257C79.1324 2.04003 79.0548 2.91203 77.6189 2.6359C77.568 2.62591 77.5121 2.60865 77.4587 2.59503C75.825 2.18628 73.0158 1.02633 71.6442 0.479516C70.2283 -0.0863757 66.4979 1.12807 64.09 1.38513C63.476 1.45143 63.0029 1.57315 62.6241 1.73301C61.5169 2.20171 61.2416 2.99651 60.7844 3.64778C60.5174 4.02837 60.3288 4.14554 60.0819 4.20731C60.0777 4.20913 60.071 4.20913 60.0677 4.21186C58.1946 4.94216 53.7692 10.8863 54.7254 19.0858C54.7922 19.8906 54.949 20.6754 55.1476 21.4438C56.9781 29.3136 63.1013 39.8712 64.6048 42.8651C63.4968 45.6418 61.1323 51.3407 60.3781 56.7081C60.3472 56.8897 60.1645 58.126 60.1528 59.1578V59.1596C60.0518 61.8883 60.5207 64.3871 61.9758 66.1792C61.985 66.1892 62.2612 66.5126 62.2745 66.5271C63.0162 67.3228 63.8931 67.8315 64.7759 68.1367C66.0232 68.7208 66.9727 68.3928 67.8896 68.2221C68.301 68.4946 68.7298 68.7017 69.167 68.8652C71.7927 69.8544 74.7312 69.0596 76.1079 68.2221C77.9543 67.5699 78.7945 66.39 79.3234 64.5615C79.8549 62.8393 80.6684 59.3213 78.8278 54.1184C77.9993 51.8703 76.3365 48.3523 73.7734 43.2411L73.7567 43.2111C75.8109 38.9774 81.3133 28.5025 82.2945 25.4405C82.3471 25.2797 82.393 25.1235 82.4389 24.9682C84.1025 20.3329 85.1888 14.2008 82.3412 8.49555" fill="#EFECE8"/>
<path d="M77.3916 33.2652C77.2189 33.5686 76.7783 34.2862 76.2302 35.1709C74.8635 37.6879 73.5645 39.8225 72.7109 41.3303C72.9888 41.8181 73.6079 42.9163 73.8723 43.4395C73.8381 43.3731 73.8064 43.3087 73.7739 43.2414L73.7564 43.2115C73.8882 42.9408 74.035 42.6428 74.1936 42.3222C74.1994 40.62 76.8593 34.5877 77.3916 33.2652Z" fill="#DAD7D3"/>
<path d="M71.6273 1.60417C70.6186 1.01557 69.3312 1.06281 68.1039 1.29625C67.7292 1.368 66.834 1.55512 66.834 1.55512C66.834 1.55512 68.6437 2.03926 70.0887 2.59516C71.0199 2.98302 72.5818 3.63975 74.464 2.55883L74.4991 2.47072C73.6314 2.3699 72.5859 2.1637 71.6273 1.60417Z" fill="#BBB8B5"/>
<path d="M65.7382 2.06927C65.3243 2.24821 64.9622 2.40533 64.7052 2.55975C61.3095 4.60986 60.345 6.63907 60.184 6.80348C60.0872 7.51743 59.9387 8.06518 59.8652 8.93355C60.4935 9.28598 63.5397 8.64015 65.5646 6.90432C65.8158 6.67542 66.0802 6.45653 66.3556 6.24852C66.4624 6.1586 66.56 6.10407 66.6417 6.03685C66.6551 6.0314 66.6668 6.00327 66.6793 5.99782C67.8374 4.87149 69.1998 2.11016 70.4739 2.79232C70.5757 2.84682 70.6766 2.89676 70.7751 2.94218C70.6249 2.84771 70.4739 2.75418 70.3212 2.66425C69.4084 2.13106 68.4423 1.74228 67.3927 1.74228C66.8645 1.74228 66.3139 1.84128 65.7382 2.06927Z" fill="url(#paint7_linear_416_1726)"/>
<path d="M60.7169 4.36043C60.5659 4.77009 60.4407 5.16522 60.3556 5.67206C60.2964 6.01996 60.2396 6.39964 60.1846 6.80566C62.3255 3.91353 64.4831 2.67638 64.7067 2.56102C64.957 2.42659 65.6445 1.91338 65.9499 1.80348C63.6271 2.48927 62.3305 3.52022 60.943 3.97712C60.8812 4.03797 60.7528 4.26415 60.7169 4.36043Z" fill="#F6F2EE"/>
<path d="M72.0925 5.36308C68.5432 3.19671 66.7135 5.95168 66.7126 5.95259C66.7018 5.95622 66.691 5.99437 66.6809 5.99891C65.4194 7.22698 64.1571 8.93828 63.6348 10.6777C64.8854 7.79378 68.6625 4.19587 70.7759 5.29859C75.7736 7.90278 76.0247 6.27959 77.3805 5.28315C76.3902 5.93442 75.5708 7.48494 72.0925 5.36308Z" fill="#EBE7E3"/>
<path d="M77.0306 5.4753C74.7011 6.53623 73.1284 4.45705 70.7755 2.94377C70.6762 2.89654 70.5761 2.8484 70.4743 2.79208C68.8399 1.90555 66.089 6.60617 66.0957 6.60254C66.6213 6.18107 68.5428 3.1972 72.0921 5.36357C75.5697 7.48544 76.0878 6.28008 77.0331 5.55523C77.0806 5.5198 77.3802 5.28364 77.3802 5.28364C77.3802 5.28364 77.0781 5.43533 77.0331 5.47348L77.0306 5.4753Z" fill="#FFFBF7"/>
<path d="M65.5647 6.90458C63.5381 8.58227 60.4936 9.28532 59.8661 8.93471C59.59 12.2492 58.9275 16.5347 59.6016 21.377C59.8962 23.4916 60.29 25.7425 60.617 27.9697C59.786 20.8557 59.61 12.3155 65.5647 6.90458Z" fill="#EFECE8"/>
<path d="M62.6243 1.73371C61.5171 2.20241 61.2418 2.99629 60.7845 3.64757C60.5159 4.02907 60.329 4.14624 60.082 4.20801C60.2514 4.16895 60.4516 4.11717 60.6794 4.05632C61.2977 3.88737 61.8216 3.63757 62.4349 3.34327C62.9981 3.07259 63.6355 2.76558 64.454 2.40224C64.9087 2.20059 65.8699 1.82 66.3763 1.67103C66.8894 1.51934 68.2227 1.27228 68.2953 1.25683C68.2953 1.25683 68.8076 1.18508 68.9736 1.15783C68.926 1.16146 63.3318 1.50935 62.6243 1.73371Z" fill="#EFECE8"/>
<path d="M68.8336 1.16694C68.7151 1.17603 63.3311 1.50935 62.6244 1.73371C61.5181 2.20241 61.2419 2.99722 60.7847 3.64668C60.516 4.02908 60.3291 4.14624 60.083 4.20801C60.2515 4.16895 60.4518 4.11811 60.6779 4.05544C61.297 3.88739 61.8218 3.63669 62.435 3.34148C62.9974 3.0717 63.6356 2.76651 64.455 2.40226C64.908 2.20061 65.8692 1.8182 66.3748 1.66923C66.8896 1.51936 68.1711 1.27683 68.2946 1.25776C68.4648 1.23141 68.8077 1.18417 68.9737 1.15874C68.9262 1.16056 68.8795 1.1624 68.8336 1.16694" fill="url(#paint8_linear_416_1726)"/>
<path d="M76.8952 66.7321C76.8401 66.8583 76.7967 66.9682 76.74 67.0772C76.5456 67.4924 76.3345 67.8775 76.1084 68.2227C77.9656 67.565 78.7966 66.4087 79.3239 64.5603C77.3566 66.8093 76.8952 66.7321 76.8952 66.7321Z" fill="#D2CFCB"/>
<path d="M72.5796 67.3484C71.1003 66.6427 69.9114 68.027 69.168 68.8663C71.7945 69.8536 74.7322 69.0597 76.1097 68.2213C76.3341 67.8771 76.546 67.4929 76.7404 67.0777C75.9637 68.4838 74.0105 68.0315 72.5796 67.3484Z" fill="#DEDBD7"/>
<path d="M68.0334 64.9501C68.7827 63.3442 69.1798 60.4348 68.9537 58.8052C68.7026 62.2814 67.1591 64.406 65.422 64.7612C65.1074 64.8157 64.8045 64.8238 64.5184 64.7911C64.0411 64.7221 63.5647 64.5195 63.1067 64.1771C63.0307 64.1199 62.9581 64.0581 62.8864 63.9954C61.5606 63.5658 60.4935 62.3432 60.1798 60.8462C60.1773 60.8308 60.1714 60.8181 60.1689 60.8035C60.1823 61.047 60.2032 61.2895 60.2299 61.5284L60.2349 61.5802C60.3166 62.3032 60.4543 62.9972 60.6595 63.6503C62.1205 66.5306 66.3247 68.6125 68.0334 64.9501Z" fill="#EBE7E3"/>
<path d="M65.4209 64.7612C65.1063 64.8157 64.8051 64.8239 64.5173 64.7912C64.0417 64.7221 63.5636 64.5196 63.1073 64.1771C62.7577 63.9137 62.4565 63.5831 62.2145 63.2034C61.0156 61.8518 60.3548 59.4411 60.2488 57.8043L60.2446 57.7443V57.7452V57.7443V57.747C60.1996 58.1812 60.1587 58.6908 60.1537 59.1586V59.1604C60.117 60.1514 60.1562 61.1115 60.2897 62.0198C60.2947 62.0362 60.2972 62.0534 60.2997 62.0725C61.6271 64.8202 65.3107 67.5607 67.7629 62.9327C67.1254 63.9564 66.2978 64.5822 65.4209 64.7612Z" fill="#F2EFEA"/>
<path d="M81.4317 6.63254C79.134 2.0391 79.0564 2.91019 77.6205 2.63497C75.6764 2.74851 73.5038 4.22546 70.7764 2.94289C74.6152 5.44444 77.8482 0.0480335 81.4843 6.73881C81.4868 6.74426 81.5293 6.83146 81.5327 6.83691C81.5168 6.80694 81.5051 6.77969 81.4918 6.75607C81.4593 6.68704 81.4367 6.64253 81.4317 6.63254Z" fill="#E7E4E0"/>
<path d="M77.38 5.28254C77.4017 5.268 77.4259 5.25257 77.4484 5.23713C78.3103 4.61946 79.9924 4.29337 81.4925 6.75586C79.289 2.6938 77.2357 3.06711 75.1056 3.44225C73.7148 3.6875 72.2914 3.93185 70.7754 2.94268C72.9105 4.44052 75.3384 6.66138 77.38 5.28254" fill="url(#paint9_linear_416_1726)"/>
<path d="M64.7763 68.1357C65.7416 67.479 66.5651 66.5607 67.2201 65.4952C65.3953 67.321 61.4447 66.7287 60.2842 61.9863C60.517 63.5895 61.0443 65.0292 61.9762 66.1783C61.9854 66.1901 62.2616 66.5126 62.2749 66.5262C63.0166 67.3237 63.8935 67.8305 64.7763 68.1357Z" fill="#CCC9C6"/>
<path d="M71.6451 0.479288C70.2283 -0.0866038 66.4988 1.12965 64.0901 1.3858C63.4769 1.4512 63.0021 1.57474 62.625 1.7337C64.0492 1.3967 64.1477 1.73188 68.3202 1.22412C68.3411 1.22049 68.8675 1.16508 69.0019 1.1569C69.9397 1.0906 70.8641 1.15963 71.6267 1.60471C72.5854 2.16334 73.4898 2.3995 74.3583 2.50124C75.4388 2.62659 76.4634 2.5412 77.4579 2.5957C75.8259 2.18604 73.0167 1.0261 71.6451 0.479288Z" fill="#F2EFEA"/>
<path d="M70.5504 0.332044C68.7941 0.361111 66.0199 1.18044 64.0909 1.38663C63.4769 1.45112 63.003 1.57465 62.625 1.73452C64.0651 1.42023 64.2102 1.73093 68.3219 1.22408C68.3411 1.22044 68.8692 1.16502 69.001 1.15594C69.9405 1.09054 70.8633 1.15956 71.6267 1.60373C72.5854 2.16417 73.4906 2.39854 74.3583 2.49937C75.0099 2.57658 75.6399 2.57658 76.2573 2.57477C76.6636 2.57477 77.0633 2.57474 77.4596 2.59473C75.8251 2.18598 73.0167 1.02787 71.6467 0.479238C71.4031 0.382954 71.0952 0.338402 70.7356 0.332044H70.5504Z" fill="url(#paint10_linear_416_1726)"/>
<path d="M74.358 2.49952L74.2445 2.5622C72.6893 3.47598 71.2526 3.05179 70.3223 2.66393C70.4741 2.75295 70.6268 2.8456 70.7753 2.9437C73.5028 4.22626 75.6754 2.7475 77.6194 2.63395C77.5685 2.62396 77.5126 2.60852 77.4592 2.59399C76.4647 2.53949 75.4401 2.62578 74.358 2.49952Z" fill="#EBE7E3"/>
<path d="M77.3918 54.333C75.6255 45.8483 71.7825 40.3238 68.3976 35.7976C65.5241 31.959 63.9614 27.8188 63.2422 24.0728C63.3131 24.9321 63.3782 25.8332 63.4316 26.7506C64.0865 31.9544 65.8687 38.1356 71.1117 45.1298C75.8758 51.4836 76.8845 52.3501 77.3918 54.333Z" fill="#FFFBF7"/>
<path d="M81.5801 6.9359C81.5801 6.93772 81.6352 7.07487 81.6352 7.07487C81.6485 7.10757 81.9656 7.92235 81.9773 7.95414C82.8625 10.2159 81.9472 12.0789 81.772 12.3995C83.0494 17.32 81.7103 22.9498 79.6361 28.0674C78.7325 30.3091 78.7659 32.3184 78.5039 33.7354C78.5064 33.7281 78.5106 33.7208 78.5131 33.7154C80.236 30.2464 81.8112 26.9474 82.2943 25.4414C82.3469 25.2797 82.3928 25.1234 82.4387 24.9672C84.1015 20.3329 85.1886 14.2017 82.3419 8.49642C82.2176 8.23845 81.8054 7.39552 81.5801 6.9359Z" fill="#EBE7E3"/>
<path d="M77.3799 5.28279C78.6381 6.33645 79.5116 7.57905 80.2609 8.81348C80.0064 6.85602 79.5525 4.91309 78.0482 5.07932C77.8588 5.10203 77.6827 5.13927 77.5025 5.22102C77.4967 5.22284 77.4808 5.19649 77.3799 5.28279Z" fill="#DEDBD7"/>
<path d="M82.0165 7.91168C82.0048 7.87989 81.122 6.4856 80.6198 5.92879C80.0674 5.27752 79.2665 4.88966 78.5656 4.90964C77.9198 4.92781 77.6662 5.11583 77.466 5.22302C77.4343 5.23846 77.3975 5.27025 77.3809 5.28297C79.5335 4.60989 79.944 6.87618 80.2618 8.81184C80.9535 9.9518 81.4499 11.1544 81.7728 12.4043C81.8955 12.1536 82.8107 10.138 82.0165 7.91168Z" fill="#CCC9C6"/>
<path d="M69.167 68.8652C70.1023 68.0332 70.8724 67.1258 71.8578 67.1612C71.1486 67.1285 68.5029 67.7471 67.8896 68.2221C68.3018 68.4928 68.7307 68.7017 69.167 68.8652Z" fill="#D2CFCB"/>
<path d="M78.2088 60.0888C78.1813 59.2967 78.0995 58.5128 77.9652 57.7553C77.6974 56.2456 77.211 54.8404 76.4625 53.6905C73.7034 49.454 67.0904 41.6433 65.375 35.5584C65.8731 39.3724 65.0237 43.9586 66.4271 46.2113C66.9043 46.8807 67.3657 47.5411 67.8063 48.1878C71.172 52.5605 75.0892 55.0966 74.9657 61.2996C74.8998 64.5859 73.8844 65.7586 72.4001 67.2737C72.4577 67.2946 72.517 67.3191 72.5787 67.3482C74.0113 68.0276 75.9628 68.4827 76.7387 67.0775C77.7408 64.9438 78.3114 62.9682 78.2088 60.0888Z" fill="#EFECE8"/>
<path d="M75.2234 61.8253C76.1136 53.8474 71.8827 49.5737 67.852 44.5451C67.3856 43.9802 66.039 43.3371 66.5671 44.6614C68.8423 48.5554 70.36 52.3332 70.7204 53.9046C72.8455 63.1796 70.511 66.1135 67.8904 68.2227C68.5028 67.7467 71.1493 67.1281 71.8568 67.1617C72.0304 67.1672 72.2106 67.2026 72.4 67.2734C73.6073 66.0399 74.4491 65.3914 74.9247 63.4276C74.9923 63.1551 75.0523 62.8517 75.1132 62.5165C75.1525 62.3003 75.1958 62.0714 75.2234 61.8253Z" fill="#E7E4E0"/>
<path d="M72.1154 55.9948C71.1317 51.7057 68.7997 45.0104 64.6614 39.1643C64.598 39.3732 64.2326 40.6349 63.9297 41.5732C64.205 42.0901 64.4353 42.5261 64.6047 42.864C64.8174 43.3127 64.9543 43.6242 65.1295 44.0584C65.5425 45.0376 65.9321 45.9587 66.1023 46.3365C68.3993 51.395 68.9499 56.0339 68.9524 58.8052C69.1235 62.2787 67.5265 66.2644 64.7757 68.1347C66.0239 68.7206 66.9734 68.3927 67.8911 68.2219C70.1305 67.3345 74.2405 65.2707 72.1154 55.9948Z" fill="#F2EFEA"/>
<path d="M58.1358 6.78361C55.3591 10.9156 54.6725 17.6155 55.7821 21.1716C57.1997 25.7178 57.8338 27.9659 61.3355 34.0481C61.6576 34.6067 59.5208 25.3091 59.0536 23.0473C58.6264 20.9782 57.3298 12.5234 60.0715 5.85892C60.326 5.24035 60.6163 4.55911 60.9434 3.97778C59.8429 4.60635 58.9084 5.63548 58.1358 6.78361" fill="url(#paint11_linear_416_1726)"/>
<path d="M66.8991 4.74361C65.6259 5.41124 64.5254 6.40314 63.5993 7.52675C62.6706 8.65399 61.9506 9.9638 61.4467 11.3599C60.4421 14.1676 60.3654 17.2713 60.8051 20.2434C61.2189 23.2373 62.2118 26.1312 62.7774 29.1823C63.0645 30.7029 63.2246 32.2661 63.1788 33.8221C63.1295 35.3771 62.8784 36.9195 62.4395 38.3828C62.714 36.8723 62.8592 35.3426 62.8025 33.8221C62.7608 32.3015 62.5246 30.8 62.1951 29.3222C61.8572 27.8462 61.4442 26.3828 61.0378 24.9059C60.644 23.4253 60.2761 21.9193 60.0525 20.3724C59.8372 18.8273 59.7513 17.2514 59.8673 15.6818C59.9365 14.8988 60.0358 14.1176 60.2127 13.3528C60.3804 12.5871 60.6048 11.8322 60.901 11.1138C61.4784 9.66769 62.3069 8.34606 63.3314 7.2488C64.361 6.16697 65.5566 5.24592 66.8991 4.74361Z" fill="#CCC9C6"/>
<path d="M64.0137 41.4531C64.2965 40.6329 64.4776 39.7809 64.5635 38.9162C64.6328 38.0496 64.6503 37.1794 64.591 36.3101C64.5068 34.5707 64.2623 32.8412 64.0229 31.1118C63.7917 29.3805 63.5248 27.6528 63.3103 25.917C63.0842 24.183 63.0091 22.4426 62.8564 20.6986L64.3099 31.0645C64.5493 32.7967 64.7721 34.538 64.8263 36.2992C64.858 37.1794 64.8105 38.0623 64.7137 38.9361C64.5769 39.8063 64.3608 40.6611 64.0137 41.4531Z" fill="#CCC9C6"/>
<path d="M60.0151 5.99873C59.7047 7.10145 59.4244 8.21234 59.2191 9.33867C58.9989 10.4632 58.837 11.5986 58.7352 12.7395C58.5241 15.0203 58.5241 17.3238 58.7419 19.6019C58.9463 21.8827 59.4352 24.1218 59.9575 26.3508C60.2153 27.4681 60.4948 28.5799 60.7293 29.708C60.9487 30.8353 61.1581 31.9825 61.1264 33.1406C61.078 31.9861 60.8361 30.8625 60.5599 29.7525C60.2863 28.6417 59.9809 27.5389 59.6889 26.4308C59.0982 24.2163 58.6167 21.9509 58.3781 19.6437C58.2688 18.4892 58.2213 17.3293 58.2346 16.1702C58.2488 15.0112 58.3039 13.8522 58.4432 12.704C58.5817 11.5541 58.7803 10.416 59.0356 9.29325C59.3034 8.1751 59.6221 7.07147 60.0151 5.99873Z" fill="#CCC9C6"/>
<path d="M58.0312 6.94779C57.5656 7.90608 57.2502 8.93795 56.9933 9.98072C56.7388 11.0244 56.5611 12.088 56.4201 13.1544C56.1548 15.2917 56.1239 17.4599 56.3283 19.5972C56.5319 21.7345 57.0016 23.8437 57.7867 25.8084C58.188 26.7821 58.6411 27.7541 59.0875 28.7114C59.5263 29.677 60.0328 30.6044 60.505 31.5654C60.188 31.144 59.8884 30.7107 59.5972 30.2665C59.3144 29.8196 59.0399 29.3618 58.7821 28.8949C58.531 28.4226 58.289 27.9457 58.0637 27.4607C57.8351 26.9811 57.6182 26.4851 57.418 25.981C56.6278 23.9645 56.1673 21.8081 55.9754 19.6363C55.7768 17.4608 55.8853 15.2663 56.1915 13.1172C56.3508 12.0435 56.5711 10.9781 56.8656 9.93984C57.161 8.90343 57.5147 7.8752 58.0312 6.94779Z" fill="#DEDBD7"/>
<path d="M60.1846 6.80469C61.0948 5.29867 62.3522 4.06697 63.7197 3.04237C64.4088 2.53371 65.1531 2.10406 65.9515 1.8025C66.2394 1.69804 66.5314 1.60721 66.8351 1.55452C66.9536 1.53272 67.0787 1.52182 67.1997 1.51274C67.4166 1.50184 67.6361 1.4973 67.8547 1.53726C68.0766 1.56633 68.2885 1.64354 68.4829 1.71621C70.074 2.33296 71.4523 3.36846 72.8465 4.30314C73.5449 4.76911 74.2574 5.21692 75.0308 5.48488C75.4146 5.61931 75.8184 5.70197 76.2223 5.672C76.6261 5.64475 77.0257 5.51213 77.3812 5.28323C77.0466 5.54665 76.6486 5.72105 76.2314 5.77645C75.8134 5.83731 75.3888 5.77918 74.9824 5.66836C74.1681 5.4331 73.4281 4.99892 72.7055 4.56383C71.2671 3.68184 69.903 2.65088 68.3644 2.09135C68.1684 2.02413 67.9882 1.95691 67.8004 1.92785C67.6127 1.89061 67.4166 1.89242 67.2214 1.89787C66.8309 1.92149 66.438 2.01868 66.0575 2.1513C65.2916 2.42107 64.5715 2.84617 63.8757 3.3067C63.1815 3.77267 62.5241 4.30768 61.9058 4.89174C61.2801 5.46762 60.696 6.10073 60.1846 6.80469Z" fill="#CCC9C6"/>
<path d="M77.3809 5.2831C77.7096 4.98971 78.1301 4.79533 78.574 4.76172C79.0153 4.7272 79.4667 4.84075 79.8614 5.05965C80.563 5.4466 81.082 5.99614 81.4908 6.75642C81.5025 6.77822 81.5459 6.8636 81.5843 6.94354C81.6093 6.9944 81.6327 7.04436 81.646 7.07161C82.0865 7.95905 82.3694 8.81833 82.4036 9.76118C82.4478 10.7004 82.2517 11.636 81.7745 12.4062C82.1533 11.6024 82.2859 10.6768 82.2109 9.77572C82.1283 8.87374 81.8563 7.99811 81.4349 7.22058C81.0186 6.44577 80.4462 5.75725 79.7362 5.32035C79.3808 5.10598 78.9853 4.97427 78.579 4.96065C78.171 4.94793 77.7571 5.06147 77.3809 5.2831Z" fill="#BBB8B5"/>
<path d="M64.9443 38.981C65.3373 40.9711 65.9447 42.9022 66.7999 44.698C67.2179 45.6018 67.6927 46.472 68.215 47.3076L69.0142 48.5584L69.4131 49.1906C69.5449 49.4013 69.6634 49.6248 69.7894 49.8392C70.2958 50.7012 70.728 51.6104 71.1401 52.5315C71.529 53.4634 71.8619 54.4235 72.1213 55.4091C72.3691 56.3955 72.5535 57.4019 72.6361 58.4202C72.7262 59.4375 72.7404 59.8663 72.7062 60.8809C72.6837 59.8644 72.642 59.4393 72.5118 58.4356C72.3892 57.4301 72.1973 56.4373 71.9261 55.4708C71.6499 54.5044 71.292 53.5688 70.9082 52.6495C70.4944 51.7448 70.0613 50.8483 69.5524 49.9999C69.4264 49.7874 69.3063 49.5703 69.1761 49.3614L68.7765 48.7383C68.5136 48.3241 68.2383 47.9062 67.9797 47.4811C67.4599 46.6282 66.9868 45.7399 66.5738 44.8215C65.7528 42.9785 65.1971 40.9984 64.9443 38.981Z" fill="#CCC9C6"/>
<path d="M64.4248 33.4964C64.5658 34.8707 64.8954 36.2123 65.2733 37.5285C65.653 38.8438 66.1085 40.1336 66.6425 41.3807C67.7138 43.8741 69.0813 46.2322 70.8501 48.1914C71.2948 48.6701 71.7595 49.1679 72.175 49.6965C72.593 50.2261 72.9735 50.7902 73.3214 51.3779C74.0155 52.5514 74.547 53.8404 74.8908 55.1847C75.4681 57.441 75.5441 59.8235 75.1853 62.1144C75.1152 62.5549 75.0276 62.9945 74.9258 63.4287C75.1744 62.0708 75.2979 60.691 75.2537 59.3149C75.2203 57.9397 75.0309 56.569 74.668 55.2564C74.3009 53.9457 73.7861 52.6822 73.0944 51.5368C72.7499 50.9655 72.3719 50.415 71.9589 49.9C71.5459 49.3786 71.0954 48.9145 70.6423 48.4122C68.8643 46.4038 67.4735 44.0185 66.4422 41.4825C65.9283 40.2117 65.4903 38.9037 65.139 37.5712C64.9663 36.9036 64.8153 36.2314 64.6876 35.552C64.5625 34.8735 64.454 34.1877 64.4248 33.4964Z" fill="#D2CFCB"/>
<path d="M79.5664 29.9092C80.228 28.5103 80.7712 27.0597 81.2468 25.5882C81.7232 24.1176 82.1178 22.6162 82.4357 21.0965C82.7486 19.5778 82.9697 18.0355 83.0581 16.4822C83.0932 15.7065 83.0948 14.9244 83.0172 14.1532L82.9622 13.5719L82.8512 13.0006L82.7978 12.7135C82.7753 12.6182 82.7386 12.5291 82.7119 12.4365L82.54 11.8779C83.2158 13.2821 83.3785 14.919 83.3752 16.4913C83.3752 17.2843 83.3234 18.0754 83.23 18.862C83.1424 19.6468 83.0189 20.4271 82.8604 21.2001C82.5542 22.7461 82.1253 24.2612 81.5905 25.7299C81.0515 27.1942 80.3907 28.6148 79.5664 29.9092Z" fill="#FFFBF7"/>
<path d="M63.8197 29.3512C63.7688 29.0851 63.7371 28.9361 63.7371 28.9361C63.7371 28.9361 63.7646 29.0833 63.8197 29.3512ZM63.6328 41.016C63.7705 41.274 63.8831 41.4765 64.0016 41.7072C64.0567 41.8144 64.1176 41.9262 64.1735 42.0325C68.8741 50.9786 76.243 57.505 72.1022 64.5682C71.7326 65.1995 71.3546 65.8471 70.7072 66.4766C71.4556 65.8053 72.0413 65.8853 72.5644 65.967C73.1151 66.0524 73.599 66.1387 74.1363 65.3439C74.2882 65.1196 74.4909 64.7571 74.6645 64.2884C74.7579 64.0422 74.8413 63.7707 74.9256 63.4282C74.9256 63.4282 77.185 66.7482 79.3927 64.3366C80.1361 61.6425 80.4323 57.584 77.1324 53.1741C73.3779 48.1564 71.0376 47.6495 68.0048 41.9943C65.606 37.5234 64.1685 31.0416 63.8197 29.3512C64.1718 31.1797 65.4417 38.5299 63.6328 41.016" fill="url(#paint12_linear_416_1726)"/>
<path d="M59.2403 8.83798C58.5653 12.0753 58.1415 16.8177 58.8182 21.66C59.1127 23.7773 60.5527 28.3998 60.879 30.6279C60.0505 23.5148 56.9426 9.90344 66.8996 4.74139C64.5284 5.38176 59.8678 9.18678 59.2403 8.83798" fill="url(#paint13_linear_416_1726)"/>
<path d="M70.5501 0.331629C68.7939 0.360695 66.0197 1.18002 64.0907 1.38621C63.4766 1.4507 63.0027 1.57423 62.6247 1.7341C61.5184 2.2028 61.2422 2.99761 60.785 3.64707C60.5164 4.02947 60.3295 4.14663 60.0833 4.2084C60.0775 4.20931 60.0717 4.20933 60.0675 4.21206C58.1944 4.94326 53.7699 10.8874 54.7252 19.0869C54.7936 19.8917 54.9496 20.6756 55.1491 21.4431C56.9771 29.3138 63.102 39.8696 64.6055 42.8653C63.4975 45.6411 61.1329 51.3409 60.3787 56.7082C60.347 56.8908 60.1651 58.1243 60.1534 59.1571C60.0516 61.8894 60.5222 64.3854 61.9773 66.1785C61.9856 66.1903 62.2618 66.5137 62.2743 66.5273C63.0161 67.3239 63.8938 67.8308 64.7748 68.136H64.7757C66.0238 68.7191 66.975 68.393 67.8903 68.2232C68.3016 68.4939 68.7304 68.7028 69.1668 68.8653C71.7933 69.8536 74.731 69.0607 76.1085 68.2232C77.9549 67.5701 78.7968 66.3884 79.3241 64.5608C79.8555 62.8386 80.669 59.3215 78.8285 54.1186C77.9991 51.8705 76.3371 48.3534 73.7724 43.2422L73.7565 43.2113C75.8107 38.9776 81.314 28.5036 82.2943 25.4407C82.3469 25.279 82.3936 25.1228 82.4395 24.9665C84.1023 20.3322 85.1895 14.2001 82.3419 8.49664C82.2 8.1978 81.6744 7.12689 81.4925 6.75538C81.4591 6.68816 81.4366 6.64368 81.4308 6.63369C79.133 2.03934 79.0554 2.91042 77.6195 2.63428C77.5678 2.62611 77.5127 2.60884 77.4593 2.59431C75.8248 2.18556 73.0165 1.02746 71.6465 0.478822C71.4028 0.382539 71.095 0.337987 70.7354 0.331629H70.5501ZM72.344 40.6852C72.2589 40.5272 72.1771 40.3782 72.0945 40.2256C68.9307 34.0344 65.5241 28.6408 63.6727 23.5659C63.263 22.1943 62.9426 20.8436 62.7432 19.5511C62.0449 15.8487 62.3361 13.6724 63.636 10.6785C64.885 7.79454 68.662 4.19662 70.7754 5.29752C73.0991 6.50924 74.3773 6.79536 75.2208 6.68364C76.0309 6.57464 76.4331 6.09413 76.9712 5.61453C77.083 5.50825 77.3567 5.30204 77.3801 5.28205C78.6424 6.34026 79.5126 7.5756 80.2635 8.81093C86.6312 19.2831 76.1185 35.3152 72.7094 41.3329C72.48 40.9151 72.3457 40.6861 72.344 40.6852ZM64.5162 64.7915C64.0398 64.7234 63.5634 64.519 63.1053 64.1784C62.4679 63.6979 61.9923 62.9884 61.747 62.1882C61.007 59.7666 61.1621 54.9552 65.1294 44.0597C65.5441 45.0371 65.9337 45.959 66.1023 46.3369C68.3984 51.3954 68.9499 56.0343 68.9532 58.8065C68.7054 62.2918 67.1611 64.4073 65.4198 64.7624C65.2287 64.7951 65.0418 64.8106 64.8591 64.8106C64.7431 64.8106 64.6288 64.8033 64.5162 64.7915" fill="url(#paint14_linear_416_1726)"/>
<path d="M70.6386 0.330764C68.8881 0.332581 66.0514 1.17641 64.0907 1.38624C63.4766 1.45073 63.0027 1.57426 62.6247 1.73412C61.5184 2.20282 61.2422 2.99763 60.785 3.64709C60.5164 4.0295 60.3295 4.14665 60.0833 4.20842C60.0775 4.20933 60.0717 4.20935 60.0675 4.21208C58.1944 4.94329 53.7699 10.8874 54.7252 19.0869C54.7936 19.8917 54.9496 20.6756 55.1491 21.4431C56.9771 29.3138 63.102 39.8696 64.6055 42.8653C63.4975 45.6412 61.1329 51.3409 60.3787 56.7083C60.347 56.8909 60.1651 58.1244 60.1534 59.159C60.0516 61.8894 60.5222 64.3855 61.9773 66.1785C61.9856 66.1903 62.2618 66.5137 62.2743 66.5274C63.0161 67.324 63.8938 67.8308 64.7748 68.136H64.7757C66.0238 68.7192 66.975 68.3931 67.8903 68.2232C68.3016 68.4939 68.7304 68.7028 69.1668 68.8654C70.0587 69.2006 70.9857 69.3305 71.8759 69.325C73.6072 69.3114 75.1999 68.7755 76.1085 68.2232C77.9549 67.5701 78.7968 66.3884 79.3241 64.5608C79.8555 62.8386 80.669 59.3215 78.8285 54.1186C77.9991 51.8705 76.3371 48.3534 73.7724 43.2422L73.7565 43.2113C75.8107 38.9776 81.314 28.5036 82.2943 25.4407C82.3469 25.279 82.3936 25.1228 82.4395 24.9666C84.1023 20.3323 85.1895 14.2001 82.3419 8.49667C82.2 8.19964 81.6744 7.12691 81.4925 6.7554C81.4591 6.68818 81.4366 6.6437 81.4308 6.63371C79.133 2.03936 79.0554 2.91044 77.6195 2.63431C77.5678 2.62613 77.5127 2.60887 77.4593 2.59433C75.8248 2.18558 73.0165 1.02748 71.6465 0.478845C71.3862 0.375295 71.0482 0.330764 70.6561 0.330764H70.6386ZM72.344 40.6853C72.2589 40.5272 72.1771 40.3783 72.0945 40.2257C68.9307 34.0345 65.5241 28.6408 63.6727 23.5659C63.263 22.1944 62.9426 20.8437 62.7432 19.5511C62.0449 15.8488 62.3361 13.6724 63.636 10.6785C64.885 7.79456 68.662 4.19664 70.7754 5.29754C73.0991 6.50926 74.3773 6.79539 75.2208 6.68366C76.0309 6.57466 76.4331 6.09415 76.9712 5.61455C77.083 5.50828 77.3567 5.30206 77.3801 5.28208C78.6424 6.34028 79.5126 7.57563 80.2635 8.81096C86.6312 19.2831 76.1185 35.3152 72.7094 41.3329C72.48 40.9151 72.3457 40.6862 72.344 40.6853ZM64.5162 64.7915C64.0398 64.7234 63.5634 64.519 63.1053 64.1784C62.4679 63.6979 61.9923 62.9885 61.747 62.1882C61.007 59.7666 61.1621 54.9552 65.1294 44.0598C65.5441 45.0371 65.9337 45.959 66.1023 46.3369C68.3984 51.3954 68.9499 56.0343 68.9532 58.8065C68.7054 62.2918 67.1611 64.4073 65.4198 64.7625C65.2287 64.7952 65.0418 64.8106 64.8591 64.8106C64.7431 64.8106 64.6288 64.8033 64.5162 64.7915" fill="url(#paint15_linear_416_1726)"/>
<path d="M70.1083 59.8076C70.1676 56.6194 69.6136 53.4747 68.6958 50.4845C67.773 47.4888 66.4814 44.643 64.9871 41.9353C64.2446 40.5746 63.4695 39.213 62.7428 37.8332C62.016 36.4498 61.3027 35.0601 60.6252 33.6467C59.2702 30.8245 57.9962 27.9451 57.04 24.9313C57.6316 26.3882 58.2632 27.8152 58.9498 29.2186C59.6215 30.6274 60.3223 32.019 61.0382 33.4033C62.4666 36.1737 63.9709 38.8851 65.4911 41.6074C66.9912 44.3551 68.2778 47.2626 69.1246 50.3364C69.551 51.8697 69.868 53.4402 70.0449 55.0289C70.2159 56.6166 70.2476 58.2244 70.1083 59.8076Z" fill="#E1DEDA"/>
<g opacity="0.429993">
<path d="M58.9492 29.2181C59.6208 30.626 60.3233 32.0194 61.0375 33.4028C61.332 33.9732 61.6291 34.5419 61.9303 35.1087C62.793 36.6047 63.7583 38.1452 64.8171 39.6395C69.6738 46.501 72.7258 53.4906 70.5256 60.2359C70.126 61.464 70.3271 62.0399 70.8335 62.0635H70.9002C72.2969 62.0017 75.7052 58.1721 75.7603 52.407V52.1254C75.7227 48.165 74.0966 43.3236 69.1974 38.1761C61.5815 31.8786 57.041 24.9326 57.041 24.9326C57.6317 26.3887 58.2625 27.8157 58.9492 29.2181" fill="url(#paint16_linear_416_1726)"/>
</g>
<path d="M65.1293 44.0596C64.9541 43.6254 64.8173 43.3138 64.6045 42.8651C63.4974 45.6419 61.1328 51.3417 60.3778 56.709C60.3477 56.8907 60.165 58.1269 60.1533 59.1606C60.17 59.345 60.195 59.5185 60.2276 59.6775C60.8934 62.8058 61.9296 63.338 62.361 63.418C62.0915 63.0546 61.8846 62.6377 61.7477 62.1881C61.0069 59.7683 61.1612 54.955 65.1293 44.0596Z" fill="#F2EFEA"/>
<path d="M78.8291 54.1182C78.0006 51.8719 76.3386 48.3539 73.7738 43.2409L73.758 43.2128C73.758 43.2128 72.096 40.2271 72.0943 40.2262C68.9313 34.035 65.5255 28.6422 63.6725 23.5646C63.2645 22.1949 62.9424 20.8442 62.7438 19.5516C62.7422 19.5462 62.7422 19.5416 62.7413 19.5362C62.7397 19.5271 62.7388 19.5198 62.7363 19.5126C62.9165 20.7697 62.8698 22.0713 63.2419 24.0742C63.9628 27.8202 65.5255 31.9595 68.3973 35.799C71.7839 40.3234 75.6269 45.8497 77.3932 54.3335C77.6201 55.4244 77.9597 57.8569 78.094 60.1132C78.2559 62.8337 77.7887 64.733 76.8968 66.7359C76.9184 66.7695 77.4549 67.547 79.0093 65.1844C79.1345 64.9783 79.2337 64.7693 79.3247 64.5613C79.8562 62.8391 80.6705 59.323 78.8291 54.1182Z" fill="#FFFBF7"/>
<path d="M56.8945 13.0512C56.8945 14.4555 57.94 15.5918 59.2299 15.5918C60.5206 15.5918 61.566 14.4555 61.566 13.0512C61.566 11.6469 60.5206 10.5078 59.2299 10.5078C57.94 10.5078 56.8945 11.6469 56.8945 13.0512ZM59.5419 11.8485C59.3058 11.7495 59.1573 11.5043 59.1556 11.2427C59.1798 11.2409 59.204 11.2354 59.2299 11.2354C59.6128 11.2354 59.9616 11.3799 60.2427 11.6178C60.1301 11.7895 59.9465 11.8912 59.7555 11.8912C59.6837 11.8912 59.612 11.8776 59.5419 11.8485M57.6763 12.3981C57.819 11.9975 58.0893 11.6705 58.4306 11.4662C58.4831 11.5615 58.5148 11.675 58.5148 11.7922C58.5148 12.1555 58.2453 12.4489 57.9124 12.4489C57.8282 12.4489 57.7506 12.4326 57.6763 12.3981ZM58.8711 13.6952L58.5707 13.0794C58.5373 13.0094 58.549 12.924 58.5974 12.8668L59.0446 12.3654C59.0947 12.3082 59.1731 12.2918 59.2374 12.3273L59.8139 12.6342C59.8798 12.6687 59.9165 12.7441 59.9057 12.8232L59.8164 13.5144C59.8064 13.5934 59.7505 13.6552 59.6804 13.6689L59.0488 13.7887C59.0396 13.7905 59.0288 13.7905 59.0196 13.7905C58.9579 13.7905 58.9011 13.7551 58.8711 13.6952M60.3595 13.1793C60.3595 12.8686 60.559 12.6115 60.8226 12.5407C60.8677 12.7042 60.8977 12.8723 60.8977 13.0512C60.8977 13.3146 60.8443 13.5644 60.7492 13.7905C60.5222 13.6979 60.3595 13.459 60.3595 13.1793M57.6137 13.4799C57.6621 13.4663 57.713 13.4572 57.7664 13.4572C58.0976 13.4572 58.3688 13.7497 58.3688 14.113C58.3688 14.2638 58.3221 14.3982 58.2437 14.509C57.9333 14.2593 57.7072 13.8996 57.6137 13.4799ZM59.0805 14.8506C59.118 14.5281 59.3684 14.2792 59.6746 14.2792C59.8756 14.2792 60.0533 14.3892 60.1635 14.5554C59.8982 14.7516 59.5769 14.866 59.2299 14.866C59.1781 14.866 59.1289 14.856 59.0805 14.8506" fill="url(#paint17_linear_416_1726)"/>
<path d="M59.5068 8.44062L60.0458 9.45801L60.9803 8.87117L60.4413 7.85384L59.5068 8.44062Z" fill="url(#paint18_linear_416_1726)"/>
<path d="M58.1807 17.5604L58.9583 18.377L59.7083 17.534L58.9316 16.7147L58.1807 17.5604Z" fill="url(#paint19_linear_416_1726)"/>
<path d="M73.8517 60.2727C73.7683 60.3917 73.7232 60.5906 73.7032 60.8459C73.6832 61.1048 73.6915 61.3364 73.709 61.5571C73.6214 61.4527 73.4479 61.4182 73.3553 61.4954C73.3795 61.598 73.4112 61.6915 73.4237 61.8015C73.4337 61.8778 73.4337 61.9622 73.4345 62.044C73.2718 62.1738 73.0841 62.3501 73.0583 62.6789C73.0541 62.7316 73.0558 62.7797 73.0558 62.8297C72.9948 62.6208 72.8889 62.4073 72.8363 62.2256C72.7888 62.0639 72.7037 61.9087 72.6202 61.8269C72.596 61.8006 72.5643 61.7924 72.5351 61.7733C72.5168 61.8269 72.5026 61.8841 72.4842 61.9332C72.4767 61.9577 72.4734 61.9831 72.4642 62.0321C72.4083 61.9695 72.3632 61.9123 72.3073 61.8678C72.2656 61.8351 72.2156 61.8205 72.1647 61.8096C72.0579 61.7833 72.0395 61.8114 72.0395 61.9813C72.0395 62.0367 72.037 62.0957 72.0354 62.1684C71.8026 62.0712 71.6732 62.2765 71.6783 62.282C71.7275 62.3319 71.7709 62.3628 71.7817 62.44C71.7926 62.5127 71.7659 62.6271 71.7325 62.7261C71.6657 62.9223 71.71 63.2557 71.8393 63.3856C71.9319 63.4792 72.1038 63.4619 72.2247 63.3338C72.3649 63.1921 72.4083 62.7543 72.3299 62.618C72.2823 62.5363 72.2489 62.5354 72.1563 62.6044C72.1805 62.6616 72.2289 62.717 72.2222 62.7815C72.2156 62.8542 72.1688 62.955 72.1213 63.0123C72.0562 63.0886 71.9828 63.0958 71.9302 63.0332C71.8385 62.9214 71.8368 62.728 71.9219 62.5463C71.9461 62.4963 72.0062 62.4027 72.037 62.3773C72.1688 62.2729 72.3249 62.2429 72.4208 62.3174C72.5276 62.4 72.5927 62.5336 72.606 62.7316C72.6311 63.0767 72.4667 63.6145 72.4817 63.9579C72.4926 64.2758 72.7012 64.4011 72.9439 64.4529C73.0507 64.4756 73.3269 64.5101 73.3836 64.5328C73.6723 64.6455 73.9226 64.6282 74.0762 64.3384C74.2338 64.0414 74.3198 63.481 74.4883 63.1857C74.5859 63.0177 74.6986 62.9323 74.8287 62.9087C74.9472 62.8915 75.0724 62.9914 75.1458 63.1513C75.1641 63.1894 75.1758 63.3011 75.1775 63.3592C75.1741 63.5627 75.0899 63.7344 74.9622 63.7862C74.8863 63.8161 74.8237 63.7762 74.7995 63.6744C74.782 63.6009 74.7837 63.4882 74.8095 63.4183C74.8304 63.3592 74.8955 63.3356 74.9414 63.2957C74.8888 63.1876 74.8588 63.1703 74.782 63.2203C74.6543 63.3038 74.5209 63.7062 74.5859 63.9006C74.6368 64.0741 74.7837 64.174 74.9047 64.1368C75.0774 64.0841 75.2417 63.8207 75.2684 63.609C75.2801 63.5073 75.3068 63.3929 75.3452 63.332C75.3877 63.2675 75.4386 63.2621 75.5062 63.2439C75.5112 63.2421 75.5154 63.2293 75.5246 63.2139C75.487 62.9914 75.3469 63.0277 75.2367 62.9678C75.2651 62.8996 75.2876 62.8488 75.3126 62.797C75.3852 62.6462 75.3802 62.6117 75.2734 62.5853C75.2242 62.5708 75.1741 62.5563 75.1216 62.5663C75.0548 62.5762 74.9889 62.608 74.913 62.6353C74.9247 62.5871 74.9322 62.5626 74.9364 62.539C74.943 62.4845 74.9539 62.4255 74.9605 62.3701C74.9472 62.3719 74.9355 62.3719 74.9238 62.3701C74.9021 62.3701 74.8813 62.3683 74.8588 62.3755C74.752 62.4082 74.6802 62.4809 74.5442 62.5681C74.4174 62.6498 74.2539 62.856 74.1212 63.0631C74.1371 62.9914 74.1554 62.9214 74.1796 62.8569C74.2655 62.618 74.2497 62.4709 74.1646 62.3565L74.0678 62.1857C74.0778 62.1602 74.0887 62.1312 74.0987 62.0976C74.1437 61.9377 74.213 61.8133 74.2672 61.6552C74.243 61.5544 74.0778 61.4609 73.9685 61.5026C74.0303 61.2865 74.0728 61.0512 74.0745 60.7769C74.0728 60.5262 74.0186 60.3717 73.9568 60.2527C73.9477 60.2355 73.9343 60.2282 73.921 60.2282C73.8976 60.2282 73.8717 60.2473 73.8517 60.2727M69.6099 63.2421C69.5724 63.0995 69.534 62.955 69.4931 62.7997C69.3196 62.837 69.2161 62.9814 69.141 63.1358C69.0676 63.2893 69.0292 63.4601 68.9725 63.6172C68.9024 63.5518 68.8323 63.4828 68.7606 63.4138C68.537 63.7017 68.5003 64.0033 68.703 64.3557C68.869 64.6427 69.0651 64.9062 69.2528 65.1668C69.4664 65.4657 69.6833 65.7509 69.6984 66.1415C69.7142 66.5066 69.534 66.8254 69.2487 67.0861C69.0225 67.2941 68.7714 67.3713 68.456 67.3731C68.446 67.3731 68.4193 67.4749 68.4143 67.4939C68.4427 67.6366 68.678 67.5721 68.7964 67.5394C69.6867 67.2942 70.2615 66.5584 69.9946 65.8136C69.8919 65.5174 69.5449 65.0469 69.4122 64.7599C69.3012 64.5247 69.2019 64.2866 69.2495 64.0087C69.3087 63.6808 69.6024 63.3611 69.9754 63.4283C70.1873 63.4655 70.355 63.6563 70.3533 63.8879C70.3517 64.0369 70.2348 64.234 70.0997 64.2985C70.0121 64.3385 69.9211 64.3521 69.8536 64.283C69.7918 64.2158 69.7918 64.1322 69.8327 64.0414C69.8394 64.0269 69.841 64.0105 69.8444 63.9933C69.7075 64.0051 69.5357 64.2085 69.5549 64.3675C69.5907 64.6455 70.1648 64.8671 70.4284 64.6781C70.6704 64.5074 70.8005 64.1077 70.7138 63.7862C70.6295 63.4755 70.501 63.3129 70.2298 63.2176C70.2006 63.2048 70.1756 63.1921 70.1539 63.1794C70.2082 63.0304 70.2524 62.9014 70.2983 62.7597C70.2816 62.7588 70.2641 62.7589 70.2465 62.7589C69.9478 62.7589 69.7801 62.9632 69.6099 63.2421M71.6507 64.3856C71.4772 64.4665 71.2686 64.6927 71.2294 64.8489C71.3145 64.8244 71.3937 64.7935 71.4672 64.7799C71.6265 64.7581 71.7342 64.8434 71.7625 65.0051C71.7859 65.1423 71.6941 65.383 71.5665 65.5002C71.3595 65.6919 71.1409 65.8608 70.9265 66.0379C70.677 66.2387 70.5652 66.4767 70.5836 66.7473C70.6061 67.1089 70.8856 67.3668 70.9349 67.4186C70.5018 68.0172 69.9879 68.5168 69.4656 68.9709C69.6091 69.0163 69.7534 69.0599 69.8969 69.0945C70.3675 68.6585 70.8264 68.1952 71.2703 67.6656C71.6474 67.8464 72.1088 67.8864 72.4709 67.583C72.7037 67.3868 72.8113 67.1488 72.9047 66.899C72.9757 66.7101 73.0299 66.5184 73.09 66.3259C73.1734 66.0643 73.3478 65.8535 73.5305 65.7754C73.6982 65.7046 73.7983 65.7945 73.8133 66.0325C73.8142 66.0643 73.8158 66.0933 73.8192 66.146C73.9343 65.9871 73.9769 65.8263 74.0086 65.6764C74.0645 65.3903 74.0027 65.215 73.8926 65.1005C73.7616 64.967 73.5413 64.957 73.3169 65.1423C73.2293 65.2104 73.1175 65.3485 73.0366 65.4829C72.9298 65.6609 72.843 65.8408 72.7612 66.0225C72.4959 66.4049 72.2806 66.6538 72.1338 66.8027C72.2965 66.5375 72.4208 66.2559 72.5293 65.9716C72.6236 65.7264 72.7012 65.4775 72.7762 65.2268C72.7863 65.1959 72.7904 65.1632 72.8021 65.106C72.7621 65.1478 72.7395 65.1632 72.722 65.1877C72.41 65.5992 72.0579 65.9725 71.7083 66.3377C71.6733 66.3731 71.6466 66.4131 71.614 66.4521C71.629 66.2559 71.7609 66.0016 71.8985 65.7808C71.9503 65.7236 71.9986 65.6664 72.0445 65.6047C72.188 65.4203 72.3124 65.1977 72.3908 64.9825C72.4909 64.7 72.405 64.5192 72.2548 64.4093C72.1672 64.3439 72.0696 64.3075 71.9586 64.3075C71.8676 64.3075 71.7642 64.333 71.6507 64.3856M68.0864 65.0832C67.9346 65.0732 67.63 65.0605 67.6267 65.0733C68.4794 65.5429 68.7305 66.1887 68.869 66.979C69.0526 66.8818 69.2336 66.2859 69.2019 65.9725C69.1594 65.5374 68.9374 65.2204 68.5728 64.9189C68.5628 64.9788 68.5562 65.0133 68.5461 65.0587C68.3476 64.9597 68.2233 64.7499 67.9704 64.7054C68.0113 64.8417 68.048 64.9597 68.0864 65.0832M75.7707 66.2214C75.7565 66.2132 75.7348 66.2041 75.7115 66.1905C75.5471 66.0897 74.9305 65.9389 74.6143 66.3086C74.3965 66.5711 74.1362 67.2305 74.535 67.5148C74.6327 67.5821 74.7036 67.6475 74.8588 67.5648C74.9881 67.493 75.074 67.3622 75.1341 67.2124C75.1458 67.1851 75.1474 67.1552 75.1566 67.1125C75.1316 67.1334 75.1182 67.1415 75.1057 67.157C74.9772 67.3096 74.9021 67.3496 74.8396 67.3032C74.777 67.2615 74.7278 67.0098 74.7987 66.8709C74.9881 66.5012 75.3452 66.3767 75.5221 66.4948C75.6622 66.5893 75.6939 66.7927 75.5813 67.0952C75.4495 67.4486 75.2284 67.732 74.9622 67.8519C74.7194 67.9609 74.4808 68.0026 74.2422 68.0372C74.0937 68.0562 73.9468 68.0181 73.7925 67.9818C73.5981 67.9336 73.3953 67.8864 73.1767 67.9527C72.5869 68.1361 71.8985 68.7266 71.5072 69.3188C71.5856 69.3234 71.6632 69.3252 71.7417 69.3252C71.8551 69.1799 71.9903 69.0373 72.1488 68.9065C72.6027 68.525 73.0524 68.3287 73.4763 68.3496C73.8108 68.3687 74.1079 68.4378 74.4182 68.4523C74.6085 68.4623 74.7945 68.475 74.9923 68.4368C75.2701 68.3823 75.5396 68.1516 75.774 67.732C75.6989 67.7147 75.6297 67.6992 75.5521 67.6783C75.8775 67.3604 76.137 66.989 76.2221 66.4966C76.0877 66.5984 75.9634 66.6828 75.8333 66.7655C75.9192 66.5684 76.0035 66.3813 76.056 66.1987C76.1119 66.0052 76.1053 65.849 76.0419 65.7427C75.9526 65.9044 75.87 66.0533 75.7707 66.2214M69.2987 67.5966C69.1127 67.7619 69.1177 68.0372 69.2712 68.2543C69.3229 68.3278 69.3821 68.3914 69.4222 68.4423C69.5832 68.2978 69.7217 68.1498 69.8778 68.0199C70.2232 67.7302 70.3233 67.394 70.2732 67.0462C70.2615 66.9608 70.239 66.8781 70.2182 66.77C69.9061 67.0734 69.5907 67.3341 69.2987 67.5966ZM67.7702 67.7047C67.6042 67.6975 67.4465 67.6884 67.2871 67.6675C67.2855 67.682 67.464 67.8691 67.5691 67.9554C67.4932 68.0254 67.4223 68.0889 67.3505 68.1516C68.1115 68.1189 68.6771 68.5022 69.2437 68.8864C69.1711 68.3896 68.5244 67.7202 67.7402 67.5985C67.7493 67.633 67.7585 67.6657 67.7702 67.7047M70.8072 68.7675C70.6862 68.9192 70.5177 69.0609 70.3742 69.198C70.6445 69.2489 70.9107 69.2816 71.1768 69.2997C71.2077 69.2843 71.2386 69.2662 71.2669 69.2425C71.4146 69.1272 71.5356 68.9718 71.6582 68.8256C71.7475 68.7175 71.8151 68.594 71.901 68.4786C71.9811 68.3687 72.0721 68.2633 72.1605 68.1489C71.6123 68.1661 71.1535 68.3324 70.8072 68.7675M73.6515 68.7457C73.1809 68.7893 72.6628 69.0236 72.1647 69.317C72.9506 69.2852 73.7015 69.148 74.3648 68.9573C74.2147 68.8147 74.0253 68.7402 73.7775 68.7402C73.7374 68.7402 73.6949 68.743 73.6515 68.7457" fill="url(#paint20_linear_416_1726)"/>
<path d="M69.0163 42.4233C68.9913 42.4269 68.9704 42.4414 68.9688 42.4687V42.4778C68.9771 42.6276 69.0146 42.8011 69.1498 43.0255C69.2992 43.2734 69.4627 43.4579 69.6362 43.6132C69.5169 43.6477 69.4193 43.8366 69.4552 43.9438C69.5878 44.05 69.718 44.1191 69.844 44.2336C70.1085 44.4697 70.2445 44.3435 70.2653 44.2372C70.2712 44.1991 70.2303 44.13 70.1694 44.05C70.2253 44.1055 70.2887 44.1427 70.3546 44.1418C70.4706 44.1136 70.549 44.0555 70.4614 43.8575C70.4147 43.7567 70.3304 43.6413 70.2845 43.536C70.2361 43.4251 70.2136 43.3225 70.1785 43.2153C70.0542 43.2044 69.9174 43.3452 69.8982 43.496C69.7931 43.2852 69.6746 43.0709 69.5152 42.852C69.3601 42.6349 69.2099 42.4841 69.0722 42.4305C69.0622 42.4269 69.0514 42.4242 69.0413 42.4233H69.0163ZM71.2423 43.3598C71.274 43.6032 71.5077 44.0083 71.7413 44.3217C71.6403 44.0628 71.6812 43.9156 71.773 43.7875C71.808 43.7403 71.7988 43.5614 71.6712 43.3915C71.622 43.3252 71.5085 43.2008 71.4342 43.1781C71.41 43.1699 71.3867 43.1663 71.3675 43.1663C71.2665 43.1663 71.2298 43.2626 71.2423 43.3598M72.8176 43.5886C72.7633 43.6359 72.6666 43.7222 72.6123 44.0483C72.5673 43.9838 72.4413 43.8621 72.3812 43.8048C72.3587 43.8466 72.3278 43.8775 72.3153 43.9265C72.2736 44.0755 72.2961 44.2544 72.3921 44.4488C72.5556 44.7858 72.735 45.1174 72.916 45.4471C73.2498 46.0557 73.5701 46.6397 73.3883 47.1738C73.4266 47.1711 73.4391 47.172 73.4458 47.1711C73.4583 47.1666 73.465 47.1493 73.475 47.1429C73.7245 46.9531 73.9097 46.6324 73.7278 46.2473C73.5409 45.8495 73.0395 45.3499 72.8651 44.942C72.7633 44.7086 72.7583 44.5124 72.8292 44.3444C72.8943 44.1936 73.0846 44.1173 73.2948 44.1427C73.3449 44.15 73.4675 44.2163 73.5234 44.2545C73.7278 44.4052 73.8413 44.626 73.8012 44.8131C73.7787 44.9212 73.6928 44.9675 73.5751 44.923C73.4884 44.8903 73.3757 44.8085 73.3248 44.7313C73.2798 44.6641 73.3023 44.5696 73.2956 44.487C73.1505 44.4715 73.1121 44.4952 73.1079 44.6205C73.0987 44.8304 73.3324 45.1328 73.5735 45.1955C73.7837 45.2582 73.9906 45.1564 74.039 44.9875C74.1091 44.7486 74.034 44.506 73.8421 44.3262C73.747 44.2408 73.6502 44.1282 73.6185 44.0374C73.586 43.9456 73.616 43.8793 73.6419 43.7858C73.6452 43.7776 73.6352 43.7649 73.6277 43.744C73.3774 43.6295 73.3132 43.8194 73.1747 43.9066C73.1296 43.8239 73.0937 43.7603 73.0579 43.694C72.9986 43.5796 72.9636 43.5296 72.9194 43.5296C72.8918 43.5296 72.8601 43.5505 72.8176 43.5886M70.8619 43.9311C70.8202 43.9738 70.7935 44.0628 70.8368 44.1482C70.9211 44.3217 71.0921 44.4942 71.2807 44.5933C71.6403 44.7822 71.9665 45.0665 72.2085 45.4298C72.2502 45.4943 72.2903 45.5597 72.3295 45.626C72.1217 45.4017 71.8798 45.1964 71.6603 44.9875C71.4242 44.7668 71.1964 44.6641 71.0037 44.6741C70.947 44.6777 70.9069 44.7341 70.9094 44.7958C70.9186 45.012 71.0529 45.2336 71.254 45.4989C71.4242 45.7232 71.5944 45.9812 71.7796 46.2246C71.7404 46.1883 71.6996 46.1547 71.6603 46.1184C71.3758 45.8686 71.1289 45.567 70.9303 45.2191C70.831 45.0447 70.3938 44.4607 70.2044 44.7531C70.136 44.8585 70.2411 45.0692 70.4439 45.2391C70.6241 45.388 70.8085 45.5134 70.9904 45.6569C70.9937 45.8967 71.078 46.0511 71.3408 46.2591C71.4926 46.3763 71.6445 46.4662 71.7955 46.5807C71.8406 46.6152 71.9056 46.6797 71.9215 46.726C71.9982 46.9604 72.1401 47.0839 72.2944 47.1584C72.4705 47.2428 72.629 47.2465 72.7425 47.2429C72.8459 47.2383 72.9527 47.1775 73.0245 47.0721C73.1304 46.9186 73.1955 46.5153 73.037 46.1946C72.9844 46.0893 72.886 45.9676 72.795 45.884C72.7216 45.8132 72.6774 45.7677 72.6348 45.6687C72.5497 45.4662 72.4413 45.2645 72.3153 45.0701C72.1351 44.7976 71.9774 44.7095 71.8038 44.7304C71.652 44.5251 71.5143 44.3344 71.3541 44.159C71.209 44.0019 71.0379 43.9056 70.9336 43.9056C70.9036 43.9056 70.8786 43.9138 70.8619 43.9311M69.6354 45.6632C69.6362 45.9394 70.015 45.9785 70.1085 45.9394C70.2236 45.8913 70.297 45.795 70.4105 45.7505C70.4881 45.7232 70.6066 45.7559 70.7476 45.765C70.5006 45.596 70.1268 45.3962 69.8824 45.3962C69.7355 45.3962 69.6346 45.468 69.6354 45.6632M70.1769 46.1638C70.1327 46.1747 70.1018 46.2055 70.0626 46.2264C70.1168 46.2964 70.1994 46.4344 70.2703 46.4935C70.1677 46.518 70.0768 46.5271 69.9958 46.5616C69.9307 46.587 69.884 46.637 69.8348 46.687C69.7322 46.7932 69.748 46.8359 69.9157 46.9558C69.975 46.9976 70.0292 47.0403 70.1043 47.0957C69.8415 47.2992 69.9558 47.598 69.9641 47.5962C70.0492 47.5717 70.111 47.5435 70.1952 47.5853C70.2753 47.6271 70.3729 47.7397 70.4455 47.8469C70.5991 48.0686 70.816 48.1648 71.0396 48.1049C71.1989 48.0631 71.3024 47.846 71.259 47.6116C71.2156 47.3473 70.9553 47.0721 70.7634 47.0694C70.6474 47.0667 70.6224 47.1066 70.6266 47.2638C70.7033 47.2783 70.7893 47.2583 70.8485 47.311C70.9169 47.3718 70.9854 47.499 71.0095 47.5962C71.0421 47.7279 70.9954 47.816 70.8944 47.8333C70.72 47.8651 70.524 47.7279 70.4005 47.4972C70.3671 47.4327 70.3162 47.2973 70.3129 47.241C70.302 47.0103 70.383 46.8087 70.5265 46.7487C70.6858 46.6824 70.8644 46.7015 71.0713 46.8251C71.4342 47.044 71.8597 47.6189 72.2135 47.8469C72.5547 48.0686 72.861 47.8896 73.0503 47.6307C73.057 47.6207 73.0729 47.6134 73.0779 47.6007C73.0787 47.5944 73.0779 47.579 73.0837 47.5372C72.5831 47.7016 72.0683 47.3156 71.531 46.915C71.2423 46.697 70.9486 46.4799 70.6516 46.28C70.5223 46.1937 70.3988 46.1492 70.2862 46.1492C70.2486 46.1492 70.2119 46.1547 70.1769 46.1638ZM74.3786 46.4462C74.1108 46.597 73.9923 47.0058 74.2393 47.5299C74.3002 47.6553 74.3736 47.7878 74.4579 47.9032C74.7849 48.3537 75.152 48.7189 75.515 49.0922C75.7353 49.3229 75.9422 49.5727 76.1516 49.8253C76.6906 50.4783 76.5913 51.2532 76.6063 51.2895C76.8466 50.8635 77.0568 50.4247 76.8591 49.7453C76.7331 49.3211 76.4686 49.0323 76.1958 48.7743C75.9889 48.5763 75.772 48.4083 75.5567 48.2257C75.2639 47.9777 75.077 47.6153 75.0653 47.3056C75.0544 47.0231 75.2155 46.9158 75.525 47.0094C75.565 47.0212 75.5884 47.0276 75.6585 47.0494C75.545 46.8205 75.3414 46.6652 75.1637 46.5471C74.9727 46.4208 74.8091 46.3709 74.6665 46.3709C74.5588 46.3709 74.4637 46.3999 74.3786 46.4462M73.9339 48.2311C74.3085 48.8924 74.6164 49.5954 74.9151 50.2921C75.0661 50.6373 75.2822 50.9552 75.4799 51.2586C75.5534 51.3694 75.7069 51.4003 75.8229 51.4248C75.9038 51.4421 75.9605 51.4675 76.0123 51.5738C76.6806 52.9072 77.2054 54.3006 77.6259 55.644C77.6384 55.6895 77.6484 55.7585 77.6325 55.7976C77.4482 56.1999 77.56 56.4879 77.7519 56.7495C77.9037 56.9584 78.1832 57.3817 78.2925 57.3717C78.315 57.1201 78.3409 56.8721 78.3367 56.625C78.3359 56.4025 78.3275 56.1681 78.2683 55.9601C78.2333 55.8338 78.1056 55.7603 78.0197 55.6604C77.9579 55.5895 77.8678 55.535 77.8395 55.4469C77.3948 54.1344 76.8624 52.7664 76.1908 51.4675C76.1241 51.3331 76.1082 51.2404 76.1499 51.1096C76.22 50.8817 76.1541 50.6282 76.0306 50.3902C75.7127 49.7862 75.2847 49.3193 74.8392 48.8906C74.5713 48.6335 74.2927 48.401 74.0098 48.1684C73.9748 48.1385 73.9364 48.1185 73.8697 48.0731C73.9022 48.1512 73.9131 48.1948 73.9339 48.2311M72.7233 48.5554C72.4922 48.7416 72.3795 49.0196 72.4079 49.4447C72.4296 49.7408 72.6165 50.1604 72.7967 50.2931C72.8067 50.1559 72.8042 50.0224 72.8226 49.9079C72.8701 49.6609 73.0295 49.5382 73.2464 49.5727C73.4333 49.6054 73.6945 49.857 73.7821 50.1032C73.9289 50.501 74.0432 50.908 74.1634 51.3122C74.3019 51.779 74.5497 52.067 74.9034 52.1624C75.1913 52.2405 75.4699 52.1806 75.7511 52.0434C75.6318 51.9644 75.5392 51.8999 75.4424 51.84C75.137 51.6465 74.9351 51.3086 74.7799 50.9089C74.5864 50.4111 74.4053 49.9015 74.1442 49.4401C73.9765 49.1367 73.7537 48.846 73.5159 48.6271C73.3557 48.4809 73.2064 48.421 73.0695 48.421C72.9419 48.421 72.8251 48.4736 72.7233 48.5554M70.373 51.7555C70.1836 51.7209 69.9908 51.6882 69.7822 51.6519C69.7247 51.9108 69.8315 52.1415 69.9683 52.3395C70.1043 52.5321 70.282 52.6847 70.4339 52.8563C70.3137 52.9154 70.1902 52.9708 70.0692 53.0271C70.2728 53.5058 70.6066 53.7401 71.1405 53.6729C71.5761 53.6166 72.0007 53.5022 72.4221 53.3987C72.9018 53.2833 73.3649 53.1552 73.833 53.3687C74.2735 53.5667 74.5388 54.0045 74.6756 54.5531C74.7833 54.9901 74.724 55.3833 74.5388 55.8175C74.533 55.8302 74.6222 55.9238 74.6573 55.9474C74.7115 55.7712 74.8784 55.4987 74.9126 55.3161C75.1579 53.9445 74.3127 52.9854 73.2765 52.9072C72.8685 52.8709 72.4546 52.9245 72.0375 52.9363C71.6954 52.9481 71.355 52.9417 71.0604 52.711C70.71 52.4313 70.5089 51.8363 70.8101 51.3631C70.9828 51.0933 71.3066 50.9788 71.5752 51.1169C71.7521 51.2086 71.914 51.4875 71.9073 51.7128C71.904 51.8599 71.8656 51.9926 71.7429 52.0434C71.6261 52.0897 71.5293 52.0406 71.4459 51.9271C71.4326 51.9108 71.4142 51.899 71.3984 51.8844C71.3283 52.0788 71.4659 52.4349 71.6653 52.5039C72.0108 52.6229 72.3587 52.1388 72.2944 51.6637C72.2385 51.2286 72.0525 50.8635 71.7012 50.6927C71.3158 50.5065 70.9887 50.5728 70.715 50.8853C70.6825 50.9198 70.6524 50.9452 70.6249 50.9707C70.4806 50.8062 70.3554 50.6673 70.2178 50.5183C69.9908 50.9598 70.1335 51.3331 70.373 51.7555M72.3311 52.4712C72.7241 52.4576 73.1329 51.909 72.9477 51.4212C72.8142 51.057 72.4112 50.7572 72.0984 50.5483C72.5831 51.1524 72.7792 51.8081 72.3311 52.4712ZM77.3505 53.2315C77.489 53.4849 77.5808 53.7783 77.6851 54.0545C78.0622 53.8047 78.3292 53.3087 78.174 52.7719C78.0948 52.4976 77.9579 52.2441 77.8303 51.9944C77.7327 51.8072 77.61 51.6456 77.5049 51.4648C77.4014 51.2913 77.3113 51.1069 77.207 50.9207C76.9676 51.7464 76.9617 52.5076 77.3505 53.2315M75.8979 54.2652C76.0206 54.6222 76.3727 54.7475 76.7223 54.6222C76.8391 54.5786 76.9501 54.5213 77.0327 54.4859C76.925 54.1762 76.8024 53.9018 76.7114 53.6066C76.5087 52.9526 76.1291 52.6429 75.6618 52.5511C75.5475 52.5303 75.429 52.523 75.2839 52.503C75.5233 53.1125 75.7027 53.7038 75.8979 54.2652M71.7479 54.2089C71.8197 54.2543 71.8597 54.2779 71.9131 54.3143C71.6954 54.565 71.3683 54.6485 71.1898 55.0037C71.3842 55.0073 71.5527 55.0091 71.7254 55.0109C71.6428 55.2316 71.4826 55.6813 71.496 55.6931C72.4972 54.6431 73.4366 54.5759 74.5063 54.7493C74.4704 54.4287 73.7979 53.8728 73.3849 53.7711C73.2531 53.7384 73.1246 53.722 72.9986 53.722C72.5748 53.722 72.176 53.9009 71.7479 54.2089ZM78.0823 54.5459C78.3501 54.4314 78.6162 54.3251 78.8791 54.2652C78.8615 54.2161 78.8457 54.1662 78.8282 54.1181C78.7831 53.9954 78.7339 53.8673 78.6846 53.7365C78.4227 53.9672 78.2016 54.2625 78.0823 54.5459ZM78.1348 55.268C78.1198 55.2734 78.109 55.2971 78.0823 55.3407C78.4844 55.4188 78.6338 55.8039 78.7088 56.2499C78.9416 56.1881 79.0468 55.9701 79.1485 55.773C79.2361 55.8602 79.3179 55.9637 79.4114 56.0382C79.3304 55.7176 79.2395 55.3888 79.1369 55.0527C79.0835 55.0464 79.0292 55.0418 78.9767 55.0418C78.693 55.0418 78.4135 55.1363 78.1348 55.268M74.6381 56.804C74.6865 56.8058 74.7349 56.8067 74.7891 56.8076C74.7007 57.0501 74.6131 57.2836 74.5121 57.5098C74.528 57.5207 74.8534 57.3435 75.0127 57.2273C75.0653 57.3762 75.1112 57.5106 75.1571 57.6469C75.4783 56.496 76.2317 55.8384 76.9884 55.1762C76.9325 55.1653 76.8733 55.1608 76.8116 55.1608C76.1324 55.1608 75.122 55.7875 74.6381 56.804M77.0969 56.0246C76.8349 56.2699 76.5913 56.5405 76.4595 56.9111C76.3301 57.2672 76.371 57.5524 76.5804 57.795C76.8433 57.5343 77.0393 57.2718 76.9626 56.9411C77.1461 56.9302 77.3213 56.9166 77.5433 56.8993C77.3789 56.506 77.2771 56.1582 77.5016 55.7385C77.489 55.7276 77.4782 55.7158 77.4648 55.7067C77.3472 55.8148 77.2179 55.9138 77.0969 56.0246M78.6463 56.5315C78.7814 56.7822 78.8774 57.0029 79.0134 57.1854C79.1077 57.3208 79.2628 57.4098 79.4547 57.3208C79.5215 57.2918 79.6116 57.2154 79.6575 57.14C79.6391 57.0429 79.6191 56.9457 79.5983 56.8458C79.4631 56.863 79.3588 56.7767 79.2729 56.7086C79.1294 56.5969 78.9758 56.5251 78.7631 56.5251C78.7264 56.5251 78.6871 56.5269 78.6463 56.5315M77.2596 57.7187C77.2054 57.9131 77.1303 58.0729 76.8916 58.1283C76.9868 58.2791 77.1319 58.3073 77.2996 58.2864C77.4573 58.2655 77.5675 58.1438 77.6359 58.0102C77.7402 57.8077 77.7519 57.5643 77.7268 57.3544C77.7135 57.2391 77.6926 57.1028 77.6584 57.0274C77.4415 57.2436 77.3313 57.4752 77.2596 57.7187M78.9032 58.0493C79.0893 58.1647 79.3613 58.0311 79.5106 57.6978C79.2628 57.7723 79.1736 57.6024 79.0467 57.4625C78.9349 57.3408 78.7914 57.2609 78.6479 57.151C78.5737 57.4898 78.7013 57.9276 78.9032 58.0493M77.862 57.9948C77.8678 58.1783 77.8703 58.3436 77.6976 58.5135C77.862 58.5661 78.0055 58.5216 78.1473 58.399C78.275 58.2918 78.3134 58.1592 78.3067 58.0093C78.2942 57.7487 78.119 57.4371 77.8937 57.3217C77.8887 57.5679 77.8528 57.7914 77.862 57.9948M78.6262 58.7623C78.6479 58.7987 78.6755 58.8186 78.7097 58.8223H78.7347C78.7639 58.8195 78.7981 58.8078 78.8382 58.786C78.9525 58.7233 78.9909 58.6524 78.9733 58.5562C78.9266 58.2846 78.7439 58.1156 78.5428 57.953C78.5044 58.2619 78.4936 58.5398 78.6262 58.7623" fill="url(#paint21_linear_416_1726)"/>
<path d="M61.7759 40.2168L62.1163 40.0051L61.1893 38.2457L60.8489 38.4573L61.2052 39.1359L59.5215 40.1886L59.7334 40.5919L61.4179 39.5383L61.7759 40.2168ZM63.2952 42.2396L61.6282 42.5276L62.6911 41.0942L62.3607 40.4702L60.3375 41.7355L60.5486 42.1379L62.0971 41.1705L62.1029 41.1814L60.8815 42.7683L61.055 43.0971L62.9289 42.751L62.9348 42.7592L61.3879 43.7275L61.5998 44.1299L63.6239 42.8655L63.2952 42.2396Z" fill="#BCBAB7"/>
<path d="M64.6571 94.2222C64.1934 94.2222 63.9952 93.5491 63.9952 91.6968C63.9952 90.7353 64.4249 90.4951 65.6506 90.4951C65.9724 90.4951 66.2294 90.4978 66.4761 90.5024C66.0852 91.8123 65.5609 94.2222 64.6571 94.2222ZM62.1719 92.9592C62.1719 93.4495 62.215 93.8679 62.2931 94.2222H55.8117C54.9498 94.2222 54.3988 94.0051 54.3988 93.1393V90.7353H56.4403C56.6069 90.1949 56.7167 89.7006 56.7718 89.1734H54.3994C54.4091 88.4316 54.4588 87.7691 54.5085 87.0089C53.7357 87.3092 53.1289 87.6576 52.6313 88.2594V89.1734H51.582C51.4941 89.8227 51.4941 90.3143 51.4723 90.7353H52.6313V93.2601C52.6313 95.0273 53.6144 95.7849 54.9613 95.7849H63.7733C64.8529 95.7849 65.6821 94.8214 66.4792 92.6411V95.7849H68.2455V89.1734C67.4508 89.1008 66.7216 89.0519 65.927 89.0519C63.7406 89.0519 62.1719 90.0385 62.1719 92.9592ZM71.4483 92.226V91.5774C71.4483 90.7353 71.3925 90.0141 71.2828 89.1734H69.5711C69.6262 90.0141 69.6814 90.7353 69.6814 91.5774V95.7849H71.4483C71.4483 93.4277 72.1435 90.7472 73.9874 91.0362C73.9874 90.6152 73.9323 89.6531 73.8226 89.0519C72.4763 89.1793 71.8168 90.4707 71.4483 92.226ZM47.1099 94.2222C46.6462 94.2222 46.4474 93.5491 46.4474 91.6968C46.4474 90.7353 46.8784 90.4951 48.1034 90.4951C48.4253 90.4951 48.6823 90.4978 48.9302 90.5024C48.538 91.8123 48.0149 94.2222 47.1099 94.2222ZM44.626 92.9592C44.626 94.9554 45.2879 95.905 46.1716 95.905C47.2542 95.905 48.1185 94.8617 48.9326 92.6378V95.7849H50.6995V89.1734C49.9042 89.1008 49.1757 89.0519 48.3798 89.0519C46.1934 89.0519 44.626 90.0385 44.626 92.9592M102.201 89.894C102.201 88.2475 101.152 87.2491 99.275 87.2491C98.2373 87.2491 97.476 87.4893 97.0117 87.7308C96.7468 88.1386 96.6256 88.6085 96.4595 89.3522C97.1663 89.0519 97.8506 88.8124 98.8889 88.8124C99.7169 88.8124 100.38 89.1971 100.38 90.2549C100.38 91.3959 99.7284 92.226 96.1831 94.4618C96.1831 94.7026 96.1946 95.183 96.294 95.7849H102.146C102.312 95.2437 102.422 94.7633 102.477 94.2222H97.4966C99.9848 93.2957 102.201 92.3283 102.201 89.894M40.4648 93.9385L40.3739 93.885C39.3143 93.2726 37.8893 92.3356 37.8893 90.6278C37.8893 89.0638 38.8179 88.3307 39.9326 88.3307C41.1697 88.3307 41.9201 89.2803 41.9201 90.9406C41.9201 92.0835 41.3419 93.0918 40.4648 93.9385M43.8525 95.905L40.9437 94.2163C42.5899 93.565 43.7974 92.2802 43.7974 90.4588C43.7974 88.006 42.1074 86.7687 39.9326 86.7687C37.9342 86.7687 36.0127 88.1631 36.0127 90.8561C36.0127 93.1281 37.6026 94.4862 39.3471 95.4839L44.9563 98.6699C44.9563 97.2637 44.8023 96.4573 43.8525 95.905M85.1956 95.183C84.6998 95.183 83.1529 94.0889 83.1529 91.157C83.1529 89.7132 83.9263 88.8124 85.1956 88.8124C86.4654 88.8124 87.2395 89.7132 87.2395 91.157C87.2395 94.0889 85.6932 95.183 85.1956 95.183M85.1956 87.2491C82.988 87.2491 81.3308 88.6916 81.3308 91.0362C81.3308 94.1015 84.0366 95.905 85.1956 95.905C86.3557 95.905 89.0603 94.1015 89.0603 91.0362C89.0603 88.6916 87.405 87.2491 85.1956 87.2491ZM85.2204 90.5268C84.8343 90.8264 84.5028 91.1768 84.2106 91.5774C84.5028 91.9779 84.8343 92.327 85.2204 92.6279C85.6065 92.327 85.9369 91.9779 86.2315 91.5774C85.9369 91.1768 85.6065 90.8264 85.2204 90.5268ZM95.3557 89.894C95.3557 88.2475 94.3059 87.2491 92.4281 87.2491C91.3909 87.2491 90.629 87.4893 90.1647 87.7308C89.9004 88.1386 89.7786 88.6085 89.6125 89.3522C90.3199 89.0519 91.0048 88.8124 92.0425 88.8124C92.8705 88.8124 93.5337 89.1971 93.5337 90.2549C93.5337 91.3959 92.8821 92.226 89.3373 94.4618C89.3373 94.7026 89.3483 95.183 89.4477 95.7849H95.3006C95.4654 95.2437 95.5764 94.7633 95.6315 94.2222H90.6502C93.1391 93.2957 95.3557 92.3283 95.3557 89.894M80.4471 89.894C80.4471 88.2475 79.3991 87.2491 77.5218 87.2491C76.4835 87.2491 75.7216 87.4893 75.2585 87.7308C74.993 88.1386 74.8712 88.6085 74.7063 89.3522C75.4125 89.0519 76.0974 88.8124 77.1357 88.8124C77.9631 88.8124 78.6256 89.1971 78.6256 90.2549C78.6256 91.3959 77.974 92.226 74.4299 94.4618C74.4299 94.7026 74.4408 95.183 74.5408 95.7849H80.3931C80.5592 95.2437 80.6689 94.7633 80.7235 94.2222H75.7428C78.2304 93.2957 80.4471 92.3283 80.4471 89.894Z" fill="#9A1032"/>
<path d="M95.5182 84.4174C95.2679 84.486 94.9927 84.5507 94.6939 84.6121C94.3926 84.6734 94.0211 84.7031 93.5768 84.7031C93.1391 84.7031 92.696 84.6391 92.2487 84.5098C91.8014 84.3811 91.3983 84.1732 91.0395 83.8868C90.68 83.6011 90.3854 83.2243 90.1575 82.7584C89.9278 82.2925 89.8145 81.7211 89.8145 81.0473C89.8145 80.4283 89.909 79.8846 90.0963 79.4187C90.2836 78.9521 90.5455 78.5648 90.8794 78.2533C91.214 77.9438 91.6117 77.7128 92.0711 77.5598C92.5306 77.406 93.0294 77.3301 93.5671 77.3301C93.9053 77.3301 94.2332 77.3651 94.5521 77.437C94.8715 77.5076 95.1903 77.5947 95.5085 77.697L95.3691 79.2398C95.0873 79.0689 94.8072 78.9429 94.5296 78.8617C94.2502 78.7799 93.9611 78.739 93.6616 78.739C93.3483 78.739 93.0676 78.7964 92.8173 78.9132C92.5669 79.028 92.353 79.1884 92.1742 79.3923C91.9953 79.5975 91.8578 79.841 91.7608 80.1234C91.6638 80.4052 91.6165 80.7134 91.6165 81.0473C91.6165 81.3944 91.6705 81.7079 91.7808 81.9877C91.8893 82.2661 92.0396 82.5024 92.2305 82.697C92.4215 82.8904 92.6512 83.0389 92.9197 83.1412C93.1888 83.2428 93.4822 83.2942 93.8023 83.2942C94.0896 83.2942 94.3745 83.2586 94.6557 83.1867C94.9376 83.1161 95.1964 83.029 95.434 82.9267L95.5182 84.4174Z" fill="#9A1032"/>
<path d="M101.804 81.8742C101.804 82.3651 101.735 82.7861 101.597 83.1412C101.46 83.4949 101.265 83.7878 101.012 84.0188C100.758 84.2511 100.455 84.4227 100.101 84.5349C99.7478 84.6484 99.3581 84.7031 98.9326 84.7031C98.5077 84.7031 98.1185 84.6484 97.7645 84.5349C97.4118 84.4227 97.1087 84.2511 96.8547 84.0188C96.6014 83.7878 96.4068 83.4949 96.2692 83.1412C96.1316 82.7861 96.0625 82.3651 96.0625 81.8742V77.4515H97.8076V81.5581C97.8076 81.7963 97.8246 82.0187 97.8591 82.2265C97.893 82.4351 97.9537 82.6179 98.0373 82.7782C98.1216 82.9379 98.2361 83.0639 98.3798 83.1557C98.5228 83.2481 98.7083 83.2942 98.9326 83.2942C99.1581 83.2942 99.3429 83.2481 99.4872 83.1557C99.6315 83.0639 99.7448 82.9379 99.8297 82.7782C99.9133 82.6179 99.9733 82.4351 100.008 82.2265C100.041 82.0187 100.059 81.7963 100.059 81.5581V77.4515H101.804V81.8742Z" fill="#9A1032"/>
<path d="M104.422 80.7401H104.872C105.023 80.7401 105.163 80.7243 105.295 80.6946C105.426 80.6629 105.54 80.6088 105.637 80.531C105.734 80.4531 105.811 80.3501 105.867 80.2241C105.923 80.0987 105.951 79.9437 105.951 79.7602C105.951 79.5754 105.923 79.4223 105.867 79.3009C105.811 79.1782 105.734 79.0792 105.637 79.004C105.54 78.9294 105.426 78.8759 105.295 78.8462C105.163 78.8146 105.023 78.7994 104.872 78.7994H104.422V80.7401ZM102.677 77.4512H104.759C105.767 77.4512 106.508 77.6406 106.984 78.0181C107.459 78.3969 107.697 78.9868 107.697 79.7906C107.697 80.5125 107.468 81.076 107.012 81.4805C106.554 81.8864 105.917 82.0883 105.097 82.0883H104.422V84.5801H102.677V77.4512Z" fill="#9A1032"/>
<path d="M53.4238 77.4515H55.2065L56.0514 82.9267H56.0702L56.951 77.4515H59.1652L60.0847 82.9267H60.1041L60.9576 77.4515H62.656L61.1915 84.5811H58.95L58.0214 79.1066H58.002L57.1395 84.5811H54.878L53.4238 77.4515Z" fill="#9A1032"/>
<path d="M64.5228 81.0166C64.5228 81.3103 64.5506 81.594 64.6076 81.8698C64.6634 82.145 64.7501 82.3885 64.8695 82.5997C64.9883 82.8109 65.1416 82.9791 65.3301 83.1052C65.5174 83.2312 65.7417 83.2946 66.0054 83.2946C66.2672 83.2946 66.4939 83.2312 66.6812 83.1052C66.8685 82.9791 67.0213 82.8109 67.1395 82.5997C67.2589 82.3885 67.3468 82.145 67.4031 81.8698C67.4589 81.594 67.4874 81.3103 67.4874 81.0166C67.4874 80.7111 67.4589 80.4194 67.4031 80.1442C67.3468 79.8684 67.2589 79.6262 67.1395 79.4177C67.0213 79.2111 66.8685 79.0455 66.6812 78.9228C66.4939 78.8 66.2672 78.74 66.0054 78.74C65.7417 78.74 65.5174 78.8 65.3301 78.9228C65.1416 79.0455 64.9883 79.2111 64.8695 79.4177C64.7501 79.6262 64.6634 79.8684 64.6076 80.1442C64.5506 80.4194 64.5228 80.7111 64.5228 81.0166ZM62.7207 81.0166C62.7207 80.4445 62.7916 79.9304 62.9322 79.4744C63.0723 79.0184 63.2808 78.6317 63.556 78.3157C63.8312 77.9989 64.1742 77.7547 64.5828 77.5851C64.9925 77.4149 65.4665 77.3291 66.0054 77.3291C66.5424 77.3291 67.0164 77.4149 67.4262 77.5851C67.8359 77.7547 68.1784 77.9989 68.4536 78.3157C68.7288 78.6317 68.9367 79.0184 69.0779 79.4744C69.2185 79.9304 69.2882 80.4445 69.2882 81.0166C69.2882 81.5815 69.2185 82.0922 69.0779 82.5489C68.9367 83.0055 68.7263 83.3935 68.4487 83.7129C68.1705 84.033 67.8268 84.2785 67.4165 84.4481C67.0079 84.619 66.5358 84.7041 66.0054 84.7041C65.4665 84.7041 64.9949 84.619 64.5876 84.4481C64.1827 84.2785 63.8396 84.033 63.5608 83.7129C63.2826 83.3935 63.0723 83.0055 62.9322 82.5489C62.7916 82.0922 62.7207 81.5815 62.7207 81.0166Z" fill="#9A1032"/>
<path d="M71.6908 80.4135H72.1496C72.2878 80.4135 72.4333 80.4082 72.586 80.3977C72.74 80.3878 72.8776 80.3554 72.9994 80.3013C73.1213 80.2459 73.2231 80.1647 73.3037 80.0558C73.3855 79.9463 73.4255 79.7906 73.4255 79.5853C73.4255 79.4223 73.3904 79.2884 73.3176 79.1828C73.2461 79.0772 73.1528 78.9967 73.037 78.9426C72.9212 78.8885 72.7867 78.8515 72.6327 78.8304C72.48 78.8093 72.3193 78.7994 72.1496 78.7994H71.6908V80.4135ZM69.9463 77.4512H73.0606C73.3473 77.4512 73.6207 77.4875 73.8765 77.5581C74.1329 77.6301 74.3584 77.7416 74.5524 77.8914C74.7451 78.0412 74.8972 78.2273 75.007 78.4516C75.1167 78.6773 75.1712 78.9426 75.1712 79.2488C75.1712 79.7252 75.0682 80.1172 74.8609 80.4241C74.6554 80.7296 74.339 80.9375 73.9141 81.047V81.0668C74.0517 81.107 74.1626 81.1717 74.2475 81.2615C74.3317 81.3499 74.4051 81.4601 74.4675 81.5927C74.5305 81.726 74.5875 81.8791 74.6409 82.0527C74.6948 82.2262 74.7615 82.4222 74.8439 82.6406L75.481 84.5801H73.6619L73.2855 83.2939C73.1976 82.9871 73.1146 82.735 73.037 82.5377C72.9588 82.3411 72.8733 82.184 72.7836 82.0685C72.6927 81.9517 72.5897 81.8725 72.4733 81.8283C72.3575 81.7834 72.2193 81.7617 72.0569 81.7617H71.6908V84.5801H69.9463V77.4512Z" fill="#9A1032"/>
<path d="M76.2314 77.4515H77.9759V83.1715H80.6781V84.5811H76.2314V77.4515Z" fill="#9A1032"/>
<path d="M83.0328 83.1715H83.708C84.3645 83.1715 84.8682 82.9914 85.2179 82.6297C85.5683 82.2694 85.7441 81.7323 85.7441 81.0163C85.7441 80.3016 85.5646 79.7638 85.2082 79.4029C84.8518 79.0419 84.3524 78.8611 83.708 78.8611H83.0328V83.1715ZM81.2871 77.4515H83.6699C84.2396 77.4515 84.7621 77.507 85.2367 77.6152C85.7125 77.7241 86.1199 77.9135 86.4617 78.1827C86.8018 78.4513 87.0685 78.8142 87.2588 79.2702C87.4497 79.7255 87.5455 80.2983 87.5455 80.9859C87.5455 81.6538 87.4479 82.2153 87.254 82.6713C87.06 83.128 86.7915 83.4968 86.4472 83.7793C86.1035 84.0617 85.6938 84.2656 85.2179 84.3917C84.7427 84.5177 84.2269 84.5811 83.6699 84.5811H81.2871V77.4515Z" fill="#9A1032"/>
<path fill-rule="evenodd" clip-rule="evenodd" d="M32.3027 77.4515V84.5811H34.3406V82.0061H35.808L36.3299 80.4481H34.3406V79.0043H36.8112L37.3313 77.4515H32.3027Z" fill="#9A1032"/>
<path fill-rule="evenodd" clip-rule="evenodd" d="M37.9551 84.5801H39.9929V77.4506H37.9551V84.5801Z" fill="#9A1032"/>
<path fill-rule="evenodd" clip-rule="evenodd" d="M41.3955 77.4515V84.5811H43.4346V82.0061H44.9008L45.4227 80.4481H43.4346V79.0043H45.904L46.4247 77.4515H41.3955Z" fill="#9A1032"/>
<path fill-rule="evenodd" clip-rule="evenodd" d="M49.5989 82.2529L48.7837 79.2834L47.9969 82.2529H49.5989ZM52.2605 84.5811H50.202L49.9359 83.6229H47.6326L47.3774 84.5811H45.3711L47.7569 77.4515H49.8759L52.2605 84.5811Z" fill="#9A1032"/>
</g>
<path d="M40.5834 128.22C39.5301 128.22 38.5501 128.04 37.6434 127.68C36.7501 127.307 35.9634 126.787 35.2834 126.12C34.6168 125.453 34.0968 124.68 33.7234 123.8C33.3501 122.907 33.1634 121.947 33.1634 120.92C33.1634 119.893 33.3501 118.94 33.7234 118.06C34.0968 117.167 34.6168 116.393 35.2834 115.74C35.9501 115.087 36.7301 114.58 37.6234 114.22C38.5301 113.847 39.5101 113.66 40.5634 113.66C41.6834 113.66 42.6768 113.84 43.5434 114.2C44.4234 114.56 45.1901 115.053 45.8434 115.68L43.7434 117.8C43.3701 117.4 42.9168 117.087 42.3834 116.86C41.8634 116.633 41.2568 116.52 40.5634 116.52C39.9501 116.52 39.3834 116.627 38.8634 116.84C38.3568 117.04 37.9168 117.333 37.5434 117.72C37.1834 118.107 36.8968 118.573 36.6834 119.12C36.4834 119.667 36.3834 120.267 36.3834 120.92C36.3834 121.587 36.4834 122.193 36.6834 122.74C36.8968 123.287 37.1834 123.753 37.5434 124.14C37.9168 124.527 38.3568 124.827 38.8634 125.04C39.3834 125.253 39.9501 125.36 40.5634 125.36C41.2834 125.36 41.9101 125.247 42.4434 125.02C42.9768 124.793 43.4368 124.48 43.8234 124.08L45.9434 126.2C45.2634 126.827 44.4834 127.32 43.6034 127.68C42.7368 128.04 41.7301 128.22 40.5834 128.22ZM51.2181 128.2C50.3248 128.2 49.5248 127.98 48.8181 127.54C48.1248 127.1 47.5715 126.5 47.1581 125.74C46.7581 124.98 46.5581 124.113 46.5581 123.14C46.5581 122.167 46.7581 121.3 47.1581 120.54C47.5715 119.78 48.1248 119.18 48.8181 118.74C49.5248 118.3 50.3248 118.08 51.2181 118.08C51.8715 118.08 52.4581 118.207 52.9781 118.46C53.5115 118.713 53.9448 119.067 54.2781 119.52C54.6115 119.96 54.7981 120.467 54.8381 121.04V125.24C54.7981 125.813 54.6115 126.327 54.2781 126.78C53.9581 127.22 53.5315 127.567 52.9981 127.82C52.4648 128.073 51.8715 128.2 51.2181 128.2ZM51.8381 125.44C52.4915 125.44 53.0181 125.227 53.4181 124.8C53.8181 124.36 54.0181 123.807 54.0181 123.14C54.0181 122.687 53.9248 122.287 53.7381 121.94C53.5648 121.593 53.3115 121.327 52.9781 121.14C52.6581 120.94 52.2848 120.84 51.8581 120.84C51.4315 120.84 51.0515 120.94 50.7181 121.14C50.3981 121.327 50.1381 121.593 49.9381 121.94C49.7515 122.287 49.6581 122.687 49.6581 123.14C49.6581 123.58 49.7515 123.973 49.9381 124.32C50.1248 124.667 50.3848 124.94 50.7181 125.14C51.0515 125.34 51.4248 125.44 51.8381 125.44ZM53.8981 128V125.38L54.3581 123.02L53.8981 120.66V118.28H56.8981V128H53.8981ZM59.0527 128V113.48H62.1127V128H59.0527ZM69.0675 128.22C68.0142 128.22 67.0742 128.007 66.2475 127.58C65.4342 127.14 64.7942 126.533 64.3275 125.76C63.8608 124.987 63.6275 124.113 63.6275 123.14C63.6275 122.167 63.8542 121.3 64.3075 120.54C64.7742 119.767 65.4008 119.16 66.1875 118.72C66.9742 118.28 67.8608 118.06 68.8475 118.06C69.8075 118.06 70.6542 118.267 71.3875 118.68C72.1208 119.093 72.6942 119.667 73.1075 120.4C73.5342 121.133 73.7475 121.973 73.7475 122.92C73.7475 123.093 73.7342 123.28 73.7075 123.48C73.6942 123.667 73.6608 123.887 73.6075 124.14L65.2275 124.16V122.06L72.3075 122.04L70.9875 122.92C70.9742 122.36 70.8875 121.9 70.7275 121.54C70.5675 121.167 70.3275 120.887 70.0075 120.7C69.7008 120.5 69.3208 120.4 68.8675 120.4C68.3875 120.4 67.9675 120.513 67.6075 120.74C67.2608 120.953 66.9875 121.26 66.7875 121.66C66.6008 122.06 66.5075 122.547 66.5075 123.12C66.5075 123.693 66.6075 124.187 66.8075 124.6C67.0208 125 67.3142 125.313 67.6875 125.54C68.0742 125.753 68.5275 125.86 69.0475 125.86C69.5275 125.86 69.9608 125.78 70.3475 125.62C70.7342 125.447 71.0742 125.193 71.3675 124.86L73.0475 126.54C72.5675 127.1 71.9875 127.52 71.3075 127.8C70.6275 128.08 69.8808 128.22 69.0675 128.22ZM81.6445 128V122.46C81.6445 121.953 81.4845 121.547 81.1645 121.24C80.8579 120.92 80.4645 120.76 79.9845 120.76C79.6512 120.76 79.3579 120.833 79.1045 120.98C78.8512 121.113 78.6512 121.313 78.5045 121.58C78.3579 121.833 78.2845 122.127 78.2845 122.46L77.1045 121.88C77.1045 121.12 77.2712 120.453 77.6045 119.88C77.9379 119.307 78.3979 118.867 78.9845 118.56C79.5845 118.24 80.2579 118.08 81.0045 118.08C81.7245 118.08 82.3579 118.253 82.9045 118.6C83.4645 118.933 83.9045 119.38 84.2245 119.94C84.5445 120.5 84.7045 121.113 84.7045 121.78V128H81.6445ZM75.2245 128V118.28H78.2845V128H75.2245ZM90.8098 128.2C89.8898 128.2 89.0698 127.98 88.3498 127.54C87.6432 127.1 87.0832 126.5 86.6698 125.74C86.2698 124.98 86.0698 124.113 86.0698 123.14C86.0698 122.167 86.2698 121.3 86.6698 120.54C87.0832 119.78 87.6432 119.18 88.3498 118.74C89.0698 118.3 89.8898 118.08 90.8098 118.08C91.4765 118.08 92.0765 118.207 92.6098 118.46C93.1565 118.713 93.6032 119.067 93.9498 119.52C94.3098 119.96 94.5098 120.467 94.5498 121.04V125.14C94.5098 125.713 94.3165 126.233 93.9698 126.7C93.6232 127.153 93.1765 127.52 92.6298 127.8C92.0832 128.067 91.4765 128.2 90.8098 128.2ZM91.3498 125.44C91.7898 125.44 92.1698 125.347 92.4898 125.16C92.8098 124.96 93.0632 124.687 93.2498 124.34C93.4365 123.993 93.5298 123.593 93.5298 123.14C93.5298 122.687 93.4365 122.293 93.2498 121.96C93.0765 121.613 92.8232 121.34 92.4898 121.14C92.1698 120.94 91.7965 120.84 91.3698 120.84C90.9432 120.84 90.5632 120.94 90.2298 121.14C89.9098 121.34 89.6498 121.613 89.4498 121.96C89.2632 122.307 89.1698 122.7 89.1698 123.14C89.1698 123.58 89.2632 123.973 89.4498 124.32C89.6365 124.667 89.8965 124.94 90.2298 125.14C90.5632 125.34 90.9365 125.44 91.3498 125.44ZM96.4098 128H93.4098V125.38L93.8698 123.02L93.3498 120.66V113.48H96.4098V128ZM102.624 128.2C101.731 128.2 100.931 127.98 100.224 127.54C99.531 127.1 98.9777 126.5 98.5644 125.74C98.1644 124.98 97.9644 124.113 97.9644 123.14C97.9644 122.167 98.1644 121.3 98.5644 120.54C98.9777 119.78 99.531 119.18 100.224 118.74C100.931 118.3 101.731 118.08 102.624 118.08C103.278 118.08 103.864 118.207 104.384 118.46C104.918 118.713 105.351 119.067 105.684 119.52C106.018 119.96 106.204 120.467 106.244 121.04V125.24C106.204 125.813 106.018 126.327 105.684 126.78C105.364 127.22 104.938 127.567 104.404 127.82C103.871 128.073 103.278 128.2 102.624 128.2ZM103.244 125.44C103.898 125.44 104.424 125.227 104.824 124.8C105.224 124.36 105.424 123.807 105.424 123.14C105.424 122.687 105.331 122.287 105.144 121.94C104.971 121.593 104.718 121.327 104.384 121.14C104.064 120.94 103.691 120.84 103.264 120.84C102.838 120.84 102.458 120.94 102.124 121.14C101.804 121.327 101.544 121.593 101.344 121.94C101.158 122.287 101.064 122.687 101.064 123.14C101.064 123.58 101.158 123.973 101.344 124.32C101.531 124.667 101.791 124.94 102.124 125.14C102.458 125.34 102.831 125.44 103.244 125.44ZM105.304 128V125.38L105.764 123.02L105.304 120.66V118.28H108.304V128H105.304ZM101.804 117.18L100.804 115.72L103.984 112.74L105.664 115.1L101.804 117.18ZM110.459 128V118.28H113.519V128H110.459ZM113.519 122.66L112.239 121.66C112.492 120.527 112.919 119.647 113.519 119.02C114.119 118.393 114.952 118.08 116.019 118.08C116.486 118.08 116.892 118.153 117.239 118.3C117.599 118.433 117.912 118.647 118.179 118.94L116.359 121.24C116.226 121.093 116.059 120.98 115.859 120.9C115.659 120.82 115.432 120.78 115.179 120.78C114.672 120.78 114.266 120.94 113.959 121.26C113.666 121.567 113.519 122.033 113.519 122.66ZM118.994 128V118.28H122.054V128H118.994ZM120.534 116.94C120.054 116.94 119.654 116.78 119.334 116.46C119.027 116.127 118.874 115.727 118.874 115.26C118.874 114.78 119.027 114.38 119.334 114.06C119.654 113.74 120.054 113.58 120.534 113.58C121.014 113.58 121.407 113.74 121.714 114.06C122.021 114.38 122.174 114.78 122.174 115.26C122.174 115.727 122.021 116.127 121.714 116.46C121.407 116.78 121.014 116.94 120.534 116.94ZM128.889 128.22C127.889 128.22 126.982 128 126.169 127.56C125.369 127.107 124.736 126.493 124.269 125.72C123.802 124.947 123.569 124.08 123.569 123.12C123.569 122.16 123.802 121.3 124.269 120.54C124.736 119.78 125.369 119.18 126.169 118.74C126.969 118.287 127.876 118.06 128.889 118.06C129.902 118.06 130.809 118.28 131.609 118.72C132.409 119.16 133.042 119.767 133.509 120.54C133.976 121.3 134.209 122.16 134.209 123.12C134.209 124.08 133.976 124.947 133.509 125.72C133.042 126.493 132.409 127.107 131.609 127.56C130.809 128 129.902 128.22 128.889 128.22ZM128.889 125.44C129.329 125.44 129.716 125.347 130.049 125.16C130.382 124.96 130.636 124.687 130.809 124.34C130.996 123.98 131.089 123.573 131.089 123.12C131.089 122.667 130.996 122.273 130.809 121.94C130.622 121.593 130.362 121.327 130.029 121.14C129.709 120.94 129.329 120.84 128.889 120.84C128.462 120.84 128.082 120.94 127.749 121.14C127.416 121.327 127.156 121.593 126.969 121.94C126.782 122.287 126.689 122.687 126.689 123.14C126.689 123.58 126.782 123.98 126.969 124.34C127.156 124.687 127.416 124.96 127.749 125.16C128.082 125.347 128.462 125.44 128.889 125.44ZM143.681 128.2C142.761 128.2 141.941 127.98 141.221 127.54C140.514 127.1 139.954 126.5 139.541 125.74C139.141 124.98 138.941 124.113 138.941 123.14C138.941 122.167 139.141 121.3 139.541 120.54C139.954 119.78 140.514 119.18 141.221 118.74C141.941 118.3 142.761 118.08 143.681 118.08C144.348 118.08 144.948 118.207 145.481 118.46C146.028 118.713 146.474 119.067 146.821 119.52C147.181 119.96 147.381 120.467 147.421 121.04V125.14C147.381 125.713 147.188 126.233 146.841 126.7C146.494 127.153 146.048 127.52 145.501 127.8C144.954 128.067 144.348 128.2 143.681 128.2ZM144.221 125.44C144.661 125.44 145.041 125.347 145.361 125.16C145.681 124.96 145.934 124.687 146.121 124.34C146.308 123.993 146.401 123.593 146.401 123.14C146.401 122.687 146.308 122.293 146.121 121.96C145.948 121.613 145.694 121.34 145.361 121.14C145.041 120.94 144.668 120.84 144.241 120.84C143.814 120.84 143.434 120.94 143.101 121.14C142.781 121.34 142.521 121.613 142.321 121.96C142.134 122.307 142.041 122.7 142.041 123.14C142.041 123.58 142.134 123.973 142.321 124.32C142.508 124.667 142.768 124.94 143.101 125.14C143.434 125.34 143.808 125.44 144.221 125.44ZM149.281 128H146.281V125.38L146.741 123.02L146.221 120.66V113.48H149.281V128ZM156.235 128.22C155.182 128.22 154.242 128.007 153.415 127.58C152.602 127.14 151.962 126.533 151.495 125.76C151.029 124.987 150.795 124.113 150.795 123.14C150.795 122.167 151.022 121.3 151.475 120.54C151.942 119.767 152.569 119.16 153.355 118.72C154.142 118.28 155.029 118.06 156.015 118.06C156.975 118.06 157.822 118.267 158.555 118.68C159.289 119.093 159.862 119.667 160.275 120.4C160.702 121.133 160.915 121.973 160.915 122.92C160.915 123.093 160.902 123.28 160.875 123.48C160.862 123.667 160.829 123.887 160.775 124.14L152.395 124.16V122.06L159.475 122.04L158.155 122.92C158.142 122.36 158.055 121.9 157.895 121.54C157.735 121.167 157.495 120.887 157.175 120.7C156.869 120.5 156.489 120.4 156.035 120.4C155.555 120.4 155.135 120.513 154.775 120.74C154.429 120.953 154.155 121.26 153.955 121.66C153.769 122.06 153.675 122.547 153.675 123.12C153.675 123.693 153.775 124.187 153.975 124.6C154.189 125 154.482 125.313 154.855 125.54C155.242 125.753 155.695 125.86 156.215 125.86C156.695 125.86 157.129 125.78 157.515 125.62C157.902 125.447 158.242 125.193 158.535 124.86L160.215 126.54C159.735 127.1 159.155 127.52 158.475 127.8C157.795 128.08 157.049 128.22 156.235 128.22ZM165.641 132.36C164.934 132.36 164.334 132.24 163.841 132C163.348 131.773 162.914 131.447 162.541 131.02L164.441 129.12C164.588 129.293 164.741 129.413 164.901 129.48C165.048 129.56 165.221 129.6 165.421 129.6C165.714 129.6 165.954 129.513 166.141 129.34C166.341 129.167 166.441 128.9 166.441 128.54V118.28H169.501V128.5C169.501 129.287 169.334 129.967 169.001 130.54C168.668 131.113 168.208 131.56 167.621 131.88C167.048 132.2 166.388 132.36 165.641 132.36ZM168.001 116.94C167.521 116.94 167.121 116.78 166.801 116.46C166.494 116.127 166.341 115.727 166.341 115.26C166.341 114.78 166.494 114.38 166.801 114.06C167.121 113.74 167.521 113.58 168.001 113.58C168.481 113.58 168.874 113.74 169.181 114.06C169.488 114.38 169.641 114.78 169.641 115.26C169.641 115.727 169.488 116.127 169.181 116.46C168.874 116.78 168.481 116.94 168.001 116.94ZM176.35 128.22C175.35 128.22 174.443 128 173.63 127.56C172.83 127.107 172.197 126.493 171.73 125.72C171.263 124.947 171.03 124.08 171.03 123.12C171.03 122.16 171.263 121.3 171.73 120.54C172.197 119.78 172.83 119.18 173.63 118.74C174.43 118.287 175.337 118.06 176.35 118.06C177.363 118.06 178.27 118.28 179.07 118.72C179.87 119.16 180.503 119.767 180.97 120.54C181.437 121.3 181.67 122.16 181.67 123.12C181.67 124.08 181.437 124.947 180.97 125.72C180.503 126.493 179.87 127.107 179.07 127.56C178.27 128 177.363 128.22 176.35 128.22ZM176.35 125.44C176.79 125.44 177.177 125.347 177.51 125.16C177.843 124.96 178.097 124.687 178.27 124.34C178.457 123.98 178.55 123.573 178.55 123.12C178.55 122.667 178.457 122.273 178.27 121.94C178.083 121.593 177.823 121.327 177.49 121.14C177.17 120.94 176.79 120.84 176.35 120.84C175.923 120.84 175.543 120.94 175.21 121.14C174.877 121.327 174.617 121.593 174.43 121.94C174.243 122.287 174.15 122.687 174.15 123.14C174.15 123.58 174.243 123.98 174.43 124.34C174.617 124.687 174.877 124.96 175.21 125.16C175.543 125.347 175.923 125.44 176.35 125.44ZM187.313 132.36C186.247 132.36 185.307 132.173 184.493 131.8C183.693 131.44 183.06 130.927 182.593 130.26L184.473 128.38C184.82 128.793 185.207 129.107 185.633 129.32C186.073 129.533 186.6 129.64 187.213 129.64C187.973 129.64 188.567 129.453 188.993 129.08C189.433 128.707 189.653 128.18 189.653 127.5V125.02L190.173 122.9L189.713 120.78V118.28H192.713V127.42C192.713 128.42 192.48 129.287 192.013 130.02C191.547 130.753 190.907 131.327 190.093 131.74C189.28 132.153 188.353 132.36 187.313 132.36ZM187.173 127.7C186.28 127.7 185.487 127.487 184.793 127.06C184.1 126.633 183.553 126.053 183.153 125.32C182.753 124.587 182.553 123.773 182.553 122.88C182.553 121.973 182.753 121.16 183.153 120.44C183.553 119.707 184.1 119.133 184.793 118.72C185.487 118.293 186.28 118.08 187.173 118.08C187.84 118.08 188.433 118.207 188.953 118.46C189.487 118.7 189.913 119.047 190.233 119.5C190.567 119.94 190.753 120.453 190.793 121.04V124.74C190.753 125.313 190.567 125.827 190.233 126.28C189.913 126.72 189.487 127.067 188.953 127.32C188.42 127.573 187.827 127.7 187.173 127.7ZM187.753 124.98C188.18 124.98 188.547 124.887 188.853 124.7C189.173 124.513 189.413 124.267 189.573 123.96C189.747 123.64 189.833 123.28 189.833 122.88C189.833 122.48 189.747 122.12 189.573 121.8C189.413 121.48 189.173 121.227 188.853 121.04C188.547 120.853 188.18 120.76 187.753 120.76C187.34 120.76 186.973 120.853 186.653 121.04C186.333 121.227 186.087 121.48 185.913 121.8C185.74 122.12 185.653 122.48 185.653 122.88C185.653 123.253 185.74 123.607 185.913 123.94C186.087 124.26 186.327 124.513 186.633 124.7C186.953 124.887 187.327 124.98 187.753 124.98ZM199.553 128.22C198.553 128.22 197.646 128 196.833 127.56C196.033 127.107 195.4 126.493 194.933 125.72C194.466 124.947 194.233 124.08 194.233 123.12C194.233 122.16 194.466 121.3 194.933 120.54C195.4 119.78 196.033 119.18 196.833 118.74C197.633 118.287 198.54 118.06 199.553 118.06C200.566 118.06 201.473 118.28 202.273 118.72C203.073 119.16 203.706 119.767 204.173 120.54C204.64 121.3 204.873 122.16 204.873 123.12C204.873 124.08 204.64 124.947 204.173 125.72C203.706 126.493 203.073 127.107 202.273 127.56C201.473 128 200.566 128.22 199.553 128.22ZM199.553 125.44C199.993 125.44 200.38 125.347 200.713 125.16C201.046 124.96 201.3 124.687 201.473 124.34C201.66 123.98 201.753 123.573 201.753 123.12C201.753 122.667 201.66 122.273 201.473 121.94C201.286 121.593 201.026 121.327 200.693 121.14C200.373 120.94 199.993 120.84 199.553 120.84C199.126 120.84 198.746 120.94 198.413 121.14C198.08 121.327 197.82 121.593 197.633 121.94C197.446 122.287 197.353 122.687 197.353 123.14C197.353 123.58 197.446 123.98 197.633 124.34C197.82 124.687 198.08 124.96 198.413 125.16C198.746 125.347 199.126 125.44 199.553 125.44ZM209.936 128.24C209.363 128.24 208.796 128.167 208.236 128.02C207.69 127.873 207.176 127.667 206.696 127.4C206.23 127.12 205.83 126.8 205.496 126.44L207.236 124.68C207.556 125.027 207.936 125.3 208.376 125.5C208.816 125.687 209.296 125.78 209.816 125.78C210.176 125.78 210.45 125.727 210.636 125.62C210.836 125.513 210.936 125.367 210.936 125.18C210.936 124.94 210.816 124.76 210.576 124.64C210.35 124.507 210.056 124.393 209.696 124.3C209.336 124.193 208.956 124.08 208.556 123.96C208.156 123.84 207.776 123.673 207.416 123.46C207.056 123.247 206.763 122.953 206.536 122.58C206.31 122.193 206.196 121.707 206.196 121.12C206.196 120.493 206.356 119.953 206.676 119.5C206.996 119.033 207.45 118.667 208.036 118.4C208.623 118.133 209.31 118 210.096 118C210.923 118 211.683 118.147 212.376 118.44C213.083 118.72 213.656 119.14 214.096 119.7L212.356 121.46C212.05 121.1 211.703 120.847 211.316 120.7C210.943 120.553 210.576 120.48 210.216 120.48C209.87 120.48 209.61 120.533 209.436 120.64C209.263 120.733 209.176 120.873 209.176 121.06C209.176 121.26 209.29 121.42 209.516 121.54C209.743 121.66 210.036 121.767 210.396 121.86C210.756 121.953 211.136 122.067 211.536 122.2C211.936 122.333 212.316 122.513 212.676 122.74C213.036 122.967 213.33 123.273 213.556 123.66C213.783 124.033 213.896 124.527 213.896 125.14C213.896 126.087 213.536 126.84 212.816 127.4C212.11 127.96 211.15 128.24 209.936 128.24Z" fill="white"/>
<path fill-rule="evenodd" clip-rule="evenodd" d="M122.757 56.2816V54.2031L117.011 56.3387H117V58.4715H117.011L122.757 60.6071V58.526L119.81 57.3997L122.757 56.2788V56.2816Z" fill="#F7DD43"/>
<path fill-rule="evenodd" clip-rule="evenodd" d="M156.036 60.5039V58.4254L158.98 57.3073L156.036 56.1892V54.1108L161.774 56.2463H161.787V58.3819H161.774L156.036 60.5066V60.5039ZM153.572 51.1699L150.198 62.0001H152.201L155.574 51.1699H153.572Z" fill="#F7DD43"/>
<path fill-rule="evenodd" clip-rule="evenodd" d="M131.199 53.9172C131.77 54.5429 132.069 55.3699 132.034 56.216V60.8299H130.031V56.6404C130.056 56.1725 129.906 55.7154 129.613 55.3509C129.335 55.0271 128.924 54.8476 128.497 54.8666C127.243 54.8666 126.615 55.7372 126.615 57.4756V60.8299H124.612V53.2561H126.615V53.939C127.251 53.3214 128.114 52.9922 129 53.0303C129.827 52.995 130.627 53.3187 131.199 53.9172V53.9172Z" fill="#F7DD43"/>
<path fill-rule="evenodd" clip-rule="evenodd" d="M134.585 50V60.8302H136.587V50H134.585Z" fill="#F7DD43"/>
<path fill-rule="evenodd" clip-rule="evenodd" d="M147.91 60.8306H146.239L144.602 56.369L142.948 60.8306H141.277L138.47 53.2432H140.611L142.189 57.7809L143.815 53.2432H145.38L147.007 57.7945L148.584 53.2432H150.725L147.915 60.8306H147.91Z" fill="#F7DD43"/>
<path d="M171.323 64.9981C169.397 64.9981 167.373 64.6331 165.787 63.754V48.2441C167.348 47.3899 169.372 47 171.323 47C173.275 47 175.251 47.365 176.81 48.2441V54.195H172.883V50.1456C172.42 49.9507 171.858 49.878 171.299 49.878C170.739 49.878 170.225 49.9507 169.737 50.1456V61.8525C170.2 62.0475 170.737 62.1201 171.299 62.1201C171.86 62.1201 172.395 62.0475 172.883 61.8525V57.805H176.81V63.7559C175.273 64.6102 173.25 64.9752 171.323 65V64.9981Z" fill="#F7DD43"/>
<path d="M184.175 64.9981C182.102 64.9981 180.103 64.5585 178.517 63.6565V48.3167C180.078 47.4395 182.079 47 184.175 47C186.272 47 188.223 47.4147 189.784 48.3167V63.6565C188.248 64.5585 186.224 64.9732 184.175 64.9981ZM185.859 50.1952C185.396 50.0003 184.834 49.9029 184.152 49.9029C183.47 49.9029 182.933 50.0003 182.469 50.1952V61.7799C182.931 61.9997 183.493 62.0971 184.152 62.0971C184.811 62.0971 185.371 61.9997 185.859 61.7799V50.1952Z" fill="#F7DD43"/>
<path d="M196.637 58.4127H195.588V64.7783H191.613V47.2198H196.637C199.028 47.2198 200.832 47.7071 202.246 48.7066V56.9259C200.856 57.9024 199.026 58.4127 196.637 58.4127ZM198.296 50.243C197.931 49.9755 197.441 49.8532 196.612 49.8532H195.538V55.7793H196.612C197.417 55.7793 197.904 55.657 198.296 55.4143V50.243Z" fill="#F7DD43"/>
<path d="M210.561 64.7783V58.4127H207.635V64.7783H203.685V48.2919C205.124 47.4376 207.147 47 209.099 47C211.05 47 213.049 47.4395 214.488 48.2919V64.7783H210.561ZM210.561 50.0481C210.146 49.8532 209.634 49.7557 209.097 49.7557C208.56 49.7557 208.048 49.8532 207.633 50.0481V55.6321H210.559V50.0481H210.561Z" fill="#F7DD43"/>
<defs>
<linearGradient id="paint0_linear_416_1726" x1="64.38" y1="38.6635" x2="71.4787" y2="22.7993" gradientUnits="userSpaceOnUse">
<stop stop-color="#858380"/>
<stop offset="1" stop-color="#A19F9C"/>
</linearGradient>
<linearGradient id="paint1_linear_416_1726" x1="67.6591" y1="-0.135545" x2="77.3067" y2="23.277" gradientUnits="userSpaceOnUse">
<stop stop-color="#9D9B98"/>
<stop offset="1" stop-color="#797775"/>
</linearGradient>
<linearGradient id="paint2_linear_416_1726" x1="76.1688" y1="18.6522" x2="48.6225" y2="62.322" gradientUnits="userSpaceOnUse">
<stop stop-color="#797775"/>
<stop offset="0.842522" stop-color="#F2EFEA"/>
<stop offset="1" stop-color="#F2EFEA"/>
</linearGradient>
<linearGradient id="paint3_linear_416_1726" x1="65.0764" y1="62.5393" x2="65.0764" y2="9.66136" gradientUnits="userSpaceOnUse">
<stop stop-color="#9D9B98"/>
<stop offset="1" stop-color="#F2EFEA"/>
</linearGradient>
<linearGradient id="paint4_linear_416_1726" x1="81.7145" y1="41.6332" x2="67.0125" y2="4.08632" gradientUnits="userSpaceOnUse">
<stop stop-color="#9D9B98"/>
<stop offset="1" stop-color="#F2EFEA"/>
</linearGradient>
<linearGradient id="paint5_linear_416_1726" x1="80.9059" y1="64.4483" x2="58.5642" y2="7.39056" gradientUnits="userSpaceOnUse">
<stop stop-color="#44433E"/>
<stop offset="1" stop-color="#F2EFEA"/>
</linearGradient>
<linearGradient id="paint6_linear_416_1726" x1="69.0828" y1="8.42657" x2="69.0828" y2="34.4376" gradientUnits="userSpaceOnUse">
<stop stop-color="#F2EFEA"/>
<stop offset="1" stop-color="#F2EFEA"/>
</linearGradient>
<linearGradient id="paint7_linear_416_1726" x1="61.6044" y1="7.21446" x2="69.7972" y2="2.33954" gradientUnits="userSpaceOnUse">
<stop stop-color="#FAF6F2"/>
<stop offset="1" stop-color="#FFFBF7"/>
</linearGradient>
<linearGradient id="paint8_linear_416_1726" x1="60.0828" y1="2.68246" x2="68.9732" y2="2.68246" gradientUnits="userSpaceOnUse">
<stop stop-color="#B0AEAB"/>
<stop offset="1" stop-color="#FAF6F2"/>
</linearGradient>
<linearGradient id="paint9_linear_416_1726" x1="82.9052" y1="8.24691" x2="70.2891" y2="1.95955" gradientUnits="userSpaceOnUse">
<stop stop-color="#FFFBF7"/>
<stop offset="0.527027" stop-color="#FFFBF7"/>
<stop offset="1" stop-color="#B4B2AF"/>
</linearGradient>
<linearGradient id="paint10_linear_416_1726" x1="62.6248" y1="1.46317" x2="77.4591" y2="1.46317" gradientUnits="userSpaceOnUse">
<stop stop-color="#CCC9C6"/>
<stop offset="1" stop-color="#FAF6F2"/>
</linearGradient>
<linearGradient id="paint11_linear_416_1726" x1="59.4618" y1="3.88416" x2="57.5806" y2="33.8343" gradientUnits="userSpaceOnUse">
<stop stop-color="#FFFBF7"/>
<stop offset="1" stop-color="#FFFBF7"/>
</linearGradient>
<linearGradient id="paint12_linear_416_1726" x1="63.6336" y1="47.7063" x2="79.8752" y2="47.7063" gradientUnits="userSpaceOnUse">
<stop stop-color="#DAD7D3"/>
<stop offset="1" stop-color="#FAF6F2"/>
</linearGradient>
<linearGradient id="paint13_linear_416_1726" x1="63.2352" y1="22.4122" x2="62.5906" y2="11.2217" gradientUnits="userSpaceOnUse">
<stop stop-color="#BBB8B5"/>
<stop offset="1" stop-color="#FAF6F2"/>
</linearGradient>
<linearGradient id="paint14_linear_416_1726" x1="69.3469" y1="6.17923" x2="69.3469" y2="66.3735" gradientUnits="userSpaceOnUse">
<stop stop-color="#DAD7D3"/>
<stop offset="0.512418" stop-color="#FFFBF7"/>
<stop offset="1" stop-color="#EEEBE7"/>
</linearGradient>
<linearGradient id="paint15_linear_416_1726" x1="69.3469" y1="2.64797" x2="69.3469" y2="62.8422" gradientUnits="userSpaceOnUse">
<stop stop-color="#DAD7D3"/>
<stop offset="0.512418" stop-color="#FFFBF7"/>
<stop offset="1" stop-color="#EEEBE7"/>
</linearGradient>
<linearGradient id="paint16_linear_416_1726" x1="72.1202" y1="63.3606" x2="63.0277" y2="29.0138" gradientUnits="userSpaceOnUse">
<stop stop-color="#FAF6F2"/>
<stop offset="0.512418" stop-color="#FFFBF7"/>
<stop offset="0.677314" stop-color="#FFFBF7"/>
<stop offset="0.90099" stop-color="#EBE7E3"/>
<stop offset="1" stop-color="#CCC9C6"/>
</linearGradient>
<linearGradient id="paint17_linear_416_1726" x1="61.6155" y1="8.56767" x2="55.6929" y2="17.9568" gradientUnits="userSpaceOnUse">
<stop stop-color="#791426"/>
<stop offset="0.534653" stop-color="#AF1C3B"/>
<stop offset="1" stop-color="#791426"/>
</linearGradient>
<linearGradient id="paint18_linear_416_1726" x1="60.6236" y1="7.94209" x2="54.7004" y2="17.3319" gradientUnits="userSpaceOnUse">
<stop stop-color="#791426"/>
<stop offset="0.534653" stop-color="#AF1C3B"/>
<stop offset="1" stop-color="#791426"/>
</linearGradient>
<linearGradient id="paint19_linear_416_1726" x1="63.1937" y1="9.56332" x2="57.2713" y2="18.9522" gradientUnits="userSpaceOnUse">
<stop stop-color="#791426"/>
<stop offset="0.534653" stop-color="#AF1C3B"/>
<stop offset="1" stop-color="#791426"/>
</linearGradient>
<linearGradient id="paint20_linear_416_1726" x1="63.3225" y1="88.0769" x2="86.0759" y2="38.4397" gradientUnits="userSpaceOnUse">
<stop stop-color="#791426"/>
<stop offset="0.534653" stop-color="#AF1C3B"/>
<stop offset="1" stop-color="#791426"/>
</linearGradient>
<linearGradient id="paint21_linear_416_1726" x1="63.045" y1="25.7714" x2="89.4941" y2="80.1451" gradientUnits="userSpaceOnUse">
<stop stop-color="#791426"/>
<stop offset="0.534653" stop-color="#AF1C3B"/>
<stop offset="1" stop-color="#791426"/>
</linearGradient>
<clipPath id="clip0_416_1726">
<rect width="76" height="99" fill="white" transform="translate(32)"/>
</clipPath>
</defs>
</svg>
