<svg width="76" height="99" viewBox="0 0 76 99" fill="none" xmlns="http://www.w3.org/2000/svg">
<g clip-path="url(#clip0_410_1402)">
<path d="M36.9075 34.266C34.8267 30.4638 32.9052 26.944 31.672 23.5641C31.2632 22.1934 30.942 20.8436 30.7434 19.5501C30.0442 15.8478 30.3363 13.6732 31.6353 10.6766C31.6629 10.614 31.6921 10.5495 31.7221 10.485C32.3403 10.1008 33.1922 9.74288 34.1684 9.63842C36.3435 9.40498 40.0371 10.0054 41.4497 14.3309C42.9398 18.9007 39.7585 27.8105 36.9075 34.266ZM50.3412 8.49574C50.1994 8.19871 49.6729 7.12416 49.4919 6.75629C49.4577 6.68816 49.4351 6.64365 49.4301 6.63366C47.1324 2.04022 47.0548 2.9104 45.6205 2.63427C45.5671 2.62428 45.5121 2.60884 45.4587 2.5943C43.825 2.18465 41.0175 1.02652 39.6458 0.477887C38.2283 -0.087096 34.4979 1.12825 32.09 1.38622C31.4776 1.45071 31.0029 1.57334 30.6241 1.73411C29.5169 2.20191 29.2416 2.99669 28.7844 3.64797C28.5174 4.02947 28.3305 4.14483 28.0827 4.20841C28.0777 4.20932 28.071 4.20932 28.0677 4.21114C26.1946 4.94234 21.7692 10.8856 22.7254 19.0869C22.7938 19.8917 22.949 20.6756 23.1484 21.4431C24.9781 29.3138 31.1013 39.8696 32.6048 42.8652C31.4968 45.6411 29.1323 51.3409 28.3781 56.7091C28.3472 56.8908 28.1645 58.1243 28.1528 59.1598C28.0527 61.8884 28.5224 64.3855 29.9758 66.1785C29.985 66.1894 30.2612 66.5119 30.2737 66.5264C31.0171 67.3239 31.8931 67.8308 32.775 68.1351C34.0232 68.72 34.9727 68.393 35.8913 68.2232C36.301 68.4938 36.7298 68.7028 37.1662 68.8654C39.7927 69.8536 42.7312 69.0606 44.1079 68.2232C45.9543 67.5701 46.7961 66.3901 47.3234 64.5608C47.8549 62.8377 48.6684 59.3215 46.827 54.1177C46.0002 51.8704 44.3365 48.3534 41.7734 43.2413L41.7567 43.2113C43.8117 38.9776 49.3142 28.5018 50.2937 25.4407C50.3471 25.279 50.393 25.1228 50.4389 24.9665C52.1025 20.3322 53.1888 14.2019 50.3412 8.49574" fill="white"/>
<path d="M35.3464 48.4619C34.7531 47.2166 33.4549 44.5034 33.1779 43.8585C30.1609 50.2586 29.4167 57.3663 29.3691 59.4319C29.4008 61.0196 29.3691 63.4276 31.4316 64.4531C34.1683 60.3956 29.3691 54.3334 35.3464 48.4619Z" fill="#ACA9A6"/>
<path d="M42.2728 27.1184C42.9786 23.3025 44.7382 20.0489 42.5039 14.7451C40.6633 10.3788 37.4953 8.81642 34.168 9.63937H34.1688C36.3456 9.40593 40.0401 10.0045 41.4509 14.3318C42.9411 18.9016 39.7597 27.8115 36.9088 34.267C36.8437 34.4187 36.7728 34.5704 36.706 34.7212C38.0919 37.3399 39.2257 39.5935 40.579 42.2549C40.579 42.2549 42.4029 39.0503 43.1605 37.5988C41.6069 33.6802 41.8322 29.4955 42.2728 27.1184Z" fill="#ACA9A6"/>
<path d="M50.9165 14.6729C50.9149 14.5411 50.9149 14.4067 50.9124 14.2805V14.2587C50.9115 14.2014 50.909 14.1506 50.909 14.0942C50.8898 13.5229 50.8531 13.0288 50.8031 12.62C50.7497 12.2176 50.6854 11.9179 50.6262 11.7035C50.3625 10.8433 49.7301 9.81509 49.0059 8.82591C47.5892 6.89026 45.8204 5.11174 45.7653 5.05542C45.6535 5.10901 45.5392 5.17351 45.4207 5.24799C43.9097 6.23262 43.9448 7.56969 38.6976 4.83379C37.905 4.4205 36.666 4.6821 35.9727 4.73206C41.2782 9.02211 47.1011 8.83863 50.9165 14.6729Z" fill="#BCBAB7"/>
<path d="M46.8468 30.8194C47.0495 30.486 47.2331 30.1763 47.3975 29.8947C47.5935 29.545 47.7796 29.1871 47.9556 28.8247C48.0357 28.6603 48.1133 28.4941 48.1892 28.3269C50.3435 23.6063 50.9476 18.0982 50.9167 14.672C48.2168 6.13182 40.3448 9.94046 37.8234 4.61582C37.7817 4.61854 35.8936 4.73844 35.8535 4.74298C35.977 4.91466 36.1047 5.08361 36.239 5.25256C37.2385 6.49516 39.5797 9.01669 42.0977 9.65979C44.6174 10.3038 46.73 10.7035 48.8559 14.1506C50.9818 17.6004 48.7207 22.4609 46.73 27.2342C45.9357 29.1381 45.8564 31.051 45.7405 32.9395C46.0642 32.4526 46.1343 31.8858 46.5181 31.3244C46.6299 31.1591 46.7392 30.9902 46.8468 30.8194Z" fill="#CCC9C6"/>
<path d="M48.8556 14.1518C46.7289 10.7028 44.6172 10.3032 42.0975 9.66006C39.5786 9.01787 37.2383 6.49452 36.2387 5.25192C36.1044 5.08479 35.9768 4.91403 35.8533 4.74417C34.1162 4.92856 32.7228 6.44366 31.7825 8.61276C31.4596 9.3585 31.1893 10.1805 30.9766 11.0507C31.6724 10.3949 32.8497 9.77905 34.1687 9.63917C37.4944 8.81531 40.6641 10.3776 42.5038 14.7458C44.739 20.0478 42.9786 23.3032 42.2719 27.1173C41.8313 29.4944 41.6069 33.6791 43.1596 37.5977C43.6994 36.5631 44.2826 35.1324 45.7402 32.9406C45.8562 31.0504 45.9346 29.1374 46.7289 27.2354C48.7205 22.4612 50.9807 17.5998 48.8556 14.1518Z" fill="#BBB8B5"/>
<path d="M35.9743 4.73081C35.9325 4.73353 35.8925 4.73991 35.8516 4.74173C34.1145 4.92885 32.7228 6.44121 31.7809 8.61212C31.4588 9.35877 31.1877 10.1799 30.9766 11.0519C31.186 10.8548 31.4355 10.6622 31.7208 10.4851C32.3407 10.1018 33.1926 9.743 34.1688 9.63854C36.3439 9.40601 40.0392 10.0055 41.4492 14.3301C42.9402 18.9008 39.7588 27.8106 36.9079 34.2662C38.2921 36.8849 39.1406 38.5453 40.7091 41.333C40.7091 41.333 47.4915 30.0751 47.5683 29.908C49.7217 25.1874 50.9215 19.3977 50.6003 14.7588C50.088 7.31959 45.8203 5.11143 45.7652 5.05602C45.6534 5.1087 45.5383 5.1741 45.4207 5.24768C43.9105 6.23322 43.8713 7.80554 38.6241 5.07055C38.0626 4.77625 37.3142 4.70536 36.6801 4.70536C36.419 4.70536 36.1762 4.71627 35.9743 4.73081" fill="url(#paint0_linear_410_1402)"/>
<path d="M33.7809 43.1898C31.4322 46.7559 27.827 65.8146 33.0684 65.1469C41.2966 63.8925 34.8714 45.6205 33.7809 43.1898Z" fill="#9A9794"/>
<path d="M35.9743 4.73098C35.9325 4.73371 35.8925 4.74009 35.8516 4.74191C34.1145 4.92902 32.7228 6.44138 31.7809 8.6123C31.4588 9.35895 31.1877 10.1801 30.9766 11.0521C31.186 10.8549 31.4355 10.6624 31.7208 10.4853C32.3407 10.102 33.1926 9.74318 34.1688 9.63872C36.3439 9.40619 40.0392 10.0057 41.4492 14.3302C42.9402 18.901 39.7588 27.8108 36.9079 34.2663C38.2921 36.885 39.4843 39.5592 40.8401 42.2197C40.8401 42.2197 48.1131 28.4957 48.1882 28.3277C50.3433 23.6062 51.2686 18.0789 50.9173 14.6727C50.5585 11.211 49.937 9.97206 49.156 8.69585C48.8832 8.24895 45.8203 5.1116 45.7652 5.0562C45.6534 5.10888 45.5383 5.17428 45.4207 5.24785C43.9105 6.23339 43.8713 7.80571 38.6241 5.07072C38.0626 4.77642 37.3142 4.70554 36.6801 4.70554C36.419 4.70554 36.1762 4.71645 35.9743 4.73098" fill="url(#paint1_linear_410_1402)"/>
<g opacity="0.279999">
<path d="M39.2734 7.05076C37.0366 7.07619 35.4004 7.86915 35.347 8.43504C45.7963 8.80746 46.6348 16.7663 36.42 36.8777C32.547 44.5031 31.0084 51.5137 30.9893 56.2234V56.4005C31.0009 59.3698 31.6292 61.3927 32.6588 62.0294C33.0117 62.2474 33.3897 62.3501 33.7634 62.3564H33.8277C35.4438 62.3319 36.9398 60.4843 35.891 58.1236C34.5861 55.1879 35.6883 49.132 39.0265 42.5166C42.3638 35.8985 54.0304 17.7064 46.8467 10.3153C44.458 7.85735 41.7047 7.07528 39.4912 7.05076H39.2734Z" fill="url(#paint2_linear_410_1402)"/>
</g>
<g opacity="0.330002">
<path d="M34.4189 8.19173C35.0071 7.98372 35.6212 7.86836 36.2353 7.79842C36.8518 7.72666 37.4743 7.71485 38.0933 7.75936C39.3323 7.84928 40.5747 8.17901 41.6852 8.83483C42.7973 9.48338 43.7402 10.4707 44.4201 11.6379C44.7555 12.2247 45.0309 12.8497 45.2595 13.4937C45.4697 14.1422 45.65 14.8017 45.7751 15.4775C46.2849 18.1879 46.0513 20.9947 45.534 23.6661C45.0083 26.3475 44.1982 28.9453 43.2529 31.4559C42.3151 33.9729 41.2221 36.4027 40.1116 38.8053L38.4221 42.385L36.7651 45.9602C35.6988 48.3509 34.6684 50.758 33.9558 53.2632C33.7756 53.889 33.6271 54.5212 33.5103 55.1616C33.3851 55.7975 33.2959 56.4433 33.2642 57.09C33.1916 58.3844 33.3234 59.7042 33.8007 60.9359L33.6571 61.0186C32.963 59.875 32.6209 58.4789 32.5425 57.0927C32.4565 55.703 32.6109 54.3114 32.867 52.9626C33.1132 51.6082 33.4928 50.2966 33.9024 49.0068C34.3121 47.7151 34.7927 46.458 35.2883 45.2136C37.2907 40.2486 39.6477 35.5335 41.7377 30.7302C42.2534 29.5257 42.7656 28.3222 43.2187 27.095C43.6801 25.8706 44.1031 24.6307 44.4443 23.3672C45.1318 20.8493 45.5215 18.1952 45.1685 15.5955C45.0909 14.947 44.9291 14.3112 44.7555 13.6853C44.562 13.0667 44.3234 12.4654 44.0288 11.8968C43.4273 10.7687 42.5737 9.79857 41.5308 9.12913C40.4921 8.45514 39.2956 8.07728 38.08 7.93649C37.4709 7.86654 36.856 7.8511 36.2428 7.89379C35.6304 7.9383 35.0171 8.0255 34.4231 8.20717L34.4189 8.19173Z" fill="#797775"/>
</g>
<g opacity="0.550003">
<path d="M28.248 57.9095C28.248 61.8208 29.9142 64.108 31.2425 65.0363C31.6672 65.3333 32.3839 65.5413 33.144 65.5586H33.345C33.6554 65.5513 33.9691 65.5123 34.2703 65.4324C36.3178 64.8892 37.868 62.6529 37.9039 58.4918V58.192C37.8897 56.5298 37.6402 54.5714 37.0954 52.3051C36.9135 51.5466 35.4601 48.115 35.1714 47.5073C34.5782 46.2629 33.2132 43.3344 32.9354 42.6895C30.5617 48.531 28.2956 55.8403 28.248 57.9095" fill="url(#paint3_linear_410_1402)"/>
</g>
<g opacity="0.440002">
<path d="M31.7818 8.61236C31.4598 9.35901 31.1903 10.1801 30.9775 11.0521C31.1853 10.855 31.4373 10.6625 31.7226 10.4854C32.3417 10.102 33.1936 9.74324 34.1681 9.63878C36.3449 9.40625 40.0385 10.0057 41.451 14.3303C42.9411 18.901 39.7598 27.8109 36.9089 34.2664C38.293 36.8851 39.5746 39.3131 40.9271 41.9736C40.9271 41.9736 48.1141 28.4958 48.1892 28.3277C50.3443 23.6071 52.36 14.759 49.0076 8.8258C47.8162 6.71756 46.1066 5.13617 46.0499 5.08076C45.8263 5.11709 45.5393 5.17434 45.4216 5.24791C43.9115 6.23345 44.4363 7.03367 39.089 4.53939C38.6518 4.33501 38.1912 4.24417 37.724 4.24417C35.2544 4.24417 32.5736 6.78843 31.7818 8.61236" fill="url(#paint4_linear_410_1402)"/>
</g>
<g opacity="0.440002">
<path d="M37.7335 4.6587C35.9939 4.67233 34.0457 6.21927 33.3207 7.10489C32.478 8.13585 31.1898 10.1805 30.977 11.0525C31.6728 10.3976 32.8493 9.77991 34.1675 9.63912C36.3443 9.40659 40.0379 10.0061 41.4505 14.3306C42.9406 18.9014 39.7593 27.8112 36.9083 34.2667C36.8416 34.4184 36.7732 34.571 36.7056 34.7209C36.4194 35.2741 33.0537 42.3209 32.9352 42.6897C30.856 49.2188 28.8444 55.9087 28.7969 57.977C28.7969 61.5186 29.9499 65.4934 33.1838 65.5488H33.3207C33.6202 65.5443 33.9356 65.5061 34.2701 65.4326C37.3472 64.7486 38.1123 59.2759 37.6501 56.4564C37.6501 56.4564 36.6572 51.8748 36.6105 51.7794C36.6105 51.7794 42.7195 38.4433 43.16 37.5985C43.6974 36.5639 48.1135 28.4961 48.1886 28.3281C50.3437 23.6075 51.1238 18.0921 50.9169 14.6731C50.8443 13.4696 49.7305 9.81623 49.0071 8.82614C47.5896 6.89049 45.5388 5.17468 45.4211 5.24825C43.911 6.23379 44.1487 7.04676 38.6997 4.83406C38.4085 4.71598 38.1023 4.66143 37.7886 4.6587H37.7335Z" fill="url(#paint5_linear_410_1402)"/>
</g>
<path d="M34.1103 8.99863C33.8274 9.03042 32.8396 9.24025 32.2388 9.45734L31.9143 9.99866L31.7207 10.4846C32.3406 10.1013 33.1925 9.74253 34.1687 9.63808C36.3438 9.40554 40.0391 10.005 41.4491 14.3296C42.9401 18.9003 39.7587 27.8102 36.9078 34.2657C36.8461 34.4065 36.7826 34.5455 36.7209 34.6854C37.1798 35.105 37.5411 35.4238 37.5411 35.4238C37.627 35.2694 37.6796 35.1423 37.7563 34.9833C40.6915 28.3234 43.565 18.8913 42.0065 14.1161C41.3999 12.2604 40.352 10.8707 38.891 9.98779C38.7992 9.93329 38.2444 9.64172 38.0517 9.56179C37.9582 9.52001 37.8648 9.48186 37.7705 9.44553C37.5878 9.3765 37.0196 9.2075 36.9262 9.1848C36.5707 9.09578 36.2019 9.03219 35.8282 8.99586C35.5495 8.96679 35.265 8.95411 34.9838 8.95411C34.6893 8.95411 34.3939 8.96774 34.1103 8.99863" fill="url(#paint6_linear_410_1402)"/>
<path d="M40.7096 41.3327C40.481 40.9158 40.345 40.6869 40.3442 40.686C40.2582 40.5279 40.1773 40.378 40.0939 40.2264C36.9301 34.0333 33.5234 28.6406 31.6712 23.5648C31.2632 22.1941 30.942 20.8434 30.7426 19.5518C30.0442 15.8476 30.3363 13.673 31.6353 10.6774C32.8843 7.79432 36.6614 4.19641 38.7748 5.29822C43.3319 7.67351 43.9385 6.5272 45.0373 5.55165C45.0715 5.52349 45.1575 5.45446 45.1925 5.41903C45.2167 5.39905 45.3561 5.30095 45.3794 5.28278C57.3272 15.2808 44.5192 34.6047 40.7096 41.3327ZM33.42 64.7622C33.1054 64.8158 32.8042 64.8249 32.5164 64.7922C32.04 64.7232 31.5627 64.5197 31.1064 64.1773C30.4672 63.6977 29.9925 62.9892 29.748 62.1871C29.0063 59.7682 29.1615 54.9559 33.1296 44.0586C33.5426 45.0378 33.9314 45.9588 34.1025 46.3367C36.3986 51.3952 36.9501 56.035 36.9526 58.8054C36.7048 62.2925 35.1612 64.4071 33.42 64.7622M50.3412 8.49555C50.1994 8.19943 49.6738 7.12578 49.4919 6.75609C49.4577 6.68706 49.4351 6.64256 49.4301 6.63257C47.1324 2.04003 47.0548 2.91203 45.6189 2.6359C45.568 2.62591 45.5121 2.60865 45.4587 2.59503C43.825 2.18628 41.0158 1.02633 39.6442 0.479516C38.2283 -0.0863757 34.4979 1.12807 32.09 1.38513C31.476 1.45143 31.0029 1.57315 30.6241 1.73301C29.5169 2.20171 29.2416 2.99651 28.7844 3.64778C28.5174 4.02837 28.3288 4.14554 28.0819 4.20731C28.0777 4.20913 28.071 4.20913 28.0677 4.21186C26.1946 4.94216 21.7692 10.8863 22.7254 19.0858C22.7922 19.8906 22.949 20.6754 23.1476 21.4438C24.9781 29.3136 31.1013 39.8712 32.6048 42.8651C31.4968 45.6418 29.1323 51.3407 28.3781 56.7081C28.3472 56.8897 28.1645 58.126 28.1528 59.1578V59.1596C28.0518 61.8883 28.5207 64.3871 29.9758 66.1792C29.985 66.1892 30.2612 66.5126 30.2745 66.5271C31.0162 67.3228 31.8931 67.8315 32.7759 68.1367C34.0232 68.7208 34.9727 68.3928 35.8896 68.2221C36.301 68.4946 36.7298 68.7017 37.167 68.8652C39.7927 69.8544 42.7312 69.0596 44.1079 68.2221C45.9543 67.5699 46.7945 66.39 47.3234 64.5615C47.8549 62.8393 48.6684 59.3213 46.8278 54.1184C45.9993 51.8703 44.3365 48.3523 41.7734 43.2411L41.7567 43.2111C43.8109 38.9774 49.3133 28.5025 50.2945 25.4405C50.3471 25.2797 50.393 25.1235 50.4389 24.9682C52.1025 20.3329 53.1888 14.2008 50.3412 8.49555" fill="#EFECE8"/>
<path d="M45.3916 33.2652C45.2189 33.5686 44.7783 34.2862 44.2302 35.1709C42.8635 37.6879 41.5645 39.8225 40.7109 41.3303C40.9888 41.8181 41.6079 42.9163 41.8723 43.4395C41.8381 43.3731 41.8064 43.3087 41.7739 43.2414L41.7564 43.2115C41.8882 42.9408 42.035 42.6428 42.1936 42.3222C42.1994 40.62 44.8593 34.5877 45.3916 33.2652Z" fill="#DAD7D3"/>
<path d="M39.6273 1.60417C38.6186 1.01557 37.3312 1.06281 36.1039 1.29625C35.7292 1.368 34.834 1.55512 34.834 1.55512C34.834 1.55512 36.6437 2.03926 38.0887 2.59516C39.0199 2.98302 40.5818 3.63975 42.464 2.55883L42.4991 2.47072C41.6314 2.3699 40.5859 2.1637 39.6273 1.60417Z" fill="#BBB8B5"/>
<path d="M33.7382 2.06927C33.3243 2.24821 32.9622 2.40533 32.7052 2.55975C29.3095 4.60986 28.345 6.63907 28.184 6.80348C28.0872 7.51743 27.9387 8.06518 27.8652 8.93355C28.4935 9.28598 31.5397 8.64015 33.5646 6.90432C33.8158 6.67542 34.0802 6.45653 34.3556 6.24852C34.4624 6.1586 34.56 6.10407 34.6417 6.03685C34.6551 6.0314 34.6668 6.00327 34.6793 5.99782C35.8374 4.87149 37.1998 2.11016 38.4739 2.79232C38.5757 2.84682 38.6766 2.89676 38.7751 2.94218C38.6249 2.84771 38.4739 2.75418 38.3212 2.66425C37.4084 2.13106 36.4423 1.74228 35.3927 1.74228C34.8645 1.74228 34.3139 1.84128 33.7382 2.06927Z" fill="url(#paint7_linear_410_1402)"/>
<path d="M28.7169 4.36043C28.5659 4.77009 28.4407 5.16522 28.3556 5.67206C28.2964 6.01996 28.2396 6.39964 28.1846 6.80566C30.3255 3.91353 32.4831 2.67638 32.7067 2.56102C32.957 2.42659 33.6445 1.91338 33.9499 1.80348C31.6271 2.48927 30.3305 3.52022 28.943 3.97712C28.8812 4.03797 28.7528 4.26415 28.7169 4.36043Z" fill="#F6F2EE"/>
<path d="M40.0925 5.36308C36.5432 3.19671 34.7135 5.95168 34.7126 5.95259C34.7018 5.95622 34.691 5.99437 34.6809 5.99891C33.4194 7.22698 32.1571 8.93828 31.6348 10.6777C32.8854 7.79378 36.6625 4.19587 38.7759 5.29859C43.7736 7.90278 44.0247 6.27959 45.3805 5.28315C44.3902 5.93442 43.5708 7.48494 40.0925 5.36308Z" fill="#EBE7E3"/>
<path d="M45.0306 5.4753C42.7011 6.53623 41.1284 4.45705 38.7755 2.94377C38.6762 2.89654 38.5761 2.8484 38.4743 2.79208C36.8399 1.90555 34.089 6.60617 34.0957 6.60254C34.6213 6.18107 36.5428 3.1972 40.0921 5.36357C43.5697 7.48544 44.0878 6.28008 45.0331 5.55523C45.0806 5.5198 45.3802 5.28364 45.3802 5.28364C45.3802 5.28364 45.0781 5.43533 45.0331 5.47348L45.0306 5.4753Z" fill="#FFFBF7"/>
<path d="M33.5647 6.90458C31.5381 8.58227 28.4936 9.28532 27.8661 8.93471C27.59 12.2492 26.9275 16.5347 27.6016 21.377C27.8962 23.4916 28.29 25.7425 28.617 27.9697C27.786 20.8557 27.61 12.3155 33.5647 6.90458Z" fill="#EFECE8"/>
<path d="M30.6243 1.73371C29.5171 2.20241 29.2418 2.99629 28.7845 3.64757C28.5159 4.02907 28.329 4.14624 28.082 4.20801C28.2514 4.16895 28.4516 4.11717 28.6794 4.05632C29.2977 3.88737 29.8216 3.63757 30.4349 3.34327C30.9981 3.07259 31.6355 2.76558 32.454 2.40224C32.9087 2.20059 33.8699 1.82 34.3763 1.67103C34.8894 1.51934 36.2227 1.27228 36.2953 1.25683C36.2953 1.25683 36.8076 1.18508 36.9736 1.15783C36.926 1.16146 31.3318 1.50935 30.6243 1.73371Z" fill="#EFECE8"/>
<path d="M36.8336 1.16694C36.7151 1.17603 31.3311 1.50935 30.6244 1.73371C29.5181 2.20241 29.2419 2.99722 28.7847 3.64668C28.516 4.02908 28.3291 4.14624 28.083 4.20801C28.2515 4.16895 28.4518 4.11811 28.6779 4.05544C29.297 3.88739 29.8218 3.63669 30.435 3.34148C30.9974 3.0717 31.6356 2.76651 32.455 2.40226C32.908 2.20061 33.8692 1.8182 34.3748 1.66923C34.8896 1.51936 36.1711 1.27683 36.2946 1.25776C36.4648 1.23141 36.8077 1.18417 36.9737 1.15874C36.9262 1.16056 36.8795 1.1624 36.8336 1.16694" fill="url(#paint8_linear_410_1402)"/>
<path d="M44.8952 66.7321C44.8401 66.8583 44.7967 66.9682 44.74 67.0772C44.5456 67.4924 44.3345 67.8775 44.1084 68.2227C45.9656 67.565 46.7966 66.4087 47.3239 64.5603C45.3566 66.8093 44.8952 66.7321 44.8952 66.7321Z" fill="#D2CFCB"/>
<path d="M40.5796 67.3484C39.1003 66.6427 37.9114 68.027 37.168 68.8663C39.7945 69.8536 42.7322 69.0597 44.1097 68.2213C44.3341 67.8771 44.546 67.4929 44.7404 67.0777C43.9637 68.4838 42.0105 68.0315 40.5796 67.3484Z" fill="#DEDBD7"/>
<path d="M36.0334 64.9501C36.7827 63.3442 37.1798 60.4348 36.9537 58.8052C36.7026 62.2814 35.1591 64.406 33.422 64.7612C33.1074 64.8157 32.8045 64.8238 32.5184 64.7911C32.0411 64.7221 31.5647 64.5195 31.1067 64.1771C31.0307 64.1199 30.9581 64.0581 30.8864 63.9954C29.5606 63.5658 28.4935 62.3432 28.1798 60.8462C28.1773 60.8308 28.1714 60.8181 28.1689 60.8035C28.1823 61.047 28.2032 61.2895 28.2299 61.5284L28.2349 61.5802C28.3166 62.3032 28.4543 62.9972 28.6595 63.6503C30.1205 66.5306 34.3247 68.6125 36.0334 64.9501Z" fill="#EBE7E3"/>
<path d="M33.4209 64.7612C33.1063 64.8157 32.8051 64.8239 32.5173 64.7912C32.0417 64.7221 31.5636 64.5196 31.1073 64.1771C30.7577 63.9137 30.4565 63.5831 30.2145 63.2034C29.0156 61.8518 28.3548 59.4411 28.2488 57.8043L28.2446 57.7443V57.7452V57.7443V57.747C28.1996 58.1812 28.1587 58.6908 28.1537 59.1586V59.1604C28.117 60.1514 28.1562 61.1115 28.2897 62.0198C28.2947 62.0362 28.2972 62.0534 28.2997 62.0725C29.6271 64.8202 33.3107 67.5607 35.7629 62.9327C35.1254 63.9564 34.2978 64.5822 33.4209 64.7612Z" fill="#F2EFEA"/>
<path d="M49.4317 6.63254C47.134 2.0391 47.0564 2.91019 45.6205 2.63497C43.6764 2.74851 41.5038 4.22546 38.7764 2.94289C42.6152 5.44444 45.8482 0.0480335 49.4843 6.73881C49.4868 6.74426 49.5293 6.83146 49.5327 6.83691C49.5168 6.80694 49.5051 6.77969 49.4918 6.75607C49.4593 6.68704 49.4367 6.64253 49.4317 6.63254Z" fill="#E7E4E0"/>
<path d="M45.38 5.28254C45.4017 5.268 45.4259 5.25257 45.4484 5.23713C46.3103 4.61946 47.9924 4.29337 49.4925 6.75586C47.289 2.6938 45.2357 3.06711 43.1056 3.44225C41.7148 3.6875 40.2914 3.93185 38.7754 2.94268C40.9105 4.44052 43.3384 6.66138 45.38 5.28254" fill="url(#paint9_linear_410_1402)"/>
<path d="M32.7763 68.1357C33.7416 67.479 34.5651 66.5607 35.2201 65.4952C33.3953 67.321 29.4447 66.7287 28.2842 61.9863C28.517 63.5895 29.0443 65.0292 29.9762 66.1783C29.9854 66.1901 30.2616 66.5126 30.2749 66.5262C31.0166 67.3237 31.8935 67.8305 32.7763 68.1357Z" fill="#CCC9C6"/>
<path d="M39.6451 0.479288C38.2283 -0.0866038 34.4988 1.12965 32.0901 1.3858C31.4769 1.4512 31.0021 1.57474 30.625 1.7337C32.0492 1.3967 32.1477 1.73188 36.3202 1.22412C36.3411 1.22049 36.8675 1.16508 37.0019 1.1569C37.9397 1.0906 38.8641 1.15963 39.6267 1.60471C40.5854 2.16334 41.4898 2.3995 42.3583 2.50124C43.4388 2.62659 44.4634 2.5412 45.4579 2.5957C43.8259 2.18604 41.0167 1.0261 39.6451 0.479288Z" fill="#F2EFEA"/>
<path d="M38.5504 0.332044C36.7941 0.361111 34.0199 1.18044 32.0909 1.38663C31.4769 1.45112 31.003 1.57465 30.625 1.73452C32.0651 1.42023 32.2102 1.73093 36.3219 1.22408C36.3411 1.22044 36.8692 1.16502 37.001 1.15594C37.9405 1.09054 38.8633 1.15956 39.6267 1.60373C40.5854 2.16417 41.4906 2.39854 42.3583 2.49937C43.0099 2.57658 43.6399 2.57658 44.2573 2.57477C44.6636 2.57477 45.0633 2.57474 45.4596 2.59473C43.8251 2.18598 41.0167 1.02787 39.6467 0.479238C39.4031 0.382954 39.0952 0.338402 38.7356 0.332044H38.5504Z" fill="url(#paint10_linear_410_1402)"/>
<path d="M42.358 2.49952L42.2445 2.5622C40.6893 3.47598 39.2526 3.05179 38.3223 2.66393C38.4741 2.75295 38.6268 2.8456 38.7753 2.9437C41.5028 4.22626 43.6754 2.7475 45.6194 2.63395C45.5685 2.62396 45.5126 2.60852 45.4592 2.59399C44.4647 2.53949 43.4401 2.62578 42.358 2.49952Z" fill="#EBE7E3"/>
<path d="M45.3918 54.333C43.6255 45.8483 39.7825 40.3238 36.3976 35.7976C33.5241 31.959 31.9614 27.8188 31.2422 24.0728C31.3131 24.9321 31.3782 25.8332 31.4316 26.7506C32.0865 31.9544 33.8687 38.1356 39.1117 45.1298C43.8758 51.4836 44.8845 52.3501 45.3918 54.333Z" fill="#FFFBF7"/>
<path d="M49.5801 6.9359C49.5801 6.93772 49.6352 7.07487 49.6352 7.07487C49.6485 7.10757 49.9656 7.92235 49.9773 7.95414C50.8625 10.2159 49.9472 12.0789 49.772 12.3995C51.0494 17.32 49.7103 22.9498 47.6361 28.0674C46.7325 30.3091 46.7659 32.3184 46.5039 33.7354C46.5064 33.7281 46.5106 33.7208 46.5131 33.7154C48.236 30.2464 49.8112 26.9474 50.2943 25.4414C50.3469 25.2797 50.3928 25.1234 50.4387 24.9672C52.1015 20.3329 53.1886 14.2017 50.3419 8.49642C50.2176 8.23845 49.8054 7.39552 49.5801 6.9359Z" fill="#EBE7E3"/>
<path d="M45.3799 5.28279C46.6381 6.33645 47.5116 7.57905 48.2609 8.81348C48.0064 6.85602 47.5525 4.91309 46.0482 5.07932C45.8588 5.10203 45.6827 5.13927 45.5025 5.22102C45.4967 5.22284 45.4808 5.19649 45.3799 5.28279Z" fill="#DEDBD7"/>
<path d="M50.0165 7.91168C50.0048 7.87989 49.122 6.4856 48.6198 5.92879C48.0674 5.27752 47.2665 4.88966 46.5656 4.90964C45.9198 4.92781 45.6662 5.11583 45.466 5.22302C45.4343 5.23846 45.3975 5.27025 45.3809 5.28297C47.5335 4.60989 47.944 6.87618 48.2618 8.81184C48.9535 9.9518 49.4499 11.1544 49.7728 12.4043C49.8955 12.1536 50.8107 10.138 50.0165 7.91168Z" fill="#CCC9C6"/>
<path d="M37.167 68.8652C38.1023 68.0332 38.8724 67.1258 39.8578 67.1612C39.1486 67.1285 36.5029 67.7471 35.8896 68.2221C36.3018 68.4928 36.7307 68.7017 37.167 68.8652Z" fill="#D2CFCB"/>
<path d="M46.2088 60.0888C46.1813 59.2967 46.0995 58.5128 45.9652 57.7553C45.6974 56.2456 45.211 54.8404 44.4625 53.6905C41.7034 49.454 35.0904 41.6433 33.375 35.5584C33.8731 39.3724 33.0237 43.9586 34.4271 46.2113C34.9043 46.8807 35.3657 47.5411 35.8063 48.1878C39.172 52.5605 43.0892 55.0966 42.9657 61.2996C42.8998 64.5859 41.8844 65.7586 40.4001 67.2737C40.4577 67.2946 40.517 67.3191 40.5787 67.3482C42.0113 68.0276 43.9628 68.4827 44.7387 67.0775C45.7408 64.9438 46.3114 62.9682 46.2088 60.0888Z" fill="#EFECE8"/>
<path d="M43.2234 61.8253C44.1136 53.8474 39.8827 49.5737 35.852 44.5451C35.3856 43.9802 34.039 43.3371 34.5671 44.6614C36.8423 48.5554 38.36 52.3332 38.7204 53.9046C40.8455 63.1796 38.511 66.1135 35.8904 68.2227C36.5028 67.7467 39.1493 67.1281 39.8568 67.1617C40.0304 67.1672 40.2106 67.2026 40.4 67.2734C41.6073 66.0399 42.4491 65.3914 42.9247 63.4276C42.9923 63.1551 43.0523 62.8517 43.1132 62.5165C43.1525 62.3003 43.1958 62.0714 43.2234 61.8253Z" fill="#E7E4E0"/>
<path d="M40.1154 55.9948C39.1317 51.7057 36.7997 45.0104 32.6614 39.1643C32.598 39.3732 32.2326 40.6349 31.9297 41.5732C32.205 42.0901 32.4353 42.5261 32.6047 42.864C32.8174 43.3127 32.9543 43.6242 33.1295 44.0584C33.5425 45.0376 33.9321 45.9587 34.1023 46.3365C36.3993 51.395 36.9499 56.0339 36.9524 58.8052C37.1235 62.2787 35.5265 66.2644 32.7757 68.1347C34.0239 68.7206 34.9734 68.3927 35.8911 68.2219C38.1305 67.3345 42.2405 65.2707 40.1154 55.9948Z" fill="#F2EFEA"/>
<path d="M26.1358 6.78361C23.3591 10.9156 22.6725 17.6155 23.7821 21.1716C25.1997 25.7178 25.8338 27.9659 29.3355 34.0481C29.6576 34.6067 27.5208 25.3091 27.0536 23.0473C26.6264 20.9782 25.3298 12.5234 28.0715 5.85892C28.326 5.24035 28.6163 4.55911 28.9434 3.97778C27.8429 4.60635 26.9084 5.63548 26.1358 6.78361" fill="url(#paint11_linear_410_1402)"/>
<path d="M34.8991 4.74361C33.6259 5.41124 32.5254 6.40314 31.5993 7.52675C30.6706 8.65399 29.9506 9.9638 29.4467 11.3599C28.4421 14.1676 28.3654 17.2713 28.8051 20.2434C29.2189 23.2373 30.2118 26.1312 30.7774 29.1823C31.0645 30.7029 31.2246 32.2661 31.1788 33.8221C31.1295 35.3771 30.8784 36.9195 30.4395 38.3828C30.714 36.8723 30.8592 35.3426 30.8025 33.8221C30.7608 32.3015 30.5246 30.8 30.1951 29.3222C29.8572 27.8462 29.4442 26.3828 29.0378 24.9059C28.644 23.4253 28.2761 21.9193 28.0525 20.3724C27.8372 18.8273 27.7513 17.2514 27.8673 15.6818C27.9365 14.8988 28.0358 14.1176 28.2127 13.3528C28.3804 12.5871 28.6048 11.8322 28.901 11.1138C29.4784 9.66769 30.3069 8.34606 31.3314 7.2488C32.361 6.16697 33.5566 5.24592 34.8991 4.74361Z" fill="#CCC9C6"/>
<path d="M32.0137 41.4531C32.2965 40.6329 32.4776 39.7809 32.5635 38.9162C32.6328 38.0496 32.6503 37.1794 32.591 36.3101C32.5068 34.5707 32.2623 32.8412 32.0229 31.1118C31.7917 29.3805 31.5248 27.6528 31.3103 25.917C31.0842 24.183 31.0091 22.4426 30.8564 20.6986L32.3099 31.0645C32.5493 32.7967 32.7721 34.538 32.8263 36.2992C32.858 37.1794 32.8105 38.0623 32.7137 38.9361C32.5769 39.8063 32.3608 40.6611 32.0137 41.4531Z" fill="#CCC9C6"/>
<path d="M28.0151 5.99873C27.7047 7.10145 27.4244 8.21234 27.2191 9.33867C26.9989 10.4632 26.837 11.5986 26.7352 12.7395C26.5241 15.0203 26.5241 17.3238 26.7419 19.6019C26.9463 21.8827 27.4352 24.1218 27.9575 26.3508C28.2153 27.4681 28.4948 28.5799 28.7293 29.708C28.9487 30.8353 29.1581 31.9825 29.1264 33.1406C29.078 31.9861 28.8361 30.8625 28.5599 29.7525C28.2863 28.6417 27.9809 27.5389 27.6889 26.4308C27.0982 24.2163 26.6167 21.9509 26.3781 19.6437C26.2688 18.4892 26.2213 17.3293 26.2346 16.1702C26.2488 15.0112 26.3039 13.8522 26.4432 12.704C26.5817 11.5541 26.7803 10.416 27.0356 9.29325C27.3034 8.1751 27.6221 7.07147 28.0151 5.99873Z" fill="#CCC9C6"/>
<path d="M26.0312 6.94779C25.5656 7.90608 25.2502 8.93795 24.9933 9.98072C24.7388 11.0244 24.5611 12.088 24.4201 13.1544C24.1548 15.2917 24.1239 17.4599 24.3283 19.5972C24.5319 21.7345 25.0016 23.8437 25.7867 25.8084C26.188 26.7821 26.6411 27.7541 27.0875 28.7114C27.5263 29.677 28.0328 30.6044 28.505 31.5654C28.188 31.144 27.8884 30.7107 27.5972 30.2665C27.3144 29.8196 27.0399 29.3618 26.7821 28.8949C26.531 28.4226 26.289 27.9457 26.0637 27.4607C25.8351 26.9811 25.6182 26.4851 25.418 25.981C24.6278 23.9645 24.1673 21.8081 23.9754 19.6363C23.7768 17.4608 23.8853 15.2663 24.1915 13.1172C24.3508 12.0435 24.5711 10.9781 24.8656 9.93984C25.161 8.90343 25.5147 7.8752 26.0312 6.94779Z" fill="#DEDBD7"/>
<path d="M28.1846 6.80469C29.0948 5.29867 30.3522 4.06697 31.7197 3.04237C32.4088 2.53371 33.1531 2.10406 33.9515 1.8025C34.2394 1.69804 34.5314 1.60721 34.8351 1.55452C34.9536 1.53272 35.0787 1.52182 35.1997 1.51274C35.4166 1.50184 35.6361 1.4973 35.8547 1.53726C36.0766 1.56633 36.2885 1.64354 36.4829 1.71621C38.074 2.33296 39.4523 3.36846 40.8465 4.30314C41.5449 4.76911 42.2574 5.21692 43.0308 5.48488C43.4146 5.61931 43.8184 5.70197 44.2223 5.672C44.6261 5.64475 45.0257 5.51213 45.3812 5.28323C45.0466 5.54665 44.6486 5.72105 44.2314 5.77645C43.8134 5.83731 43.3888 5.77918 42.9824 5.66836C42.1681 5.4331 41.4281 4.99892 40.7055 4.56383C39.2671 3.68184 37.903 2.65088 36.3644 2.09135C36.1684 2.02413 35.9882 1.95691 35.8004 1.92785C35.6127 1.89061 35.4166 1.89242 35.2214 1.89787C34.8309 1.92149 34.438 2.01868 34.0575 2.1513C33.2916 2.42107 32.5715 2.84617 31.8757 3.3067C31.1815 3.77267 30.5241 4.30768 29.9058 4.89174C29.2801 5.46762 28.696 6.10073 28.1846 6.80469Z" fill="#CCC9C6"/>
<path d="M45.3809 5.2831C45.7096 4.98971 46.1301 4.79533 46.574 4.76172C47.0153 4.7272 47.4667 4.84075 47.8614 5.05965C48.563 5.4466 49.082 5.99614 49.4908 6.75642C49.5025 6.77822 49.5459 6.8636 49.5843 6.94354C49.6093 6.9944 49.6327 7.04436 49.646 7.07161C50.0865 7.95905 50.3694 8.81833 50.4036 9.76118C50.4478 10.7004 50.2517 11.636 49.7745 12.4062C50.1533 11.6024 50.2859 10.6768 50.2109 9.77572C50.1283 8.87374 49.8563 7.99811 49.4349 7.22058C49.0186 6.44577 48.4462 5.75725 47.7362 5.32035C47.3808 5.10598 46.9853 4.97427 46.579 4.96065C46.171 4.94793 45.7571 5.06147 45.3809 5.2831Z" fill="#BBB8B5"/>
<path d="M32.9443 38.981C33.3373 40.9711 33.9447 42.9022 34.7999 44.698C35.2179 45.6018 35.6927 46.472 36.215 47.3076L37.0142 48.5584L37.4131 49.1906C37.5449 49.4013 37.6634 49.6248 37.7894 49.8392C38.2958 50.7012 38.728 51.6104 39.1401 52.5315C39.529 53.4634 39.8619 54.4235 40.1213 55.4091C40.3691 56.3955 40.5535 57.4019 40.6361 58.4202C40.7262 59.4375 40.7404 59.8663 40.7062 60.8809C40.6837 59.8644 40.642 59.4393 40.5118 58.4356C40.3892 57.4301 40.1973 56.4373 39.9261 55.4708C39.6499 54.5044 39.292 53.5688 38.9082 52.6495C38.4944 51.7448 38.0613 50.8483 37.5524 49.9999C37.4264 49.7874 37.3063 49.5703 37.1761 49.3614L36.7765 48.7383C36.5136 48.3241 36.2383 47.9062 35.9797 47.4811C35.4599 46.6282 34.9868 45.7399 34.5738 44.8215C33.7528 42.9785 33.1971 40.9984 32.9443 38.981Z" fill="#CCC9C6"/>
<path d="M32.4248 33.4964C32.5658 34.8707 32.8954 36.2123 33.2733 37.5285C33.653 38.8438 34.1085 40.1336 34.6425 41.3807C35.7138 43.8741 37.0813 46.2322 38.8501 48.1914C39.2948 48.6701 39.7595 49.1679 40.175 49.6965C40.593 50.2261 40.9735 50.7902 41.3214 51.3779C42.0155 52.5514 42.547 53.8404 42.8908 55.1847C43.4681 57.441 43.5441 59.8235 43.1853 62.1144C43.1152 62.5549 43.0276 62.9945 42.9258 63.4287C43.1744 62.0708 43.2979 60.691 43.2537 59.3149C43.2203 57.9397 43.0309 56.569 42.668 55.2564C42.3009 53.9457 41.7861 52.6822 41.0944 51.5368C40.7499 50.9655 40.3719 50.415 39.9589 49.9C39.5459 49.3786 39.0954 48.9145 38.6423 48.4122C36.8643 46.4038 35.4735 44.0185 34.4422 41.4825C33.9283 40.2117 33.4903 38.9037 33.139 37.5712C32.9663 36.9036 32.8153 36.2314 32.6876 35.552C32.5625 34.8735 32.454 34.1877 32.4248 33.4964Z" fill="#D2CFCB"/>
<path d="M47.5664 29.9092C48.228 28.5103 48.7712 27.0597 49.2468 25.5882C49.7232 24.1176 50.1178 22.6162 50.4357 21.0965C50.7486 19.5778 50.9697 18.0355 51.0581 16.4822C51.0932 15.7065 51.0948 14.9244 51.0172 14.1532L50.9622 13.5719L50.8512 13.0006L50.7978 12.7135C50.7753 12.6182 50.7386 12.5291 50.7119 12.4365L50.54 11.8779C51.2158 13.2821 51.3785 14.919 51.3752 16.4913C51.3752 17.2843 51.3234 18.0754 51.23 18.862C51.1424 19.6468 51.0189 20.4271 50.8604 21.2001C50.5542 22.7461 50.1253 24.2612 49.5905 25.7299C49.0515 27.1942 48.3907 28.6148 47.5664 29.9092Z" fill="#FFFBF7"/>
<path d="M31.8197 29.3512C31.7688 29.0851 31.7371 28.9361 31.7371 28.9361C31.7371 28.9361 31.7646 29.0833 31.8197 29.3512ZM31.6328 41.016C31.7705 41.274 31.8831 41.4765 32.0016 41.7072C32.0567 41.8144 32.1176 41.9262 32.1735 42.0325C36.8741 50.9786 44.243 57.505 40.1022 64.5682C39.7326 65.1995 39.3546 65.8471 38.7072 66.4766C39.4556 65.8053 40.0413 65.8853 40.5644 65.967C41.1151 66.0524 41.599 66.1387 42.1363 65.3439C42.2882 65.1196 42.4909 64.7571 42.6645 64.2884C42.7579 64.0422 42.8413 63.7707 42.9256 63.4282C42.9256 63.4282 45.185 66.7482 47.3927 64.3366C48.1361 61.6425 48.4323 57.584 45.1324 53.1741C41.3779 48.1564 39.0376 47.6495 36.0048 41.9943C33.606 37.5234 32.1685 31.0416 31.8197 29.3512C32.1718 31.1797 33.4417 38.5299 31.6328 41.016" fill="url(#paint12_linear_410_1402)"/>
<path d="M27.2403 8.83798C26.5653 12.0753 26.1415 16.8177 26.8182 21.66C27.1127 23.7773 28.5527 28.3998 28.879 30.6279C28.0505 23.5148 24.9426 9.90344 34.8996 4.74139C32.5284 5.38176 27.8678 9.18678 27.2403 8.83798" fill="url(#paint13_linear_410_1402)"/>
<path d="M38.5501 0.331629C36.7939 0.360695 34.0197 1.18002 32.0907 1.38621C31.4766 1.4507 31.0027 1.57423 30.6247 1.7341C29.5184 2.2028 29.2422 2.99761 28.785 3.64707C28.5164 4.02947 28.3295 4.14663 28.0833 4.2084C28.0775 4.20931 28.0717 4.20933 28.0675 4.21206C26.1944 4.94326 21.7699 10.8874 22.7252 19.0869C22.7936 19.8917 22.9496 20.6756 23.1491 21.4431C24.9771 29.3138 31.102 39.8696 32.6055 42.8653C31.4975 45.6411 29.1329 51.3409 28.3787 56.7082C28.347 56.8908 28.1651 58.1243 28.1534 59.1571C28.0516 61.8894 28.5222 64.3854 29.9773 66.1785C29.9856 66.1903 30.2618 66.5137 30.2743 66.5273C31.0161 67.3239 31.8938 67.8308 32.7748 68.136H32.7757C34.0238 68.7191 34.975 68.393 35.8903 68.2232C36.3016 68.4939 36.7304 68.7028 37.1668 68.8653C39.7933 69.8536 42.731 69.0607 44.1085 68.2232C45.9549 67.5701 46.7968 66.3884 47.3241 64.5608C47.8555 62.8386 48.669 59.3215 46.8285 54.1186C45.9991 51.8705 44.3371 48.3534 41.7724 43.2422L41.7565 43.2113C43.8107 38.9776 49.314 28.5036 50.2943 25.4407C50.3469 25.279 50.3936 25.1228 50.4395 24.9665C52.1023 20.3322 53.1895 14.2001 50.3419 8.49664C50.2 8.1978 49.6744 7.12689 49.4925 6.75538C49.4591 6.68816 49.4366 6.64368 49.4308 6.63369C47.133 2.03934 47.0554 2.91042 45.6195 2.63428C45.5678 2.62611 45.5127 2.60884 45.4593 2.59431C43.8248 2.18556 41.0165 1.02746 39.6465 0.478822C39.4028 0.382539 39.095 0.337987 38.7354 0.331629H38.5501ZM40.344 40.6852C40.2589 40.5272 40.1771 40.3782 40.0945 40.2256C36.9307 34.0344 33.5241 28.6408 31.6727 23.5659C31.263 22.1943 30.9426 20.8436 30.7432 19.5511C30.0449 15.8487 30.3361 13.6724 31.636 10.6785C32.885 7.79454 36.662 4.19662 38.7754 5.29752C41.0991 6.50924 42.3773 6.79536 43.2208 6.68364C44.0309 6.57464 44.4331 6.09413 44.9712 5.61453C45.083 5.50825 45.3567 5.30204 45.3801 5.28205C46.6424 6.34026 47.5126 7.5756 48.2635 8.81093C54.6312 19.2831 44.1185 35.3152 40.7094 41.3329C40.48 40.9151 40.3457 40.6861 40.344 40.6852ZM32.5162 64.7915C32.0398 64.7234 31.5634 64.519 31.1053 64.1784C30.4679 63.6979 29.9923 62.9884 29.747 62.1882C29.007 59.7666 29.1621 54.9552 33.1294 44.0597C33.5441 45.0371 33.9337 45.959 34.1023 46.3369C36.3984 51.3954 36.9499 56.0343 36.9532 58.8065C36.7054 62.2918 35.1611 64.4073 33.4198 64.7624C33.2287 64.7951 33.0418 64.8106 32.8591 64.8106C32.7431 64.8106 32.6288 64.8033 32.5162 64.7915" fill="url(#paint14_linear_410_1402)"/>
<path d="M38.6386 0.330764C36.8881 0.332581 34.0514 1.17641 32.0907 1.38624C31.4766 1.45073 31.0027 1.57426 30.6247 1.73412C29.5184 2.20282 29.2422 2.99763 28.785 3.64709C28.5164 4.0295 28.3295 4.14665 28.0833 4.20842C28.0775 4.20933 28.0717 4.20935 28.0675 4.21208C26.1944 4.94329 21.7699 10.8874 22.7252 19.0869C22.7936 19.8917 22.9496 20.6756 23.1491 21.4431C24.9771 29.3138 31.102 39.8696 32.6055 42.8653C31.4975 45.6412 29.1329 51.3409 28.3787 56.7083C28.347 56.8909 28.1651 58.1244 28.1534 59.159C28.0516 61.8894 28.5222 64.3855 29.9773 66.1785C29.9856 66.1903 30.2618 66.5137 30.2743 66.5274C31.0161 67.324 31.8938 67.8308 32.7748 68.136H32.7757C34.0238 68.7192 34.975 68.3931 35.8903 68.2232C36.3016 68.4939 36.7304 68.7028 37.1668 68.8654C38.0587 69.2006 38.9857 69.3305 39.8759 69.325C41.6072 69.3114 43.1999 68.7755 44.1085 68.2232C45.9549 67.5701 46.7968 66.3884 47.3241 64.5608C47.8555 62.8386 48.669 59.3215 46.8285 54.1186C45.9991 51.8705 44.3371 48.3534 41.7724 43.2422L41.7565 43.2113C43.8107 38.9776 49.314 28.5036 50.2943 25.4407C50.3469 25.279 50.3936 25.1228 50.4395 24.9666C52.1023 20.3323 53.1895 14.2001 50.3419 8.49667C50.2 8.19964 49.6744 7.12691 49.4925 6.7554C49.4591 6.68818 49.4366 6.6437 49.4308 6.63371C47.133 2.03936 47.0554 2.91044 45.6195 2.63431C45.5678 2.62613 45.5127 2.60887 45.4593 2.59433C43.8248 2.18558 41.0165 1.02748 39.6465 0.478845C39.3862 0.375295 39.0482 0.330764 38.6561 0.330764H38.6386ZM40.344 40.6853C40.2589 40.5272 40.1771 40.3783 40.0945 40.2257C36.9307 34.0345 33.5241 28.6408 31.6727 23.5659C31.263 22.1944 30.9426 20.8437 30.7432 19.5511C30.0449 15.8488 30.3361 13.6724 31.636 10.6785C32.885 7.79456 36.662 4.19664 38.7754 5.29754C41.0991 6.50926 42.3773 6.79539 43.2208 6.68366C44.0309 6.57466 44.4331 6.09415 44.9712 5.61455C45.083 5.50828 45.3567 5.30206 45.3801 5.28208C46.6424 6.34028 47.5126 7.57563 48.2635 8.81096C54.6312 19.2831 44.1185 35.3152 40.7094 41.3329C40.48 40.9151 40.3457 40.6862 40.344 40.6853ZM32.5162 64.7915C32.0398 64.7234 31.5634 64.519 31.1053 64.1784C30.4679 63.6979 29.9923 62.9885 29.747 62.1882C29.007 59.7666 29.1621 54.9552 33.1294 44.0598C33.5441 45.0371 33.9337 45.959 34.1023 46.3369C36.3984 51.3954 36.9499 56.0343 36.9532 58.8065C36.7054 62.2918 35.1611 64.4073 33.4198 64.7625C33.2287 64.7952 33.0418 64.8106 32.8591 64.8106C32.7431 64.8106 32.6288 64.8033 32.5162 64.7915" fill="url(#paint15_linear_410_1402)"/>
<path d="M38.1083 59.8076C38.1676 56.6194 37.6136 53.4747 36.6958 50.4845C35.773 47.4888 34.4814 44.643 32.9871 41.9353C32.2446 40.5746 31.4695 39.213 30.7428 37.8332C30.016 36.4498 29.3027 35.0601 28.6252 33.6467C27.2702 30.8245 25.9962 27.9451 25.04 24.9313C25.6316 26.3882 26.2632 27.8152 26.9498 29.2186C27.6215 30.6274 28.3223 32.019 29.0382 33.4033C30.4666 36.1737 31.9709 38.8851 33.4911 41.6074C34.9912 44.3551 36.2778 47.2626 37.1246 50.3364C37.551 51.8697 37.868 53.4402 38.0449 55.0289C38.2159 56.6166 38.2476 58.2244 38.1083 59.8076Z" fill="#E1DEDA"/>
<g opacity="0.429993">
<path d="M26.9492 29.2181C27.6208 30.626 28.3233 32.0194 29.0375 33.4028C29.332 33.9732 29.6291 34.5419 29.9303 35.1087C30.793 36.6047 31.7583 38.1452 32.8171 39.6395C37.6738 46.501 40.7258 53.4906 38.5256 60.2359C38.126 61.464 38.3271 62.0399 38.8335 62.0635H38.9002C40.2969 62.0017 43.7052 58.1721 43.7603 52.407V52.1254C43.7227 48.165 42.0966 43.3236 37.1974 38.1761C29.5815 31.8786 25.041 24.9326 25.041 24.9326C25.6317 26.3887 26.2625 27.8157 26.9492 29.2181" fill="url(#paint16_linear_410_1402)"/>
</g>
<path d="M33.1293 44.0596C32.9541 43.6254 32.8173 43.3138 32.6045 42.8651C31.4974 45.6419 29.1328 51.3417 28.3778 56.709C28.3477 56.8907 28.165 58.1269 28.1533 59.1606C28.17 59.345 28.195 59.5185 28.2276 59.6775C28.8934 62.8058 29.9296 63.338 30.361 63.418C30.0915 63.0546 29.8846 62.6377 29.7477 62.1881C29.0069 59.7683 29.1612 54.955 33.1293 44.0596Z" fill="#F2EFEA"/>
<path d="M46.8291 54.1182C46.0006 51.8719 44.3386 48.3539 41.7738 43.2409L41.758 43.2128C41.758 43.2128 40.096 40.2271 40.0943 40.2262C36.9313 34.035 33.5255 28.6422 31.6725 23.5646C31.2645 22.1949 30.9424 20.8442 30.7438 19.5516C30.7422 19.5462 30.7422 19.5416 30.7413 19.5362C30.7397 19.5271 30.7388 19.5198 30.7363 19.5126C30.9165 20.7697 30.8698 22.0713 31.2419 24.0742C31.9628 27.8202 33.5255 31.9595 36.3973 35.799C39.7839 40.3234 43.6269 45.8497 45.3932 54.3335C45.6201 55.4244 45.9597 57.8569 46.094 60.1132C46.2559 62.8337 45.7887 64.733 44.8968 66.7359C44.9184 66.7695 45.4549 67.547 47.0093 65.1844C47.1345 64.9783 47.2337 64.7693 47.3247 64.5613C47.8562 62.8391 48.6705 59.323 46.8291 54.1182Z" fill="#FFFBF7"/>
<path d="M24.8945 13.0512C24.8945 14.4555 25.94 15.5918 27.2299 15.5918C28.5206 15.5918 29.566 14.4555 29.566 13.0512C29.566 11.6469 28.5206 10.5078 27.2299 10.5078C25.94 10.5078 24.8945 11.6469 24.8945 13.0512ZM27.5419 11.8485C27.3058 11.7495 27.1573 11.5043 27.1556 11.2427C27.1798 11.2409 27.204 11.2354 27.2299 11.2354C27.6128 11.2354 27.9616 11.3799 28.2427 11.6178C28.1301 11.7895 27.9465 11.8912 27.7555 11.8912C27.6837 11.8912 27.612 11.8776 27.5419 11.8485M25.6763 12.3981C25.819 11.9975 26.0893 11.6705 26.4306 11.4662C26.4831 11.5615 26.5148 11.675 26.5148 11.7922C26.5148 12.1555 26.2453 12.4489 25.9124 12.4489C25.8282 12.4489 25.7506 12.4326 25.6763 12.3981ZM26.8711 13.6952L26.5707 13.0794C26.5373 13.0094 26.549 12.924 26.5974 12.8668L27.0446 12.3654C27.0947 12.3082 27.1731 12.2918 27.2374 12.3273L27.8139 12.6342C27.8798 12.6687 27.9165 12.7441 27.9057 12.8232L27.8164 13.5144C27.8064 13.5934 27.7505 13.6552 27.6804 13.6689L27.0488 13.7887C27.0396 13.7905 27.0288 13.7905 27.0196 13.7905C26.9579 13.7905 26.9011 13.7551 26.8711 13.6952M28.3595 13.1793C28.3595 12.8686 28.559 12.6115 28.8226 12.5407C28.8677 12.7042 28.8977 12.8723 28.8977 13.0512C28.8977 13.3146 28.8443 13.5644 28.7492 13.7905C28.5222 13.6979 28.3595 13.459 28.3595 13.1793M25.6137 13.4799C25.6621 13.4663 25.713 13.4572 25.7664 13.4572C26.0976 13.4572 26.3688 13.7497 26.3688 14.113C26.3688 14.2638 26.3221 14.3982 26.2437 14.509C25.9333 14.2593 25.7072 13.8996 25.6137 13.4799ZM27.0805 14.8506C27.118 14.5281 27.3684 14.2792 27.6746 14.2792C27.8756 14.2792 28.0533 14.3892 28.1635 14.5554C27.8982 14.7516 27.5769 14.866 27.2299 14.866C27.1781 14.866 27.1289 14.856 27.0805 14.8506" fill="url(#paint17_linear_410_1402)"/>
<path d="M27.5068 8.44062L28.0458 9.45801L28.9803 8.87117L28.4413 7.85384L27.5068 8.44062Z" fill="url(#paint18_linear_410_1402)"/>
<path d="M26.1807 17.5604L26.9583 18.377L27.7083 17.534L26.9316 16.7147L26.1807 17.5604Z" fill="url(#paint19_linear_410_1402)"/>
<path d="M41.8517 60.2727C41.7683 60.3917 41.7232 60.5906 41.7032 60.8459C41.6832 61.1048 41.6915 61.3364 41.709 61.5571C41.6214 61.4527 41.4479 61.4182 41.3553 61.4954C41.3795 61.598 41.4112 61.6915 41.4237 61.8015C41.4337 61.8778 41.4337 61.9622 41.4345 62.044C41.2718 62.1738 41.0841 62.3501 41.0583 62.6789C41.0541 62.7316 41.0558 62.7797 41.0558 62.8297C40.9948 62.6208 40.8889 62.4073 40.8363 62.2256C40.7888 62.0639 40.7037 61.9087 40.6202 61.8269C40.596 61.8006 40.5643 61.7924 40.5351 61.7733C40.5168 61.8269 40.5026 61.8841 40.4842 61.9332C40.4767 61.9577 40.4734 61.9831 40.4642 62.0321C40.4083 61.9695 40.3632 61.9123 40.3073 61.8678C40.2656 61.8351 40.2156 61.8205 40.1647 61.8096C40.0579 61.7833 40.0395 61.8114 40.0395 61.9813C40.0395 62.0367 40.037 62.0957 40.0354 62.1684C39.8026 62.0712 39.6732 62.2765 39.6783 62.282C39.7275 62.3319 39.7709 62.3628 39.7817 62.44C39.7926 62.5127 39.7659 62.6271 39.7325 62.7261C39.6657 62.9223 39.71 63.2557 39.8393 63.3856C39.9319 63.4792 40.1038 63.4619 40.2247 63.3338C40.3649 63.1921 40.4083 62.7543 40.3299 62.618C40.2823 62.5363 40.2489 62.5354 40.1563 62.6044C40.1805 62.6616 40.2289 62.717 40.2222 62.7815C40.2156 62.8542 40.1688 62.955 40.1213 63.0123C40.0562 63.0886 39.9828 63.0958 39.9302 63.0332C39.8385 62.9214 39.8368 62.728 39.9219 62.5463C39.9461 62.4963 40.0062 62.4027 40.037 62.3773C40.1688 62.2729 40.3249 62.2429 40.4208 62.3174C40.5276 62.4 40.5927 62.5336 40.606 62.7316C40.6311 63.0767 40.4667 63.6145 40.4817 63.9579C40.4926 64.2758 40.7012 64.4011 40.9439 64.4529C41.0507 64.4756 41.3269 64.5101 41.3836 64.5328C41.6723 64.6455 41.9226 64.6282 42.0762 64.3384C42.2338 64.0414 42.3198 63.481 42.4883 63.1857C42.5859 63.0177 42.6986 62.9323 42.8287 62.9087C42.9472 62.8915 43.0724 62.9914 43.1458 63.1513C43.1641 63.1894 43.1758 63.3011 43.1775 63.3592C43.1741 63.5627 43.0899 63.7344 42.9622 63.7862C42.8863 63.8161 42.8237 63.7762 42.7995 63.6744C42.782 63.6009 42.7837 63.4882 42.8095 63.4183C42.8304 63.3592 42.8955 63.3356 42.9414 63.2957C42.8888 63.1876 42.8588 63.1703 42.782 63.2203C42.6543 63.3038 42.5209 63.7062 42.5859 63.9006C42.6368 64.0741 42.7837 64.174 42.9047 64.1368C43.0774 64.0841 43.2417 63.8207 43.2684 63.609C43.2801 63.5073 43.3068 63.3929 43.3452 63.332C43.3877 63.2675 43.4386 63.2621 43.5062 63.2439C43.5112 63.2421 43.5154 63.2293 43.5246 63.2139C43.487 62.9914 43.3469 63.0277 43.2367 62.9678C43.2651 62.8996 43.2876 62.8488 43.3126 62.797C43.3852 62.6462 43.3802 62.6117 43.2734 62.5853C43.2242 62.5708 43.1741 62.5563 43.1216 62.5663C43.0548 62.5762 42.9889 62.608 42.913 62.6353C42.9247 62.5871 42.9322 62.5626 42.9364 62.539C42.943 62.4845 42.9539 62.4255 42.9605 62.3701C42.9472 62.3719 42.9355 62.3719 42.9238 62.3701C42.9021 62.3701 42.8813 62.3683 42.8588 62.3755C42.752 62.4082 42.6802 62.4809 42.5442 62.5681C42.4174 62.6498 42.2539 62.856 42.1212 63.0631C42.1371 62.9914 42.1554 62.9214 42.1796 62.8569C42.2655 62.618 42.2497 62.4709 42.1646 62.3565L42.0678 62.1857C42.0778 62.1602 42.0887 62.1312 42.0987 62.0976C42.1437 61.9377 42.213 61.8133 42.2672 61.6552C42.243 61.5544 42.0778 61.4609 41.9685 61.5026C42.0303 61.2865 42.0728 61.0512 42.0745 60.7769C42.0728 60.5262 42.0186 60.3717 41.9568 60.2527C41.9477 60.2355 41.9343 60.2282 41.921 60.2282C41.8976 60.2282 41.8717 60.2473 41.8517 60.2727M37.6099 63.2421C37.5724 63.0995 37.534 62.955 37.4931 62.7997C37.3196 62.837 37.2161 62.9814 37.141 63.1358C37.0676 63.2893 37.0292 63.4601 36.9725 63.6172C36.9024 63.5518 36.8323 63.4828 36.7606 63.4138C36.537 63.7017 36.5003 64.0033 36.703 64.3557C36.869 64.6427 37.0651 64.9062 37.2528 65.1668C37.4664 65.4657 37.6833 65.7509 37.6984 66.1415C37.7142 66.5066 37.534 66.8254 37.2487 67.0861C37.0225 67.2941 36.7714 67.3713 36.456 67.3731C36.446 67.3731 36.4193 67.4749 36.4143 67.4939C36.4427 67.6366 36.678 67.5721 36.7964 67.5394C37.6867 67.2942 38.2615 66.5584 37.9946 65.8136C37.8919 65.5174 37.5449 65.0469 37.4122 64.7599C37.3012 64.5247 37.2019 64.2866 37.2495 64.0087C37.3087 63.6808 37.6024 63.3611 37.9754 63.4283C38.1873 63.4655 38.355 63.6563 38.3533 63.8879C38.3517 64.0369 38.2348 64.234 38.0997 64.2985C38.0121 64.3385 37.9211 64.3521 37.8536 64.283C37.7918 64.2158 37.7918 64.1322 37.8327 64.0414C37.8394 64.0269 37.841 64.0105 37.8444 63.9933C37.7075 64.0051 37.5357 64.2085 37.5549 64.3675C37.5907 64.6455 38.1648 64.8671 38.4284 64.6781C38.6704 64.5074 38.8005 64.1077 38.7138 63.7862C38.6295 63.4755 38.501 63.3129 38.2298 63.2176C38.2006 63.2048 38.1756 63.1921 38.1539 63.1794C38.2082 63.0304 38.2524 62.9014 38.2983 62.7597C38.2816 62.7588 38.2641 62.7589 38.2465 62.7589C37.9478 62.7589 37.7801 62.9632 37.6099 63.2421M39.6507 64.3856C39.4772 64.4665 39.2686 64.6927 39.2294 64.8489C39.3145 64.8244 39.3937 64.7935 39.4672 64.7799C39.6265 64.7581 39.7342 64.8434 39.7625 65.0051C39.7859 65.1423 39.6941 65.383 39.5665 65.5002C39.3595 65.6919 39.1409 65.8608 38.9265 66.0379C38.677 66.2387 38.5652 66.4767 38.5836 66.7473C38.6061 67.1089 38.8856 67.3668 38.9349 67.4186C38.5018 68.0172 37.9879 68.5168 37.4656 68.9709C37.6091 69.0163 37.7534 69.0599 37.8969 69.0945C38.3675 68.6585 38.8264 68.1952 39.2703 67.6656C39.6474 67.8464 40.1088 67.8864 40.4709 67.583C40.7037 67.3868 40.8113 67.1488 40.9047 66.899C40.9757 66.7101 41.0299 66.5184 41.09 66.3259C41.1734 66.0643 41.3478 65.8535 41.5305 65.7754C41.6982 65.7046 41.7983 65.7945 41.8133 66.0325C41.8142 66.0643 41.8158 66.0933 41.8192 66.146C41.9343 65.9871 41.9769 65.8263 42.0086 65.6764C42.0645 65.3903 42.0027 65.215 41.8926 65.1005C41.7616 64.967 41.5413 64.957 41.3169 65.1423C41.2293 65.2104 41.1175 65.3485 41.0366 65.4829C40.9298 65.6609 40.843 65.8408 40.7612 66.0225C40.4959 66.4049 40.2806 66.6538 40.1338 66.8027C40.2965 66.5375 40.4208 66.2559 40.5293 65.9716C40.6236 65.7264 40.7012 65.4775 40.7762 65.2268C40.7863 65.1959 40.7904 65.1632 40.8021 65.106C40.7621 65.1478 40.7395 65.1632 40.722 65.1877C40.41 65.5992 40.0579 65.9725 39.7083 66.3377C39.6733 66.3731 39.6466 66.4131 39.614 66.4521C39.629 66.2559 39.7609 66.0016 39.8985 65.7808C39.9503 65.7236 39.9986 65.6664 40.0445 65.6047C40.188 65.4203 40.3124 65.1977 40.3908 64.9825C40.4909 64.7 40.405 64.5192 40.2548 64.4093C40.1672 64.3439 40.0696 64.3075 39.9586 64.3075C39.8676 64.3075 39.7642 64.333 39.6507 64.3856M36.0864 65.0832C35.9346 65.0732 35.63 65.0605 35.6267 65.0733C36.4794 65.5429 36.7305 66.1887 36.869 66.979C37.0526 66.8818 37.2336 66.2859 37.2019 65.9725C37.1594 65.5374 36.9374 65.2204 36.5728 64.9189C36.5628 64.9788 36.5562 65.0133 36.5461 65.0587C36.3476 64.9597 36.2233 64.7499 35.9704 64.7054C36.0113 64.8417 36.048 64.9597 36.0864 65.0832M43.7707 66.2214C43.7565 66.2132 43.7348 66.2041 43.7115 66.1905C43.5471 66.0897 42.9305 65.9389 42.6143 66.3086C42.3965 66.5711 42.1362 67.2305 42.535 67.5148C42.6327 67.5821 42.7036 67.6475 42.8588 67.5648C42.9881 67.493 43.074 67.3622 43.1341 67.2124C43.1458 67.1851 43.1474 67.1552 43.1566 67.1125C43.1316 67.1334 43.1182 67.1415 43.1057 67.157C42.9772 67.3096 42.9021 67.3496 42.8396 67.3032C42.777 67.2615 42.7278 67.0098 42.7987 66.8709C42.9881 66.5012 43.3452 66.3767 43.5221 66.4948C43.6622 66.5893 43.6939 66.7927 43.5813 67.0952C43.4495 67.4486 43.2284 67.732 42.9622 67.8519C42.7194 67.9609 42.4808 68.0026 42.2422 68.0372C42.0937 68.0562 41.9468 68.0181 41.7925 67.9818C41.5981 67.9336 41.3953 67.8864 41.1767 67.9527C40.5869 68.1361 39.8985 68.7266 39.5072 69.3188C39.5856 69.3234 39.6632 69.3252 39.7417 69.3252C39.8551 69.1799 39.9903 69.0373 40.1488 68.9065C40.6027 68.525 41.0524 68.3287 41.4763 68.3496C41.8108 68.3687 42.1079 68.4378 42.4182 68.4523C42.6085 68.4623 42.7945 68.475 42.9923 68.4368C43.2701 68.3823 43.5396 68.1516 43.774 67.732C43.6989 67.7147 43.6297 67.6992 43.5521 67.6783C43.8775 67.3604 44.137 66.989 44.2221 66.4966C44.0877 66.5984 43.9634 66.6828 43.8333 66.7655C43.9192 66.5684 44.0035 66.3813 44.056 66.1987C44.1119 66.0052 44.1053 65.849 44.0419 65.7427C43.9526 65.9044 43.87 66.0533 43.7707 66.2214M37.2987 67.5966C37.1127 67.7619 37.1177 68.0372 37.2712 68.2543C37.3229 68.3278 37.3821 68.3914 37.4222 68.4423C37.5832 68.2978 37.7217 68.1498 37.8778 68.0199C38.2232 67.7302 38.3233 67.394 38.2732 67.0462C38.2615 66.9608 38.239 66.8781 38.2182 66.77C37.9061 67.0734 37.5907 67.3341 37.2987 67.5966ZM35.7702 67.7047C35.6042 67.6975 35.4465 67.6884 35.2871 67.6675C35.2855 67.682 35.464 67.8691 35.5691 67.9554C35.4932 68.0254 35.4223 68.0889 35.3505 68.1516C36.1115 68.1189 36.6771 68.5022 37.2437 68.8864C37.1711 68.3896 36.5244 67.7202 35.7402 67.5985C35.7493 67.633 35.7585 67.6657 35.7702 67.7047M38.8072 68.7675C38.6862 68.9192 38.5177 69.0609 38.3742 69.198C38.6445 69.2489 38.9107 69.2816 39.1768 69.2997C39.2077 69.2843 39.2386 69.2662 39.2669 69.2425C39.4146 69.1272 39.5356 68.9718 39.6582 68.8256C39.7475 68.7175 39.8151 68.594 39.901 68.4786C39.9811 68.3687 40.0721 68.2633 40.1605 68.1489C39.6123 68.1661 39.1535 68.3324 38.8072 68.7675M41.6515 68.7457C41.1809 68.7893 40.6628 69.0236 40.1647 69.317C40.9506 69.2852 41.7015 69.148 42.3648 68.9573C42.2147 68.8147 42.0253 68.7402 41.7775 68.7402C41.7374 68.7402 41.6949 68.743 41.6515 68.7457" fill="url(#paint20_linear_410_1402)"/>
<path d="M37.0163 42.4233C36.9913 42.4269 36.9704 42.4414 36.9688 42.4687V42.4778C36.9771 42.6276 37.0146 42.8011 37.1498 43.0255C37.2992 43.2734 37.4627 43.4579 37.6362 43.6132C37.5169 43.6477 37.4193 43.8366 37.4552 43.9438C37.5878 44.05 37.718 44.1191 37.844 44.2336C38.1085 44.4697 38.2445 44.3435 38.2653 44.2372C38.2712 44.1991 38.2303 44.13 38.1694 44.05C38.2253 44.1055 38.2887 44.1427 38.3546 44.1418C38.4706 44.1136 38.549 44.0555 38.4614 43.8575C38.4147 43.7567 38.3304 43.6413 38.2845 43.536C38.2361 43.4251 38.2136 43.3225 38.1785 43.2153C38.0542 43.2044 37.9174 43.3452 37.8982 43.496C37.7931 43.2852 37.6746 43.0709 37.5152 42.852C37.3601 42.6349 37.2099 42.4841 37.0722 42.4305C37.0622 42.4269 37.0514 42.4242 37.0413 42.4233H37.0163ZM39.2423 43.3598C39.274 43.6032 39.5077 44.0083 39.7413 44.3217C39.6403 44.0628 39.6812 43.9156 39.773 43.7875C39.808 43.7403 39.7988 43.5614 39.6712 43.3915C39.622 43.3252 39.5085 43.2008 39.4342 43.1781C39.41 43.1699 39.3867 43.1663 39.3675 43.1663C39.2665 43.1663 39.2298 43.2626 39.2423 43.3598M40.8176 43.5886C40.7633 43.6359 40.6666 43.7222 40.6123 44.0483C40.5673 43.9838 40.4413 43.8621 40.3812 43.8048C40.3587 43.8466 40.3278 43.8775 40.3153 43.9265C40.2736 44.0755 40.2961 44.2544 40.3921 44.4488C40.5556 44.7858 40.735 45.1174 40.916 45.4471C41.2498 46.0557 41.5701 46.6397 41.3883 47.1738C41.4266 47.1711 41.4391 47.172 41.4458 47.1711C41.4583 47.1666 41.465 47.1493 41.475 47.1429C41.7245 46.9531 41.9097 46.6324 41.7278 46.2473C41.5409 45.8495 41.0395 45.3499 40.8651 44.942C40.7633 44.7086 40.7583 44.5124 40.8292 44.3444C40.8943 44.1936 41.0846 44.1173 41.2948 44.1427C41.3449 44.15 41.4675 44.2163 41.5234 44.2545C41.7278 44.4052 41.8413 44.626 41.8012 44.8131C41.7787 44.9212 41.6928 44.9675 41.5751 44.923C41.4884 44.8903 41.3757 44.8085 41.3248 44.7313C41.2798 44.6641 41.3023 44.5696 41.2956 44.487C41.1505 44.4715 41.1121 44.4952 41.1079 44.6205C41.0987 44.8304 41.3324 45.1328 41.5735 45.1955C41.7837 45.2582 41.9906 45.1564 42.039 44.9875C42.1091 44.7486 42.034 44.506 41.8421 44.3262C41.747 44.2408 41.6502 44.1282 41.6185 44.0374C41.586 43.9456 41.616 43.8793 41.6419 43.7858C41.6452 43.7776 41.6352 43.7649 41.6277 43.744C41.3774 43.6295 41.3132 43.8194 41.1747 43.9066C41.1296 43.8239 41.0937 43.7603 41.0579 43.694C40.9986 43.5796 40.9636 43.5296 40.9194 43.5296C40.8918 43.5296 40.8601 43.5505 40.8176 43.5886M38.8619 43.9311C38.8202 43.9738 38.7935 44.0628 38.8368 44.1482C38.9211 44.3217 39.0921 44.4942 39.2807 44.5933C39.6403 44.7822 39.9665 45.0665 40.2085 45.4298C40.2502 45.4943 40.2903 45.5597 40.3295 45.626C40.1217 45.4017 39.8798 45.1964 39.6603 44.9875C39.4242 44.7668 39.1964 44.6641 39.0037 44.6741C38.947 44.6777 38.9069 44.7341 38.9094 44.7958C38.9186 45.012 39.0529 45.2336 39.254 45.4989C39.4242 45.7232 39.5944 45.9812 39.7796 46.2246C39.7404 46.1883 39.6996 46.1547 39.6603 46.1184C39.3758 45.8686 39.1289 45.567 38.9303 45.2191C38.831 45.0447 38.3938 44.4607 38.2044 44.7531C38.136 44.8585 38.2411 45.0692 38.4439 45.2391C38.6241 45.388 38.8085 45.5134 38.9904 45.6569C38.9937 45.8967 39.078 46.0511 39.3408 46.2591C39.4926 46.3763 39.6445 46.4662 39.7955 46.5807C39.8406 46.6152 39.9056 46.6797 39.9215 46.726C39.9982 46.9604 40.1401 47.0839 40.2944 47.1584C40.4705 47.2428 40.629 47.2465 40.7425 47.2429C40.8459 47.2383 40.9527 47.1775 41.0245 47.0721C41.1304 46.9186 41.1955 46.5153 41.037 46.1946C40.9844 46.0893 40.886 45.9676 40.795 45.884C40.7216 45.8132 40.6774 45.7677 40.6348 45.6687C40.5497 45.4662 40.4413 45.2645 40.3153 45.0701C40.1351 44.7976 39.9774 44.7095 39.8038 44.7304C39.652 44.5251 39.5143 44.3344 39.3541 44.159C39.209 44.0019 39.0379 43.9056 38.9336 43.9056C38.9036 43.9056 38.8786 43.9138 38.8619 43.9311M37.6354 45.6632C37.6362 45.9394 38.015 45.9785 38.1085 45.9394C38.2236 45.8913 38.297 45.795 38.4105 45.7505C38.4881 45.7232 38.6066 45.7559 38.7476 45.765C38.5006 45.596 38.1268 45.3962 37.8824 45.3962C37.7355 45.3962 37.6346 45.468 37.6354 45.6632M38.1769 46.1638C38.1327 46.1747 38.1018 46.2055 38.0626 46.2264C38.1168 46.2964 38.1994 46.4344 38.2703 46.4935C38.1677 46.518 38.0768 46.5271 37.9958 46.5616C37.9307 46.587 37.884 46.637 37.8348 46.687C37.7322 46.7932 37.748 46.8359 37.9157 46.9558C37.975 46.9976 38.0292 47.0403 38.1043 47.0957C37.8415 47.2992 37.9558 47.598 37.9641 47.5962C38.0492 47.5717 38.111 47.5435 38.1952 47.5853C38.2753 47.6271 38.3729 47.7397 38.4455 47.8469C38.5991 48.0686 38.816 48.1648 39.0396 48.1049C39.1989 48.0631 39.3024 47.846 39.259 47.6116C39.2156 47.3473 38.9553 47.0721 38.7634 47.0694C38.6474 47.0667 38.6224 47.1066 38.6266 47.2638C38.7033 47.2783 38.7893 47.2583 38.8485 47.311C38.9169 47.3718 38.9854 47.499 39.0095 47.5962C39.0421 47.7279 38.9954 47.816 38.8944 47.8333C38.72 47.8651 38.524 47.7279 38.4005 47.4972C38.3671 47.4327 38.3162 47.2973 38.3129 47.241C38.302 47.0103 38.383 46.8087 38.5265 46.7487C38.6858 46.6824 38.8644 46.7015 39.0713 46.8251C39.4342 47.044 39.8597 47.6189 40.2135 47.8469C40.5547 48.0686 40.861 47.8896 41.0503 47.6307C41.057 47.6207 41.0729 47.6134 41.0779 47.6007C41.0787 47.5944 41.0779 47.579 41.0837 47.5372C40.5831 47.7016 40.0683 47.3156 39.531 46.915C39.2423 46.697 38.9486 46.4799 38.6516 46.28C38.5223 46.1937 38.3988 46.1492 38.2862 46.1492C38.2486 46.1492 38.2119 46.1547 38.1769 46.1638ZM42.3786 46.4462C42.1108 46.597 41.9923 47.0058 42.2393 47.5299C42.3002 47.6553 42.3736 47.7878 42.4579 47.9032C42.7849 48.3537 43.152 48.7189 43.515 49.0922C43.7353 49.3229 43.9422 49.5727 44.1516 49.8253C44.6906 50.4783 44.5913 51.2532 44.6063 51.2895C44.8466 50.8635 45.0568 50.4247 44.8591 49.7453C44.7331 49.3211 44.4686 49.0323 44.1958 48.7743C43.9889 48.5763 43.772 48.4083 43.5567 48.2257C43.2639 47.9777 43.077 47.6153 43.0653 47.3056C43.0544 47.0231 43.2155 46.9158 43.525 47.0094C43.565 47.0212 43.5884 47.0276 43.6585 47.0494C43.545 46.8205 43.3414 46.6652 43.1637 46.5471C42.9727 46.4208 42.8091 46.3709 42.6665 46.3709C42.5588 46.3709 42.4637 46.3999 42.3786 46.4462M41.9339 48.2311C42.3085 48.8924 42.6164 49.5954 42.9151 50.2921C43.0661 50.6373 43.2822 50.9552 43.4799 51.2586C43.5534 51.3694 43.7069 51.4003 43.8229 51.4248C43.9038 51.4421 43.9605 51.4675 44.0123 51.5738C44.6806 52.9072 45.2054 54.3006 45.6259 55.644C45.6384 55.6895 45.6484 55.7585 45.6325 55.7976C45.4482 56.1999 45.56 56.4879 45.7519 56.7495C45.9037 56.9584 46.1832 57.3817 46.2925 57.3717C46.315 57.1201 46.3409 56.8721 46.3367 56.625C46.3359 56.4025 46.3275 56.1681 46.2683 55.9601C46.2333 55.8338 46.1056 55.7603 46.0197 55.6604C45.9579 55.5895 45.8678 55.535 45.8395 55.4469C45.3948 54.1344 44.8624 52.7664 44.1908 51.4675C44.1241 51.3331 44.1082 51.2404 44.1499 51.1096C44.22 50.8817 44.1541 50.6282 44.0306 50.3902C43.7127 49.7862 43.2847 49.3193 42.8392 48.8906C42.5713 48.6335 42.2927 48.401 42.0098 48.1684C41.9748 48.1385 41.9364 48.1185 41.8697 48.0731C41.9022 48.1512 41.9131 48.1948 41.9339 48.2311M40.7233 48.5554C40.4922 48.7416 40.3795 49.0196 40.4079 49.4447C40.4296 49.7408 40.6165 50.1604 40.7967 50.2931C40.8067 50.1559 40.8042 50.0224 40.8226 49.9079C40.8701 49.6609 41.0295 49.5382 41.2464 49.5727C41.4333 49.6054 41.6945 49.857 41.7821 50.1032C41.9289 50.501 42.0432 50.908 42.1634 51.3122C42.3019 51.779 42.5497 52.067 42.9034 52.1624C43.1913 52.2405 43.4699 52.1806 43.7511 52.0434C43.6318 51.9644 43.5392 51.8999 43.4424 51.84C43.137 51.6465 42.9351 51.3086 42.7799 50.9089C42.5864 50.4111 42.4053 49.9015 42.1442 49.4401C41.9765 49.1367 41.7537 48.846 41.5159 48.6271C41.3557 48.4809 41.2064 48.421 41.0695 48.421C40.9419 48.421 40.8251 48.4736 40.7233 48.5554M38.373 51.7555C38.1836 51.7209 37.9908 51.6882 37.7822 51.6519C37.7247 51.9108 37.8315 52.1415 37.9683 52.3395C38.1043 52.5321 38.282 52.6847 38.4339 52.8563C38.3137 52.9154 38.1902 52.9708 38.0692 53.0271C38.2728 53.5058 38.6066 53.7401 39.1405 53.6729C39.5761 53.6166 40.0007 53.5022 40.4221 53.3987C40.9018 53.2833 41.3649 53.1552 41.833 53.3687C42.2735 53.5667 42.5388 54.0045 42.6756 54.5531C42.7833 54.9901 42.724 55.3833 42.5388 55.8175C42.533 55.8302 42.6222 55.9238 42.6573 55.9474C42.7115 55.7712 42.8784 55.4987 42.9126 55.3161C43.1579 53.9445 42.3127 52.9854 41.2765 52.9072C40.8685 52.8709 40.4546 52.9245 40.0375 52.9363C39.6954 52.9481 39.355 52.9417 39.0604 52.711C38.71 52.4313 38.5089 51.8363 38.8101 51.3631C38.9828 51.0933 39.3066 50.9788 39.5752 51.1169C39.7521 51.2086 39.914 51.4875 39.9073 51.7128C39.904 51.8599 39.8656 51.9926 39.7429 52.0434C39.6261 52.0897 39.5293 52.0406 39.4459 51.9271C39.4326 51.9108 39.4142 51.899 39.3984 51.8844C39.3283 52.0788 39.4659 52.4349 39.6653 52.5039C40.0108 52.6229 40.3587 52.1388 40.2944 51.6637C40.2385 51.2286 40.0525 50.8635 39.7012 50.6927C39.3158 50.5065 38.9887 50.5728 38.715 50.8853C38.6825 50.9198 38.6524 50.9452 38.6249 50.9707C38.4806 50.8062 38.3554 50.6673 38.2178 50.5183C37.9908 50.9598 38.1335 51.3331 38.373 51.7555M40.3311 52.4712C40.7241 52.4576 41.1329 51.909 40.9477 51.4212C40.8142 51.057 40.4112 50.7572 40.0984 50.5483C40.5831 51.1524 40.7792 51.8081 40.3311 52.4712ZM45.3505 53.2315C45.489 53.4849 45.5808 53.7783 45.6851 54.0545C46.0622 53.8047 46.3292 53.3087 46.174 52.7719C46.0948 52.4976 45.9579 52.2441 45.8303 51.9944C45.7327 51.8072 45.61 51.6456 45.5049 51.4648C45.4014 51.2913 45.3113 51.1069 45.207 50.9207C44.9676 51.7464 44.9617 52.5076 45.3505 53.2315M43.8979 54.2652C44.0206 54.6222 44.3727 54.7475 44.7223 54.6222C44.8391 54.5786 44.9501 54.5213 45.0327 54.4859C44.925 54.1762 44.8024 53.9018 44.7114 53.6066C44.5087 52.9526 44.1291 52.6429 43.6618 52.5511C43.5475 52.5303 43.429 52.523 43.2839 52.503C43.5233 53.1125 43.7027 53.7038 43.8979 54.2652M39.7479 54.2089C39.8197 54.2543 39.8597 54.2779 39.9131 54.3143C39.6954 54.565 39.3683 54.6485 39.1898 55.0037C39.3842 55.0073 39.5527 55.0091 39.7254 55.0109C39.6428 55.2316 39.4826 55.6813 39.496 55.6931C40.4972 54.6431 41.4366 54.5759 42.5063 54.7493C42.4704 54.4287 41.7979 53.8728 41.3849 53.7711C41.2531 53.7384 41.1246 53.722 40.9986 53.722C40.5748 53.722 40.176 53.9009 39.7479 54.2089ZM46.0823 54.5459C46.3501 54.4314 46.6162 54.3251 46.8791 54.2652C46.8615 54.2161 46.8457 54.1662 46.8282 54.1181C46.7831 53.9954 46.7339 53.8673 46.6846 53.7365C46.4227 53.9672 46.2016 54.2625 46.0823 54.5459ZM46.1348 55.268C46.1198 55.2734 46.109 55.2971 46.0823 55.3407C46.4844 55.4188 46.6338 55.8039 46.7088 56.2499C46.9416 56.1881 47.0468 55.9701 47.1485 55.773C47.2361 55.8602 47.3179 55.9637 47.4114 56.0382C47.3304 55.7176 47.2395 55.3888 47.1369 55.0527C47.0835 55.0464 47.0292 55.0418 46.9767 55.0418C46.693 55.0418 46.4135 55.1363 46.1348 55.268M42.6381 56.804C42.6865 56.8058 42.7349 56.8067 42.7891 56.8076C42.7007 57.0501 42.6131 57.2836 42.5121 57.5098C42.528 57.5207 42.8534 57.3435 43.0127 57.2273C43.0653 57.3762 43.1112 57.5106 43.1571 57.6469C43.4783 56.496 44.2317 55.8384 44.9884 55.1762C44.9325 55.1653 44.8733 55.1608 44.8116 55.1608C44.1324 55.1608 43.122 55.7875 42.6381 56.804M45.0969 56.0246C44.8349 56.2699 44.5913 56.5405 44.4595 56.9111C44.3301 57.2672 44.371 57.5524 44.5804 57.795C44.8433 57.5343 45.0393 57.2718 44.9626 56.9411C45.1461 56.9302 45.3213 56.9166 45.5433 56.8993C45.3789 56.506 45.2771 56.1582 45.5016 55.7385C45.489 55.7276 45.4782 55.7158 45.4648 55.7067C45.3472 55.8148 45.2179 55.9138 45.0969 56.0246M46.6463 56.5315C46.7814 56.7822 46.8774 57.0029 47.0134 57.1854C47.1077 57.3208 47.2628 57.4098 47.4547 57.3208C47.5215 57.2918 47.6116 57.2154 47.6575 57.14C47.6391 57.0429 47.6191 56.9457 47.5983 56.8458C47.4631 56.863 47.3588 56.7767 47.2729 56.7086C47.1294 56.5969 46.9758 56.5251 46.7631 56.5251C46.7264 56.5251 46.6871 56.5269 46.6463 56.5315M45.2596 57.7187C45.2054 57.9131 45.1303 58.0729 44.8916 58.1283C44.9868 58.2791 45.1319 58.3073 45.2996 58.2864C45.4573 58.2655 45.5675 58.1438 45.6359 58.0102C45.7402 57.8077 45.7519 57.5643 45.7268 57.3544C45.7135 57.2391 45.6926 57.1028 45.6584 57.0274C45.4415 57.2436 45.3313 57.4752 45.2596 57.7187M46.9032 58.0493C47.0893 58.1647 47.3613 58.0311 47.5106 57.6978C47.2628 57.7723 47.1736 57.6024 47.0467 57.4625C46.9349 57.3408 46.7914 57.2609 46.6479 57.151C46.5737 57.4898 46.7013 57.9276 46.9032 58.0493M45.862 57.9948C45.8678 58.1783 45.8703 58.3436 45.6976 58.5135C45.862 58.5661 46.0055 58.5216 46.1473 58.399C46.275 58.2918 46.3134 58.1592 46.3067 58.0093C46.2942 57.7487 46.119 57.4371 45.8937 57.3217C45.8887 57.5679 45.8528 57.7914 45.862 57.9948M46.6262 58.7623C46.6479 58.7987 46.6755 58.8186 46.7097 58.8223H46.7347C46.7639 58.8195 46.7981 58.8078 46.8382 58.786C46.9525 58.7233 46.9909 58.6524 46.9733 58.5562C46.9266 58.2846 46.7439 58.1156 46.5428 57.953C46.5044 58.2619 46.4936 58.5398 46.6262 58.7623" fill="url(#paint21_linear_410_1402)"/>
<path d="M29.7759 40.2168L30.1163 40.0051L29.1893 38.2457L28.8489 38.4573L29.2052 39.1359L27.5215 40.1886L27.7334 40.5919L29.4179 39.5383L29.7759 40.2168ZM31.2952 42.2396L29.6282 42.5276L30.6911 41.0942L30.3607 40.4702L28.3375 41.7355L28.5486 42.1379L30.0971 41.1705L30.1029 41.1814L28.8815 42.7683L29.055 43.0971L30.9289 42.751L30.9348 42.7592L29.3879 43.7275L29.5998 44.1299L31.6239 42.8655L31.2952 42.2396Z" fill="#BCBAB7"/>
<path d="M32.6571 94.2222C32.1934 94.2222 31.9952 93.5491 31.9952 91.6968C31.9952 90.7353 32.4249 90.4951 33.6506 90.4951C33.9724 90.4951 34.2294 90.4978 34.4761 90.5024C34.0852 91.8123 33.5609 94.2222 32.6571 94.2222ZM30.1719 92.9592C30.1719 93.4495 30.215 93.8679 30.2931 94.2222H23.8117C22.9498 94.2222 22.3988 94.0051 22.3988 93.1393V90.7353H24.4403C24.6069 90.1949 24.7167 89.7006 24.7718 89.1734H22.3994C22.4091 88.4316 22.4588 87.7691 22.5085 87.0089C21.7357 87.3092 21.1289 87.6576 20.6313 88.2594V89.1734H19.582C19.4941 89.8227 19.4941 90.3143 19.4723 90.7353H20.6313V93.2601C20.6313 95.0273 21.6144 95.7849 22.9613 95.7849H31.7733C32.8529 95.7849 33.6821 94.8214 34.4792 92.6411V95.7849H36.2455V89.1734C35.4508 89.1008 34.7216 89.0519 33.927 89.0519C31.7406 89.0519 30.1719 90.0385 30.1719 92.9592ZM39.4483 92.226V91.5774C39.4483 90.7353 39.3925 90.0141 39.2828 89.1734H37.5711C37.6262 90.0141 37.6814 90.7353 37.6814 91.5774V95.7849H39.4483C39.4483 93.4277 40.1435 90.7472 41.9874 91.0362C41.9874 90.6152 41.9323 89.6531 41.8226 89.0519C40.4763 89.1793 39.8168 90.4707 39.4483 92.226ZM15.1099 94.2222C14.6462 94.2222 14.4474 93.5491 14.4474 91.6968C14.4474 90.7353 14.8784 90.4951 16.1034 90.4951C16.4253 90.4951 16.6823 90.4978 16.9302 90.5024C16.538 91.8123 16.0149 94.2222 15.1099 94.2222ZM12.626 92.9592C12.626 94.9554 13.2879 95.905 14.1716 95.905C15.2542 95.905 16.1185 94.8617 16.9326 92.6378V95.7849H18.6995V89.1734C17.9042 89.1008 17.1757 89.0519 16.3798 89.0519C14.1934 89.0519 12.626 90.0385 12.626 92.9592M70.2015 89.894C70.2015 88.2475 69.1522 87.2491 67.275 87.2491C66.2373 87.2491 65.476 87.4893 65.0117 87.7308C64.7468 88.1386 64.6256 88.6085 64.4595 89.3522C65.1663 89.0519 65.8506 88.8124 66.8889 88.8124C67.7169 88.8124 68.38 89.1971 68.38 90.2549C68.38 91.3959 67.7284 92.226 64.1831 94.4618C64.1831 94.7026 64.1946 95.183 64.294 95.7849H70.1457C70.3124 95.2437 70.4221 94.7633 70.4773 94.2222H65.4966C67.9848 93.2957 70.2015 92.3283 70.2015 89.894M8.4648 93.9385L8.37388 93.885C7.31434 93.2726 5.88931 92.3356 5.88931 90.6278C5.88931 89.0638 6.81792 88.3307 7.93261 88.3307C9.16974 88.3307 9.92014 89.2803 9.92014 90.9406C9.92014 92.0835 9.34189 93.0918 8.4648 93.9385M11.8525 95.905L8.94365 94.2163C10.5899 93.565 11.7974 92.2802 11.7974 90.4588C11.7974 88.006 10.1074 86.7687 7.93261 86.7687C5.93416 86.7687 4.0127 88.1631 4.0127 90.8561C4.0127 93.1281 5.6026 94.4862 7.34708 95.4839L12.9563 98.6699C12.9563 97.2637 12.8023 96.4573 11.8525 95.905M53.1956 95.183C52.6998 95.183 51.1529 94.0889 51.1529 91.157C51.1529 89.7132 51.9263 88.8124 53.1956 88.8124C54.4654 88.8124 55.2395 89.7132 55.2395 91.157C55.2395 94.0889 53.6932 95.183 53.1956 95.183M53.1956 87.2491C50.988 87.2491 49.3308 88.6916 49.3308 91.0362C49.3308 94.1015 52.0366 95.905 53.1956 95.905C54.3557 95.905 57.0603 94.1015 57.0603 91.0362C57.0603 88.6916 55.405 87.2491 53.1956 87.2491ZM53.2204 90.5268C52.8343 90.8264 52.5028 91.1768 52.2106 91.5774C52.5028 91.9779 52.8343 92.327 53.2204 92.6279C53.6065 92.327 53.9369 91.9779 54.2315 91.5774C53.9369 91.1768 53.6065 90.8264 53.2204 90.5268ZM63.3557 89.894C63.3557 88.2475 62.3059 87.2491 60.4281 87.2491C59.3909 87.2491 58.629 87.4893 58.1647 87.7308C57.9004 88.1386 57.7786 88.6085 57.6125 89.3522C58.3199 89.0519 59.0048 88.8124 60.0425 88.8124C60.8705 88.8124 61.5337 89.1971 61.5337 90.2549C61.5337 91.3959 60.8821 92.226 57.3373 94.4618C57.3373 94.7026 57.3483 95.183 57.4477 95.7849H63.3006C63.4654 95.2437 63.5764 94.7633 63.6315 94.2222H58.6502C61.1391 93.2957 63.3557 92.3283 63.3557 89.894M48.4471 89.894C48.4471 88.2475 47.3991 87.2491 45.5218 87.2491C44.4835 87.2491 43.7216 87.4893 43.2585 87.7308C42.993 88.1386 42.8712 88.6085 42.7063 89.3522C43.4125 89.0519 44.0974 88.8124 45.1357 88.8124C45.9631 88.8124 46.6256 89.1971 46.6256 90.2549C46.6256 91.3959 45.974 92.226 42.4299 94.4618C42.4299 94.7026 42.4408 95.183 42.5408 95.7849H48.3931C48.5592 95.2437 48.6689 94.7633 48.7235 94.2222H43.7428C46.2304 93.2957 48.4471 92.3283 48.4471 89.894Z" fill="#9A1032"/>
<path d="M63.5182 84.4174C63.2679 84.486 62.9927 84.5507 62.6939 84.6121C62.3926 84.6734 62.0211 84.7031 61.5768 84.7031C61.1391 84.7031 60.696 84.6391 60.2487 84.5098C59.8014 84.3811 59.3983 84.1732 59.0395 83.8868C58.68 83.6011 58.3854 83.2243 58.1575 82.7584C57.9278 82.2925 57.8145 81.7211 57.8145 81.0473C57.8145 80.4283 57.909 79.8846 58.0963 79.4187C58.2836 78.9521 58.5455 78.5648 58.8794 78.2533C59.214 77.9438 59.6117 77.7128 60.0711 77.5598C60.5306 77.406 61.0294 77.3301 61.5671 77.3301C61.9053 77.3301 62.2332 77.3651 62.5521 77.437C62.8715 77.5076 63.1903 77.5947 63.5085 77.697L63.3691 79.2398C63.0873 79.0689 62.8072 78.9429 62.5296 78.8617C62.2502 78.7799 61.9611 78.739 61.6616 78.739C61.3483 78.739 61.0676 78.7964 60.8173 78.9132C60.5669 79.028 60.353 79.1884 60.1742 79.3923C59.9953 79.5975 59.8578 79.841 59.7608 80.1234C59.6638 80.4052 59.6165 80.7134 59.6165 81.0473C59.6165 81.3944 59.6705 81.7079 59.7808 81.9877C59.8893 82.2661 60.0396 82.5024 60.2305 82.697C60.4215 82.8904 60.6512 83.0389 60.9197 83.1412C61.1888 83.2428 61.4822 83.2942 61.8023 83.2942C62.0896 83.2942 62.3745 83.2586 62.6557 83.1867C62.9376 83.1161 63.1964 83.029 63.434 82.9267L63.5182 84.4174Z" fill="#9A1032"/>
<path d="M69.8039 81.8742C69.8039 82.3651 69.7348 82.7861 69.5972 83.1412C69.4596 83.4949 69.265 83.7878 69.0116 84.0188C68.7577 84.2511 68.4546 84.4227 68.1012 84.5349C67.7478 84.6484 67.3581 84.7031 66.9326 84.7031C66.5077 84.7031 66.1185 84.6484 65.7645 84.5349C65.4118 84.4227 65.1087 84.2511 64.8547 84.0188C64.6014 83.7878 64.4068 83.4949 64.2692 83.1412C64.1316 82.7861 64.0625 82.3651 64.0625 81.8742V77.4515H65.8076V81.5581C65.8076 81.7963 65.8246 82.0187 65.8591 82.2265C65.893 82.4351 65.9537 82.6179 66.0373 82.7782C66.1216 82.9379 66.2361 83.0639 66.3798 83.1557C66.5228 83.2481 66.7083 83.2942 66.9326 83.2942C67.1581 83.2942 67.3429 83.2481 67.4872 83.1557C67.6315 83.0639 67.7448 82.9379 67.8297 82.7782C67.9133 82.6179 67.9733 82.4351 68.0079 82.2265C68.0412 82.0187 68.0594 81.7963 68.0594 81.5581V77.4515H69.8039V81.8742Z" fill="#9A1032"/>
<path d="M72.4224 80.7401H72.8722C73.0225 80.7401 73.1631 80.7243 73.2947 80.6946C73.4256 80.6629 73.5402 80.6088 73.6365 80.531C73.7335 80.4531 73.8105 80.3501 73.8669 80.2241C73.9226 80.0987 73.9511 79.9437 73.9511 79.7602C73.9511 79.5754 73.9226 79.4223 73.8669 79.3009C73.8105 79.1782 73.7335 79.0792 73.6365 79.004C73.5402 78.9294 73.4256 78.8759 73.2947 78.8462C73.1631 78.8146 73.0225 78.7994 72.8722 78.7994H72.4224V80.7401ZM70.6768 77.4512H72.7595C73.7669 77.4512 74.5082 77.6406 74.984 78.0181C75.4586 78.3969 75.6968 78.9868 75.6968 79.7906C75.6968 80.5125 75.4683 81.076 75.0119 81.4805C74.5542 81.8864 73.9166 82.0883 73.0971 82.0883H72.4224V84.5801H70.6768V77.4512Z" fill="#9A1032"/>
<path d="M21.4238 77.4515H23.2065L24.0514 82.9267H24.0702L24.951 77.4515H27.1652L28.0847 82.9267H28.1041L28.9576 77.4515H30.656L29.1915 84.5811H26.95L26.0214 79.1066H26.002L25.1395 84.5811H22.878L21.4238 77.4515Z" fill="#9A1032"/>
<path d="M32.5228 81.0166C32.5228 81.3103 32.5506 81.594 32.6076 81.8698C32.6634 82.145 32.7501 82.3885 32.8695 82.5997C32.9883 82.8109 33.1416 82.9791 33.3301 83.1052C33.5174 83.2312 33.7417 83.2946 34.0054 83.2946C34.2672 83.2946 34.4939 83.2312 34.6812 83.1052C34.8685 82.9791 35.0213 82.8109 35.1395 82.5997C35.2589 82.3885 35.3468 82.145 35.4031 81.8698C35.4589 81.594 35.4874 81.3103 35.4874 81.0166C35.4874 80.7111 35.4589 80.4194 35.4031 80.1442C35.3468 79.8684 35.2589 79.6262 35.1395 79.4177C35.0213 79.2111 34.8685 79.0455 34.6812 78.9228C34.4939 78.8 34.2672 78.74 34.0054 78.74C33.7417 78.74 33.5174 78.8 33.3301 78.9228C33.1416 79.0455 32.9883 79.2111 32.8695 79.4177C32.7501 79.6262 32.6634 79.8684 32.6076 80.1442C32.5506 80.4194 32.5228 80.7111 32.5228 81.0166ZM30.7207 81.0166C30.7207 80.4445 30.7916 79.9304 30.9322 79.4744C31.0723 79.0184 31.2808 78.6317 31.556 78.3157C31.8312 77.9989 32.1742 77.7547 32.5828 77.5851C32.9925 77.4149 33.4665 77.3291 34.0054 77.3291C34.5424 77.3291 35.0164 77.4149 35.4262 77.5851C35.8359 77.7547 36.1784 77.9989 36.4536 78.3157C36.7288 78.6317 36.9367 79.0184 37.0779 79.4744C37.2185 79.9304 37.2882 80.4445 37.2882 81.0166C37.2882 81.5815 37.2185 82.0922 37.0779 82.5489C36.9367 83.0055 36.7263 83.3935 36.4487 83.7129C36.1705 84.033 35.8268 84.2785 35.4165 84.4481C35.0079 84.619 34.5358 84.7041 34.0054 84.7041C33.4665 84.7041 32.9949 84.619 32.5876 84.4481C32.1827 84.2785 31.8396 84.033 31.5608 83.7129C31.2826 83.3935 31.0723 83.0055 30.9322 82.5489C30.7916 82.0922 30.7207 81.5815 30.7207 81.0166Z" fill="#9A1032"/>
<path d="M39.6908 80.4135H40.1496C40.2878 80.4135 40.4333 80.4082 40.586 80.3977C40.74 80.3878 40.8776 80.3554 40.9994 80.3013C41.1213 80.2459 41.2231 80.1647 41.3037 80.0558C41.3855 79.9463 41.4255 79.7906 41.4255 79.5853C41.4255 79.4223 41.3904 79.2884 41.3176 79.1828C41.2461 79.0772 41.1528 78.9967 41.037 78.9426C40.9212 78.8885 40.7867 78.8515 40.6327 78.8304C40.48 78.8093 40.3193 78.7994 40.1496 78.7994H39.6908V80.4135ZM37.9463 77.4512H41.0606C41.3473 77.4512 41.6207 77.4875 41.8765 77.5581C42.1329 77.6301 42.3584 77.7416 42.5524 77.8914C42.7451 78.0412 42.8972 78.2273 43.007 78.4516C43.1167 78.6773 43.1712 78.9426 43.1712 79.2488C43.1712 79.7252 43.0682 80.1172 42.8609 80.4241C42.6554 80.7296 42.339 80.9375 41.9141 81.047V81.0668C42.0517 81.107 42.1626 81.1717 42.2475 81.2615C42.3317 81.3499 42.4051 81.4601 42.4675 81.5927C42.5305 81.726 42.5875 81.8791 42.6409 82.0527C42.6948 82.2262 42.7615 82.4222 42.8439 82.6406L43.481 84.5801H41.6619L41.2855 83.2939C41.1976 82.9871 41.1146 82.735 41.037 82.5377C40.9588 82.3411 40.8733 82.184 40.7836 82.0685C40.6927 81.9517 40.5897 81.8725 40.4733 81.8283C40.3575 81.7834 40.2193 81.7617 40.0569 81.7617H39.6908V84.5801H37.9463V77.4512Z" fill="#9A1032"/>
<path d="M44.2314 77.4515H45.9759V83.1715H48.6781V84.5811H44.2314V77.4515Z" fill="#9A1032"/>
<path d="M51.0328 83.1715H51.708C52.3645 83.1715 52.8682 82.9914 53.2179 82.6297C53.5683 82.2694 53.7441 81.7323 53.7441 81.0163C53.7441 80.3016 53.5646 79.7638 53.2082 79.4029C52.8518 79.0419 52.3524 78.8611 51.708 78.8611H51.0328V83.1715ZM49.2871 77.4515H51.6699C52.2396 77.4515 52.7621 77.507 53.2367 77.6152C53.7125 77.7241 54.1199 77.9135 54.4617 78.1827C54.8018 78.4513 55.0685 78.8142 55.2588 79.2702C55.4497 79.7255 55.5455 80.2983 55.5455 80.9859C55.5455 81.6538 55.4479 82.2153 55.254 82.6713C55.06 83.128 54.7915 83.4968 54.4472 83.7793C54.1035 84.0617 53.6938 84.2656 53.2179 84.3917C52.7427 84.5177 52.2269 84.5811 51.6699 84.5811H49.2871V77.4515Z" fill="#9A1032"/>
<path fill-rule="evenodd" clip-rule="evenodd" d="M0.302734 77.4515V84.5811H2.34058V82.0061H3.80805L4.32994 80.4481H2.34058V79.0043H4.81121L5.33128 77.4515H0.302734Z" fill="#9A1032"/>
<path fill-rule="evenodd" clip-rule="evenodd" d="M5.95508 84.5801H7.99292V77.4506H5.95508V84.5801Z" fill="#9A1032"/>
<path fill-rule="evenodd" clip-rule="evenodd" d="M9.39551 77.4515V84.5811H11.4346V82.0061H12.9008L13.4227 80.4481H11.4346V79.0043H13.904L14.4247 77.4515H9.39551Z" fill="#9A1032"/>
<path fill-rule="evenodd" clip-rule="evenodd" d="M17.5989 82.2529L16.7837 79.2834L15.9969 82.2529H17.5989ZM20.2605 84.5811H18.202L17.9359 83.6229H15.6326L15.3774 84.5811H13.3711L15.7569 77.4515H17.8759L20.2605 84.5811Z" fill="#9A1032"/>
</g>
<defs>
<linearGradient id="paint0_linear_410_1402" x1="32.38" y1="38.6635" x2="39.4787" y2="22.7993" gradientUnits="userSpaceOnUse">
<stop stop-color="#858380"/>
<stop offset="1" stop-color="#A19F9C"/>
</linearGradient>
<linearGradient id="paint1_linear_410_1402" x1="35.6591" y1="-0.135545" x2="45.3067" y2="23.277" gradientUnits="userSpaceOnUse">
<stop stop-color="#9D9B98"/>
<stop offset="1" stop-color="#797775"/>
</linearGradient>
<linearGradient id="paint2_linear_410_1402" x1="44.1688" y1="18.6522" x2="16.6225" y2="62.322" gradientUnits="userSpaceOnUse">
<stop stop-color="#797775"/>
<stop offset="0.842522" stop-color="#F2EFEA"/>
<stop offset="1" stop-color="#F2EFEA"/>
</linearGradient>
<linearGradient id="paint3_linear_410_1402" x1="33.0764" y1="62.5393" x2="33.0764" y2="9.66136" gradientUnits="userSpaceOnUse">
<stop stop-color="#9D9B98"/>
<stop offset="1" stop-color="#F2EFEA"/>
</linearGradient>
<linearGradient id="paint4_linear_410_1402" x1="49.7145" y1="41.6332" x2="35.0125" y2="4.08632" gradientUnits="userSpaceOnUse">
<stop stop-color="#9D9B98"/>
<stop offset="1" stop-color="#F2EFEA"/>
</linearGradient>
<linearGradient id="paint5_linear_410_1402" x1="48.9059" y1="64.4483" x2="26.5642" y2="7.39056" gradientUnits="userSpaceOnUse">
<stop stop-color="#44433E"/>
<stop offset="1" stop-color="#F2EFEA"/>
</linearGradient>
<linearGradient id="paint6_linear_410_1402" x1="37.0828" y1="8.42657" x2="37.0828" y2="34.4376" gradientUnits="userSpaceOnUse">
<stop stop-color="#F2EFEA"/>
<stop offset="1" stop-color="#F2EFEA"/>
</linearGradient>
<linearGradient id="paint7_linear_410_1402" x1="29.6044" y1="7.21446" x2="37.7972" y2="2.33954" gradientUnits="userSpaceOnUse">
<stop stop-color="#FAF6F2"/>
<stop offset="1" stop-color="#FFFBF7"/>
</linearGradient>
<linearGradient id="paint8_linear_410_1402" x1="28.0828" y1="2.68246" x2="36.9732" y2="2.68246" gradientUnits="userSpaceOnUse">
<stop stop-color="#B0AEAB"/>
<stop offset="1" stop-color="#FAF6F2"/>
</linearGradient>
<linearGradient id="paint9_linear_410_1402" x1="50.9052" y1="8.24691" x2="38.2891" y2="1.95955" gradientUnits="userSpaceOnUse">
<stop stop-color="#FFFBF7"/>
<stop offset="0.527027" stop-color="#FFFBF7"/>
<stop offset="1" stop-color="#B4B2AF"/>
</linearGradient>
<linearGradient id="paint10_linear_410_1402" x1="30.6248" y1="1.46317" x2="45.4591" y2="1.46317" gradientUnits="userSpaceOnUse">
<stop stop-color="#CCC9C6"/>
<stop offset="1" stop-color="#FAF6F2"/>
</linearGradient>
<linearGradient id="paint11_linear_410_1402" x1="27.4618" y1="3.88416" x2="25.5806" y2="33.8343" gradientUnits="userSpaceOnUse">
<stop stop-color="#FFFBF7"/>
<stop offset="1" stop-color="#FFFBF7"/>
</linearGradient>
<linearGradient id="paint12_linear_410_1402" x1="31.6336" y1="47.7063" x2="47.8752" y2="47.7063" gradientUnits="userSpaceOnUse">
<stop stop-color="#DAD7D3"/>
<stop offset="1" stop-color="#FAF6F2"/>
</linearGradient>
<linearGradient id="paint13_linear_410_1402" x1="31.2352" y1="22.4122" x2="30.5906" y2="11.2217" gradientUnits="userSpaceOnUse">
<stop stop-color="#BBB8B5"/>
<stop offset="1" stop-color="#FAF6F2"/>
</linearGradient>
<linearGradient id="paint14_linear_410_1402" x1="37.3469" y1="6.17923" x2="37.3469" y2="66.3735" gradientUnits="userSpaceOnUse">
<stop stop-color="#DAD7D3"/>
<stop offset="0.512418" stop-color="#FFFBF7"/>
<stop offset="1" stop-color="#EEEBE7"/>
</linearGradient>
<linearGradient id="paint15_linear_410_1402" x1="37.3469" y1="2.64797" x2="37.3469" y2="62.8422" gradientUnits="userSpaceOnUse">
<stop stop-color="#DAD7D3"/>
<stop offset="0.512418" stop-color="#FFFBF7"/>
<stop offset="1" stop-color="#EEEBE7"/>
</linearGradient>
<linearGradient id="paint16_linear_410_1402" x1="40.1202" y1="63.3606" x2="31.0277" y2="29.0138" gradientUnits="userSpaceOnUse">
<stop stop-color="#FAF6F2"/>
<stop offset="0.512418" stop-color="#FFFBF7"/>
<stop offset="0.677314" stop-color="#FFFBF7"/>
<stop offset="0.90099" stop-color="#EBE7E3"/>
<stop offset="1" stop-color="#CCC9C6"/>
</linearGradient>
<linearGradient id="paint17_linear_410_1402" x1="29.6155" y1="8.56767" x2="23.6929" y2="17.9568" gradientUnits="userSpaceOnUse">
<stop stop-color="#791426"/>
<stop offset="0.534653" stop-color="#AF1C3B"/>
<stop offset="1" stop-color="#791426"/>
</linearGradient>
<linearGradient id="paint18_linear_410_1402" x1="28.6236" y1="7.94209" x2="22.7004" y2="17.3319" gradientUnits="userSpaceOnUse">
<stop stop-color="#791426"/>
<stop offset="0.534653" stop-color="#AF1C3B"/>
<stop offset="1" stop-color="#791426"/>
</linearGradient>
<linearGradient id="paint19_linear_410_1402" x1="31.1937" y1="9.56332" x2="25.2713" y2="18.9522" gradientUnits="userSpaceOnUse">
<stop stop-color="#791426"/>
<stop offset="0.534653" stop-color="#AF1C3B"/>
<stop offset="1" stop-color="#791426"/>
</linearGradient>
<linearGradient id="paint20_linear_410_1402" x1="31.3225" y1="88.0769" x2="54.0759" y2="38.4397" gradientUnits="userSpaceOnUse">
<stop stop-color="#791426"/>
<stop offset="0.534653" stop-color="#AF1C3B"/>
<stop offset="1" stop-color="#791426"/>
</linearGradient>
<linearGradient id="paint21_linear_410_1402" x1="31.045" y1="25.7714" x2="57.4941" y2="80.1451" gradientUnits="userSpaceOnUse">
<stop stop-color="#791426"/>
<stop offset="0.534653" stop-color="#AF1C3B"/>
<stop offset="1" stop-color="#791426"/>
</linearGradient>
<clipPath id="clip0_410_1402">
<rect width="76" height="99" fill="white"/>
</clipPath>
</defs>
</svg>
